SplineFontDB: 3.0
FontName: devicons3
FullName: devicons3
FamilyName: devicons3
Weight: Regular
Copyright: 
Version: 
ItalicAngle: 0
UnderlinePosition: 0
UnderlineWidth: 0
Ascent: 960
Descent: 64
InvalidEm: 0
LayerCount: 2
Layer: 0 0 "Back" 1
Layer: 1 0 "Fore" 0
XUID: [1021 746 -852493879 27595]
OS2Version: 0
OS2_WeightWidthSlopeOnly: 0
OS2_UseTypoMetrics: 0
CreationTime: 1508229699
ModificationTime: 1552487374
PfmFamily: 17
TTFWeight: 400
TTFWidth: 5
LineGap: 92
VLineGap: 92
OS2TypoAscent: 0
OS2TypoAOffset: 1
OS2TypoDescent: 0
OS2TypoDOffset: 1
OS2TypoLinegap: 92
OS2WinAscent: 0
OS2WinAOffset: 1
OS2WinDescent: 0
OS2WinDOffset: 1
HheadAscent: 0
HheadAOffset: 1
HheadDescent: 0
HheadDOffset: 1
OS2Vendor: 'PfEd'
MarkAttachClasses: 1
DEI: 91125
Encoding: Custom
UnicodeInterp: none
NameList: AGL For New Fonts
DisplaySize: -48
AntiAlias: 1
FitToEm: 0
WinInfo: 0 31 11
BeginPrivate: 0
EndPrivate
BeginChars: 201 201

StartChar: uniE600
Encoding: 2 58880 2
Width: 1024
LayerCount: 2
Fore
SplineSet
438.59 610.618 m 1
 511.186 453.204 l 1
 618.458 404.676 l 1
 231.524 201.11 l 1
 390.066 342.436 l 1
 390.066 745.334 l 1
 226.792 795.35 l 1
 226.792 196.118 l 1
 389.066 82.366 l 1
 797.208 325.468 l 1
 797.208 500.716 l 1
 438.59 610.618 l 1
EndSplineSet
Validated: 9
EndChar

StartChar: uniE601
Encoding: 3 58881 3
Width: 1024
LayerCount: 2
Fore
SplineSet
491.604 816.774 m 1
 464.004 807.774 445.804 786.574 441.204 758.174 c 0
 439.604 748.574 441.404 728.374 451.204 639.574 c 0
 457.804 580.774 462.804 531.374 462.604 529.974 c 0
 462.204 528.574 420.604 557.974 369.004 595.774 c 0
 318.004 633.174 271.604 666.174 266.004 669.174 c 0
 252.404 676.174 228.204 677.574 212.004 672.374 c 0
 188.204 664.974 168.004 644.774 160.604 621.174 c 0
 154.004 599.374 156.804 579.976 169.804 560.374 c 0
 182.404 541.574 190.804 536.974 303.804 486.774 c 0
 361.804 461.174 409.204 439.374 409.004 438.374 c 0
 409.004 437.374 363.604 416.974 308.404 393.172 c 0
 253.204 369.374 203.404 347.172 197.804 343.772 c 0
 184.404 335.772 170.004 319.974 163.404 305.974 c 0
 158.804 296.374 158.004 291.974 158.004 277.574 c 0
 158.004 262.772 158.804 258.974 164.404 247.174 c 0
 172.404 230.376 183.804 217.774 198.404 209.976 c 0
 221.804 197.576 243.604 197.774 269.004 210.576 c 0
 276.204 214.176 322.604 246.774 372.004 283.176 c 0
 437.204 330.978 462.204 348.378 462.604 345.978 c 0
 462.804 344.176 457.804 294.378 451.204 235.578 c 0
 438.404 119.578 438.204 115.578 447.404 95.978 c 0
 453.404 83.378 466.804 70.378 480.604 63.978 c 0
 490.604 59.176 494.604 58.578 512.004 58.578 c 0
 529.806 58.578 533.204 59.178 543.404 64.178 c 0
 564.804 74.778 578.804 93.38 583.202 117.778 c 0
 585.202 129.38 584.202 141.38 573.202 239.38 c 0
 566.404 299.178 561.202 348.38 561.602 348.778 c 0
 562.002 349.176 599.002 322.38 644.202 289.178 c 0
 754.004 208.38 758.804 205.38 779.002 201.578 c 0
 819.602 193.978 863.402 228.978 866.602 271.578 c 0
 867.804 289.38 864.404 302.776 854.804 317.578 c 0
 841.602 337.978 834.002 342.178 720.002 391.38 c 0
 662.804 415.98 615.2 436.778 614.402 437.578 c 0
 613.402 438.38 658.002 459.178 713.402 483.578 c 0
 834.6 537.178 831.002 535.578 844.402 547.978 c 0
 858.6 561.578 865.402 575.778 866.6 594.378 c 0
 868.802 629.978 846.2 663.178 813.2 672.778 c 0
 797.002 677.578 772.802 675.778 758.6 668.978 c 0
 752.802 665.978 706 632.978 655.2 595.578 c 0
 604.2 558.178 562.002 527.778 561.6 528.178 c 0
 561.198 528.578 566.402 578.378 573.2 638.778 c 0
 586.402 758.378 586.6 760.978 576.6 781.178 c 0
 570.6 793.778 557 806.778 543.802 812.978 c 0
 530 819.178 504.6 821.178 491.6 816.778 c 1
 491.604 816.774 l 1
EndSplineSet
Validated: 41
EndChar

StartChar: uniE602
Encoding: 4 58882 4
Width: 1024
LayerCount: 2
Fore
SplineSet
859.276 471.002 m 2
 544.136 786.13 l 2
 525.994 804.282 496.562 804.282 478.396 786.13 c 2
 412.962 720.684 l 1
 495.968 637.672 l 1
 515.264 644.188 537.386 639.816 552.76 624.44 c 0
 568.222 608.97 572.556 586.656 565.878 567.296 c 1
 645.884 487.296 l 1
 665.244 493.97 687.57 489.656 703.032 474.172 c 0
 724.634 452.574 724.634 417.566 703.032 395.956 c 0
 681.416 374.342 646.414 374.342 624.79 395.956 c 0
 608.542 412.218 604.52 436.092 612.76 456.11 c 1
 538.138 530.726 l 1
 538.138 334.378 l 1
 543.4 331.768 548.368 328.294 552.76 323.918 c 0
 574.362 302.322 574.362 267.318 552.76 245.688 c 0
 531.158 224.092 496.13 224.092 474.544 245.688 c 0
 452.944 267.318 452.944 302.322 474.544 323.918 c 0
 479.884 329.254 486.064 333.29 492.664 335.99 c 1
 492.664 534.154 l 1
 486.064 536.856 479.898 540.856 474.544 546.226 c 0
 458.182 562.58 454.248 586.596 462.636 606.69 c 1
 380.806 688.536 l 1
 164.716 472.464 l 2
 146.568 454.296 146.568 424.862 164.716 406.708 c 2
 479.872 91.584 l 2
 498.012 73.438 527.44 73.438 545.61 91.584 c 2
 859.276 405.25 l 2
 877.434 423.404 877.434 452.854 859.276 471.002 c 2
EndSplineSet
Validated: 41
EndChar

StartChar: uniE603
Encoding: 5 58883 5
Width: 1024
LayerCount: 2
Fore
SplineSet
511.996 840.416 m 1
 511.996 840.416 l 1
 315.978 840.416 155.924 787.712 155.924 722.282 c 0
 155.924 705.044 198.67 457.93 215.622 359.926 c 0
 223.228 315.974 336.806 251.53 511.91 251.53 c 1
 512.09 252.058 l 1
 512.09 251.53 l 1
 687.194 251.53 800.772 315.976 808.376 359.926 c 0
 825.334 457.93 868.08 705.044 868.08 722.282 c 0
 868.076 787.714 708.018 840.416 511.996 840.416 c 1
511.996 330.918 m 0
 449.486 330.918 398.808 381.606 398.808 444.112 c 0
 398.808 506.634 449.486 557.306 511.996 557.306 c 0
 574.512 557.306 625.186 506.63 625.186 444.112 c 0
 625.186 381.606 574.512 330.918 511.996 330.918 c 0
511.932 685.77 m 0
 385.992 685.974 283.934 707.854 283.974 734.652 c 0
 284.016 761.458 386.156 783.012 512.094 782.804 c 0
 638.038 782.598 740.096 760.726 740.052 733.92 c 0
 740.008 707.114 637.876 685.568 511.932 685.77 c 0
767.924 280.652 m 0
 762.508 280.652 758.172 276.822 758.172 276.822 c 1
 758.172 276.822 670.478 207.384 511.994 207.378 c 0
 353.512 207.384 265.82 276.822 265.82 276.822 c 1
 265.82 276.822 261.484 280.652 256.072 280.652 c 0
 249.608 280.652 243.474 276.31 243.474 266.726 c 0
 243.474 265.708 243.57 264.704 243.758 263.712 c 0
 257.37 190.868 267.31 139.188 269.062 131.32 c 0
 280.94 77.734 385.754 37.304 511.984 37.298 c 1
 511.984 37.298 l 1
 512.008 37.298 l 2
 638.238 37.304 743.052 77.734 754.93 131.32 c 0
 756.682 139.19 766.624 190.874 780.234 263.712 c 0
 780.418 264.704 780.514 265.708 780.514 266.726 c 0
 780.516 276.312 774.384 280.652 767.924 280.652 c 0
576.958 443.194 m 0
 576.958 409.136 549.348 381.526 515.29 381.526 c 0
 481.232 381.526 453.622 409.136 453.622 443.194 c 0
 453.622 477.252 481.232 504.862 515.29 504.862 c 0
 549.348 504.862 576.958 477.252 576.958 443.194 c 0
EndSplineSet
Validated: 37
EndChar

StartChar: uniE604
Encoding: 6 58884 6
Width: 1024
LayerCount: 2
Fore
SplineSet
162.61 781.01 m 1
 144.56 762.96 149.072 742.204 180.658 695.276 c 0
 196.9 670.914 215.858 633.006 223.076 611.348 c 0
 230.294 588.786 244.738 558.104 254.662 542.762 c 0
 272.712 517.496 272.712 512.08 260.98 466.054 c 0
 253.762 437.174 251.048 401.074 254.662 378.516 c 0
 260.074 340.61 290.762 285.564 309.708 279.246 c 0
 325.958 273.836 349.42 302.718 350.318 328.884 c 0
 350.318 351.442 351.224 352.354 361.148 336.104 c 0
 378.3 308.128 432.446 248.57 436.958 253.084 c 0
 438.766 254.882 427.026 278.352 409.886 304.518 c 0
 393.644 331.592 374.686 366.792 367.47 383.034 c 0
 357.546 410.106 353.934 411.914 342.202 399.276 c 0
 334.984 392.06 325.96 371.304 323.244 352.356 c 0
 316.028 309.03 299.784 303.62 287.146 340.616 c 0
 274.516 377.622 274.516 440.796 287.146 484.112 c 0
 296.172 513.89 295.274 522.016 279.93 544.578 c 0
 270.006 558.114 254.662 590.6 246.536 616.774 c 0
 238.42 642.042 219.462 679.948 204.128 699.798 c 0
 168.928 749.432 168.928 767.482 205.924 760.264 c 0
 221.268 757.554 244.738 746.728 259.174 736.798 c 0
 272.71 726.87 296.172 718.75 310.614 718.75 c 0
 353.93 718.75 429.74 676.332 484.784 621.286 c 0
 527.202 578.87 548.856 544.578 594.884 451.622 c 0
 649.032 341.526 653.546 335.208 686.936 324.378 c 0
 726.638 310.84 809.668 260.308 809.668 249.476 c 0
 809.668 245.86 788.914 240.448 763.648 238.644 c 0
 695.962 231.424 689.64 218.788 733.856 179.086 c 0
 754.624 161.034 793.426 133.058 821.398 117.72 c 2
 871.942 88.84 l 1
 848.472 118.618 l 2
 834.934 134.86 806.962 160.126 785.302 173.662 c 0
 763.648 187.2 746.498 201.644 746.498 205.25 c 0
 746.498 208.864 761.84 215.182 780.792 217.89 c 0
 831.332 226.914 845.768 231.424 845.768 240.448 c 0
 845.768 253.986 754.628 322.572 711.3 341.526 c 0
 674.304 358.67 669.79 365.896 621.962 464.256 c 0
 579.546 554.502 562.396 579.772 508.25 633.918 c 0
 438.766 703.406 390.93 733.188 329.564 742.212 c 0
 308.808 745.822 279.93 756.652 267.3 765.678 c 0
 237.512 788.24 177.054 796.36 162.608 781.018 c 1
 162.61 781.01 l 1
EndSplineSet
Validated: 41
EndChar

StartChar: uniE605
Encoding: 7 58885 7
Width: 1024
LayerCount: 2
Fore
SplineSet
512 506.372 m 0
 322.708 506.372 174.424 573.096 174.424 658.28 c 0
 174.424 743.464 322.708 810.19 512 810.19 c 0
 701.292 810.19 849.576 743.466 849.576 658.28 c 0
 849.576 573.098 701.292 506.372 512 506.372 c 0
512 776.432 m 0
 368.292 776.432 208.184 727.906 208.184 658.28 c 0
 208.184 588.654 368.292 540.132 512 540.132 c 0
 655.702 540.132 815.82 588.656 815.82 658.282 c 0
 815.82 727.908 655.702 776.432 512 776.432 c 0
512 371.342 m 0
 322.708 371.342 174.424 438.066 174.424 523.252 c 2
 174.424 658.282 l 2
 174.424 667.614 181.966 675.162 191.302 675.162 c 0
 200.64 675.162 208.182 667.614 208.182 658.282 c 2
 208.182 523.252 l 2
 208.182 453.628 368.29 405.1 511.998 405.1 c 0
 655.7 405.1 815.818 453.626 815.818 523.252 c 2
 815.818 658.282 l 2
 815.818 667.614 823.364 675.162 832.694 675.162 c 0
 842.028 675.162 849.574 667.614 849.574 658.282 c 2
 849.574 523.252 l 2
 849.576 438.066 701.292 371.342 512 371.342 c 0
512 219.432 m 0
 322.708 219.432 174.424 286.158 174.424 371.342 c 2
 174.424 523.252 l 2
 174.424 532.58 181.966 540.132 191.302 540.132 c 0
 200.64 540.132 208.182 532.58 208.182 523.252 c 2
 208.182 371.342 l 2
 208.182 301.718 368.29 253.19 511.998 253.19 c 0
 655.7 253.19 815.818 301.718 815.818 371.342 c 2
 815.818 523.252 l 2
 815.818 532.58 823.364 540.132 832.694 540.132 c 0
 842.028 540.132 849.574 532.58 849.574 523.252 c 2
 849.574 371.342 l 2
 849.576 286.158 701.292 219.432 512 219.432 c 0
512 67.526 m 0
 322.708 67.526 174.424 134.248 174.424 219.432 c 2
 174.424 371.342 l 2
 174.424 380.67 181.966 388.22 191.302 388.22 c 0
 200.64 388.22 208.182 380.67 208.182 371.342 c 2
 208.182 219.432 l 2
 208.182 149.808 368.29 101.28 511.998 101.28 c 0
 655.7 101.28 815.818 149.808 815.818 219.432 c 2
 815.818 371.342 l 2
 815.818 380.67 823.364 388.22 832.694 388.22 c 0
 842.028 388.22 849.574 380.67 849.574 371.342 c 2
 849.574 219.432 l 2
 849.576 134.248 701.292 67.526 512 67.526 c 0
EndSplineSet
Validated: 37
EndChar

StartChar: uniE606
Encoding: 8 58886 8
Width: 1024
LayerCount: 2
Fore
SplineSet
512 78.924 m 0
 341.648 78.924 203.484 125.018 203.484 181.76 c 0
 203.484 212.796 203.484 246.74 203.484 284.6 c 0
 203.484 293.538 207.952 302.026 214.38 310.31 c 1
 248.778 266.02 368.388 233.182 512 233.182 c 0
 655.612 233.182 775.22 266.022 809.62 310.31 c 1
 816.046 302.024 820.516 293.536 820.516 284.6 c 0
 820.516 254.822 820.516 223.236 820.516 181.76 c 0
 820.516 125.018 682.326 78.924 512 78.924 c 0
512 284.6 m 0
 341.648 284.6 203.484 330.698 203.484 387.44 c 0
 203.484 418.494 203.484 452.39 203.484 490.276 c 0
 203.484 495.724 205.542 501.022 208.304 506.27 c 1
 208.304 506.27 l 1
 209.862 509.558 211.92 512.796 214.38 515.986 c 1
 248.778 471.722 368.388 438.858 512 438.858 c 0
 655.612 438.858 775.22 471.724 809.62 515.988 c 1
 812.078 512.798 814.14 509.56 815.696 506.272 c 1
 815.696 506.272 l 1
 818.456 501.024 820.516 495.726 820.516 490.278 c 0
 820.516 460.5 820.516 428.942 820.516 387.442 c 0
 820.516 330.698 682.326 284.6 512 284.6 c 0
512 490.276 m 0
 341.648 490.276 203.484 536.348 203.484 593.112 c 0
 203.484 609.358 203.484 626.53 203.484 644.532 c 0
 203.484 660.876 203.484 677.85 203.484 695.95 c 0
 203.484 752.718 341.648 798.79 512 798.79 c 0
 682.326 798.79 820.516 752.718 820.516 695.95 c 0
 820.516 679.908 820.516 662.884 820.516 644.532 c 0
 820.516 628.79 820.516 612.194 820.516 593.112 c 0
 820.516 536.348 682.326 490.276 512 490.276 c 0
512 747.372 m 0
 398.416 747.372 306.324 724.4 306.324 695.954 c 0
 306.324 667.508 398.416 644.536 512 644.536 c 0
 625.584 644.536 717.678 667.508 717.678 695.954 c 0
 717.678 724.4 625.584 747.372 512 747.372 c 0
EndSplineSet
Validated: 1
EndChar

StartChar: uniE607
Encoding: 9 58887 9
Width: 1024
LayerCount: 2
Fore
SplineSet
153.286 401.042 m 1
 364.318 263.328 l 1
 512.014 386.498 l 1
 299.204 517.832 l 1
 153.286 401.042 l 1
364.318 772.32 m 1
 153.286 634.676 l 1
 299.204 517.832 l 1
 512.014 649.178 l 1
 364.318 772.32 l 1
870.714 634.676 m 1
 659.682 772.32 l 1
 512.014 649.178 l 1
 724.786 517.832 l 1
 870.714 634.676 l 1
512.014 386.498 m 1
 659.682 263.328 l 1
 870.714 401.042 l 1
 724.786 517.832 l 1
 512.014 386.498 l 1
512.438 360.012 m 1
 364.318 237.178 l 1
 300.938 278.574 l 1
 300.938 232.138 l 1
 512.438 105.396 l 1
 723.922 232.138 l 1
 723.922 278.574 l 1
 660.542 237.178 l 1
 512.438 360.012 l 1
EndSplineSet
Validated: 5
EndChar

StartChar: uniE608
Encoding: 10 58888 10
Width: 1024
LayerCount: 2
Fore
SplineSet
636.982 388.908 m 0
 650.708 388.908 662.26 382.2 672.246 368.544 c 0
 682.156 355.052 687.22 338.348 687.22 318.618 c 0
 687.22 298.802 682.236 282.106 672.246 268.602 c 0
 662.26 255.11 650.552 248.324 636.982 248.324 c 0
 622.546 248.324 610.142 255.032 600.156 268.602 c 0
 590.326 282.106 585.26 298.802 585.26 318.618 c 0
 585.26 338.426 590.168 355.052 600.156 368.544 c 0
 610.142 382.202 622.624 388.908 636.982 388.908 c 0
813.608 571.78 m 1
 852.076 530.078 871.5 479.484 871.5 420.154 c 0
 871.5 381.654 866.97 347.01 858.234 316.196 c 0
 849.348 285.532 838.112 260.41 824.686 241.224 c 0
 811.036 221.876 794.5 204.868 774.604 190.514 c 0
 754.708 175.768 736.372 165.236 719.836 158.452 c 0
 703.3 151.662 684.256 146.428 662.726 142.768 c 0
 641.432 139.018 625.354 136.994 614.198 136.448 c 0
 603.436 135.984 591.73 135.748 579.09 135.748 c 0
 576.282 135.748 566.766 135.432 550.966 134.966 c 0
 535.558 134.342 522.298 134.024 512 134.024 c 0
 501.698 134.024 488.436 134.34 473.028 134.966 c 0
 457.352 135.43 447.75 135.748 444.904 135.748 c 0
 432.266 135.748 420.452 135.904 409.756 136.448 c 0
 398.562 136.994 382.496 139.018 361.308 142.768 c 0
 339.664 146.35 320.746 151.51 304.124 158.452 c 0
 287.582 165.16 269.286 175.768 249.474 190.514 c 0
 229.5 205.026 212.962 221.956 199.308 241.224 c 0
 185.89 260.412 174.618 285.532 165.764 316.196 c 0
 157.064 347.008 152.502 381.654 152.502 420.154 c 0
 152.502 479.484 171.848 530.078 210.426 571.78 c 1
 206.176 573.846 205.944 594.636 209.768 634.232 c 0
 213.196 673.866 221.622 710.378 235.276 743.69 c 1
 283.37 738.578 342.546 711.432 413.43 662.432 c 1
 437.376 668.678 470.14 671.874 511.922 671.874 c 0
 555.77 671.874 588.534 668.678 610.46 662.432 c 1
 642.756 684.236 673.652 702.066 703.142 715.644 c 0
 733.102 729.062 754.628 736.978 768.204 739.044 c 2
 788.492 743.69 l 1
 802.218 710.38 810.644 673.784 814.082 634.232 c 0
 818.056 594.638 817.82 573.848 813.608 571.78 c 1
513.676 170.15 m 2
 600.156 170.15 665.384 180.526 709.69 201.274 c 0
 753.856 222.106 776.324 264.942 776.324 329.54 c 0
 776.324 366.982 762.2 398.348 734.034 423.352 c 0
 719.518 436.926 702.51 445.156 683.006 448.352 c 0
 663.978 451.476 634.564 451.476 594.852 448.352 c 0
 555.296 445.156 528.226 443.712 513.674 443.712 c 0
 493.86 443.712 472.368 444.762 445.686 446.836 c 0
 419.004 448.824 398.092 450.11 383.15 450.734 c 0
 367.86 451.204 351.598 449.29 333.922 445.234 c 0
 316.098 440.98 301.664 433.804 290.002 423.428 c 0
 263.128 399.436 249.474 368.224 249.474 329.616 c 0
 249.474 265.018 271.354 222.178 315.088 201.428 c 0
 358.772 180.522 423.798 170.22 510.326 170.22 c 2
 513.676 170.15 l 2
388.58 388.908 m 0
 402.156 388.908 413.818 382.2 423.72 368.544 c 0
 433.628 355.052 438.666 338.348 438.666 318.618 c 0
 438.666 298.802 433.706 282.106 423.72 268.602 c 0
 413.816 255.11 402.072 248.324 388.58 248.324 c 0
 374.032 248.324 361.662 255.032 351.674 268.602 c 0
 341.77 282.106 336.732 298.802 336.732 318.618 c 0
 336.732 338.426 341.688 355.052 351.674 368.544 c 0
 361.662 382.202 374.032 388.908 388.58 388.908 c 0
EndSplineSet
Validated: 33
EndChar

StartChar: uniE609
Encoding: 11 58889 11
Width: 1024
LayerCount: 2
Fore
SplineSet
512 789.01 m 0
 313.742 789.01 152.996 628.264 152.996 430.01 c 0
 152.996 271.37 255.852 136.83 398.52 89.368 c 0
 416.464 86.084 423.018 97.17 423.018 106.638 c 0
 423.018 115.182 422.688 143.494 422.514 173.468 c 1
 322.682 151.776 301.582 215.804 301.582 215.804 c 1
 285.238 257.26 261.724 268.302 261.724 268.302 c 1
 229.098 290.564 264.198 290.126 264.198 290.126 c 1
 300.242 287.628 319.222 253.14 319.222 253.14 c 1
 351.258 198.27 403.274 214.136 423.696 223.34 c 1
 426.958 246.478 436.25 262.344 446.484 271.284 c 1
 366.792 280.354 282.956 311.162 282.956 448.722 c 0
 282.956 487.946 296.958 519.934 319.878 545.068 c 1
 316.218 554.184 303.86 590.712 323.426 640.12 c 1
 323.426 640.12 353.534 649.762 422.162 603.308 c 1
 450.778 611.308 481.476 615.25 512 615.384 c 0
 542.5 615.252 573.218 611.264 601.882 603.266 c 1
 670.378 649.764 700.526 640.078 700.526 640.078 c 1
 720.158 590.624 707.804 554.142 704.124 545.07 c 1
 727.132 519.936 741.022 487.946 741.022 448.724 c 0
 741.022 310.812 657.054 280.444 577.076 271.55 c 1
 590.006 260.418 601.44 238.592 601.44 205.112 c 0
 601.44 157.124 600.964 118.43 600.964 106.598 c 0
 600.964 97.042 607.492 85.868 625.678 89.372 c 0
 768.236 136.924 871.002 271.46 871.002 430.014 c 0
 871.004 628.264 710.258 789.01 512 789.01 c 0
EndSplineSet
Validated: 41
EndChar

StartChar: uniE60A
Encoding: 12 58890 12
Width: 1024
LayerCount: 2
Fore
SplineSet
512 81.858 m 0
 315.138 81.858 155 242.034 155 438.858 c 0
 155 635.68 315.138 795.858 512 795.858 c 0
 708.862 795.858 869 635.68 869 438.858 c 0
 869 242.034 708.86 81.858 512 81.858 c 0
512 716.524 m 0
 358.93 716.524 234.334 591.966 234.334 438.858 c 0
 234.334 285.768 358.932 161.19 512 161.19 c 0
 665.088 161.19 789.668 285.768 789.668 438.858 c 0
 789.668 591.966 665.088 716.524 512 716.524 c 0
574.056 414.028 m 0
 580.872 414.028 586.606 410.698 591.566 403.916 c 0
 596.486 397.216 599.002 388.924 599.002 379.126 c 0
 599.002 369.286 596.526 360.998 591.566 354.292 c 0
 586.608 347.592 580.794 344.224 574.056 344.224 c 0
 566.888 344.224 560.73 347.554 555.77 354.292 c 0
 550.89 360.998 548.374 369.286 548.374 379.126 c 0
 548.374 388.962 550.812 397.216 555.77 403.916 c 0
 560.73 410.698 566.928 414.028 574.056 414.028 c 0
661.756 504.828 m 1
 680.856 484.122 690.5 459 690.5 429.542 c 0
 690.5 410.426 688.252 393.226 683.914 377.924 c 0
 679.5 362.7 673.922 350.226 667.256 340.7 c 0
 660.478 331.092 652.268 322.65 642.388 315.52 c 0
 632.51 308.198 623.406 302.97 615.194 299.6 c 0
 606.982 296.23 597.528 293.632 586.838 291.812 c 0
 576.264 289.95 568.282 288.944 562.742 288.674 c 0
 557.398 288.444 551.586 288.326 545.31 288.326 c 0
 543.916 288.326 539.19 288.17 531.346 287.94 c 0
 523.696 287.63 517.112 287.474 511.998 287.474 c 0
 506.882 287.474 500.298 287.63 492.648 287.94 c 0
 484.864 288.17 480.098 288.326 478.684 288.326 c 0
 472.408 288.326 466.544 288.404 461.232 288.674 c 0
 455.674 288.946 447.696 289.952 437.176 291.812 c 0
 426.43 293.592 417.036 296.152 408.784 299.6 c 0
 400.57 302.93 391.486 308.198 381.65 315.52 c 0
 371.732 322.726 363.522 331.132 356.74 340.7 c 0
 350.078 350.228 344.48 362.7 340.084 377.924 c 0
 335.764 393.224 333.5 410.426 333.5 429.542 c 0
 333.5 459 343.106 484.122 362.26 504.828 c 1
 360.148 505.854 360.034 516.176 361.934 535.836 c 0
 363.636 555.516 367.818 573.644 374.6 590.184 c 1
 398.48 587.646 427.862 574.166 463.058 549.838 c 1
 474.948 552.94 491.216 554.526 511.962 554.526 c 0
 533.734 554.526 550.002 552.94 560.888 549.838 c 1
 576.926 560.666 592.264 569.518 606.908 576.258 c 0
 621.784 582.922 632.472 586.85 639.212 587.878 c 2
 649.284 590.184 l 1
 656.1 573.644 660.284 555.474 661.992 535.836 c 0
 663.964 516.176 663.848 505.854 661.756 504.828 c 1
512.832 305.408 m 2
 555.772 305.408 588.158 310.56 610.158 320.864 c 0
 632.086 331.208 643.242 352.476 643.242 384.55 c 0
 643.242 403.142 636.23 418.716 622.246 431.13 c 0
 615.038 437.87 606.594 441.958 596.91 443.544 c 0
 587.46 445.094 572.858 445.094 553.138 443.544 c 0
 533.498 441.958 520.056 441.24 512.832 441.24 c 0
 502.994 441.24 492.324 441.762 479.076 442.79 c 0
 465.828 443.778 455.444 444.416 448.026 444.726 c 0
 440.434 444.96 432.36 444.01 423.582 441.996 c 0
 414.732 439.884 407.564 436.322 401.774 431.168 c 0
 388.432 419.256 381.65 403.76 381.65 384.588 c 0
 381.65 352.514 392.514 331.244 414.23 320.942 c 0
 435.92 310.562 468.206 305.446 511.17 305.446 c 2
 512.832 305.408 l 2
450.718 414.028 m 0
 457.46 414.028 463.25 410.698 468.166 403.916 c 0
 473.086 397.216 475.588 388.924 475.588 379.126 c 0
 475.588 369.286 473.126 360.998 468.166 354.292 c 0
 463.25 347.592 457.416 344.224 450.718 344.224 c 0
 443.494 344.224 437.352 347.554 432.394 354.292 c 0
 427.478 360.998 424.976 369.286 424.976 379.126 c 0
 424.976 388.962 427.436 397.216 432.394 403.916 c 0
 437.354 410.698 443.496 414.028 450.718 414.028 c 0
EndSplineSet
Validated: 33
EndChar

StartChar: uniE60B
Encoding: 13 58891 13
Width: 1024
Flags: H
LayerCount: 2
Fore
SplineSet
41.2822265625 349.350585938 m 4
 41.2822265625 163.291992188 149.431640625 2.341796875 306.321289062 -73.7705078125 c 5
 82.0341796875 540.775390625 l 5
 55.904296875 482.251953125 41.2822265625 417.572265625 41.2822265625 349.350585938 c 4
828.98828125 373.112304688 m 4
 828.98828125 431.224609375 808.06640625 471.505859375 790.21484375 502.802734375 c 4
 766.377929688 541.576171875 744.075195312 574.328125 744.075195312 613.118164062 c 4
 744.075195312 656.34765625 776.747070312 696.556640625 823.041992188 696.556640625 c 4
 825.036132812 696.556640625 827.069335938 696.28125 829.064453125 696.1484375 c 5
 745.434570312 772.78125 633.98046875 819.630859375 511.5625 819.630859375 c 4
 347.234375 819.630859375 202.71875 735.294921875 118.678710938 607.65234375 c 5
 129.736328125 607.298828125 140.08984375 607.057617188 148.912109375 607.057617188 c 4
 198.111328125 607.057617188 274.2421875 613.099609375 274.2421875 613.099609375 c 6
 299.532226562 614.513671875 302.533203125 577.362304688 277.185546875 574.307617188 c 6
 277.185546875 574.307617188 251.747070312 571.362304688 223.377929688 569.833007812 c 5
 394.6484375 60.5322265625 l 5
 497.57421875 369.118164062 l 5
 424.280273438 569.8359375 l 5
 398.954101562 571.364257812 374.96875 574.310546875 374.96875 574.310546875 c 6
 349.60546875 575.838867188 352.624023438 614.516601562 377.990234375 613.102539062 c 6
 377.990234375 613.102539062 455.594726562 607.059570312 501.7734375 607.059570312 c 4
 550.928710938 607.059570312 627.171875 613.102539062 627.171875 613.102539062 c 6
 652.407226562 614.516601562 655.42578125 577.365234375 630.065429688 574.310546875 c 6
 630.065429688 574.310546875 604.66015625 571.364257812 576.299804688 569.8359375 c 5
 746.25390625 64.4140625 l 5
 793.178710938 221.071289062 l 5
 817.015625 282.2109375 828.98828125 332.827148438 828.98828125 373.112304688 c 4
519.809570312 308.205078125 m 5
 378.681640625 -101.811523438 l 5
 420.791015625 -114.182617188 465.29296875 -120.916992188 511.549804688 -120.916992188 c 4
 566.263671875 -120.916992188 618.823242188 -111.442382812 667.703125 -94.2119140625 c 5
 666.439453125 -92.21484375 665.27734375 -90.1064453125 664.328125 -87.7978515625 c 6
 519.809570312 308.205078125 l 5
924.146484375 575.017578125 m 5
 926.215820312 559.984375 927.388671875 543.9453125 927.388671875 526.600585938 c 4
 927.388671875 478.911132812 918.439453125 425.291015625 891.583984375 358.169921875 c 6
 747.959960938 -57.0419921875 l 5
 887.72265625 24.4228515625 981.717773438 175.84765625 981.717773438 349.330078125 c 4
 981.733398438 431.149414062 960.84765625 507.989257812 924.146484375 575.017578125 c 5
EndSplineSet
Validated: 41
EndChar

StartChar: uniE60C
Encoding: 14 58892 14
Width: 1024
LayerCount: 2
Fore
SplineSet
554.222 658.754 m 1
 476 580.532 410.212 516.82 407.106 516.82 c 0
 404.516 516.82 361.524 548.416 312.31 586.75 c 2
 223.208 656.684 l 1
 150.686 620.42 l 1
 150.686 257.816 l 1
 223.208 221.552 l 1
 305.57 285.79 l 2
 351.158 321.524 393.11 353.642 398.812 357.276 c 0
 409.178 363.492 419.53 354.16 553.7 220.514 c 2
 697.188 77.028 l 1
 785.25 112.774 l 1
 873.308 147.996 l 1
 873.308 730.24 l 1
 805.972 757.172 l 2
 769.194 772.198 729.306 787.736 717.396 792.402 c 2
 696.154 800.688 l 1
 554.222 658.756 l 1
 554.222 658.754 l 1
694.602 439.114 m 1
 694.602 359.344 693.564 294.076 691.492 294.076 c 0
 684.244 294.076 508.122 436.008 509.67 440.668 c 0
 511.228 446.366 684.758 583.64 690.968 583.64 c 0
 693.05 584.16 694.604 518.89 694.604 439.114 c 1
 694.602 439.114 l 1
282.784 490.918 m 2
 334.586 439.114 l 1
 282.784 387.316 l 2
 254.294 358.824 229.43 335.518 227.356 335.518 c 0
 224.764 335.518 223.21 382.138 223.21 439.114 c 0
 223.21 496.094 224.762 542.722 227.356 542.722 c 0
 229.43 542.722 254.294 519.408 282.784 490.918 c 2
EndSplineSet
Validated: 41
EndChar

StartChar: uniE60D
Encoding: 15 58893 15
Width: 1024
LayerCount: 2
Fore
SplineSet
393.84 151.354 m 1
 391.114 118.902 407.486 94.642 438.118 86.452 c 0
 463.286 79.78 492.4 91.608 504.834 114.052 c 0
 508.474 120.418 549.72 226.262 596.424 349.39 c 0
 674.972 556.222 682.248 574.114 693.166 585.336 c 0
 699.84 592.312 705.3 599.284 705.3 601.106 c 0
 705.3 602.928 699.538 609.6 692.564 615.664 c 0
 664.662 640.832 599.156 661.76 571.252 654.482 c 0
 566.708 653.27 565.794 649.63 565.794 635.68 c 0
 565.794 618.088 562.764 607.174 544.564 561.074 c 0
 539.41 547.728 530.916 524.684 525.766 509.516 c 0
 520.91 494.656 512.722 473.428 507.872 462.51 c 0
 503.318 451.596 493.312 426.424 485.732 406.4 c 0
 478.146 386.386 463.9 348.482 453.888 321.79 c 0
 443.882 295.41 432.66 270.236 428.718 266.298 c 2
 393.84 151.354 l 1
640.094 636.284 m 1
 670.724 623.548 686.498 608.082 673.758 603.226 c 0
 661.632 598.678 607.346 618.084 593.086 632.34 c 0
 587.628 637.8 587.326 639.618 590.356 643.562 c 0
 595.512 649.324 615.53 646.594 640.092 636.284 c 1
 640.094 636.284 l 1
589.752 597.77 m 1
 600.672 586.244 622.81 578.058 647.072 577.148 c 0
 659.206 576.542 668.904 575.932 668.904 575.328 c 0
 668.904 575.024 666.78 571.384 664.36 567.746 c 0
 661.934 564.104 651.924 539.54 641.912 513.46 c 0
 626.146 472.214 622.204 464.326 611.286 454.322 c 0
 594.604 439.158 568.22 424.298 549.114 419.752 c 0
 540.926 417.628 528.188 413.684 520.912 410.35 c 0
 513.634 407.316 506.356 404.892 505.142 404.892 c 0
 502.408 404.892 510.904 429.758 540.016 504.974 c 0
 549.418 529.232 561.856 561.686 567.614 577.152 c 0
 573.68 592.316 579.442 605.052 580.662 605.052 c 0
 581.87 605.052 586.114 601.716 589.754 597.776 c 1
 589.752 597.77 l 1
616.438 444.92 m 2
 615.532 443.706 587.328 370.316 553.968 282.064 c 0
 499.984 139.53 491.798 120.112 482.396 111.626 c 0
 476.632 106.168 469.358 101.616 466.626 101.92 c 0
 462.984 101.92 464.2 103.132 469.658 105.252 c 0
 474.512 107.072 477.846 110.41 477.846 113.748 c 0
 477.846 116.782 479.062 120.114 480.576 121.33 c 0
 482.096 122.238 484.518 127.398 485.73 132.552 c 0
 486.638 138.008 488.762 144.376 489.974 147.106 c 0
 494.524 155.598 508.17 191.082 508.17 193.504 c 0
 508.17 195.02 509.988 200.484 512.42 205.64 c 0
 514.844 211.096 522.43 230.506 529.406 248.704 c 0
 536.376 267.198 544.868 289.642 548.208 298.742 c 0
 551.848 307.838 555.784 316.638 557.304 318.15 c 0
 558.516 319.97 559.726 323.908 559.726 326.944 c 0
 559.726 329.972 561.856 337.256 564.278 343.018 c 0
 573.376 363.648 577.322 373.35 582.476 388.206 c 0
 585.206 396.7 588.842 405.792 590.356 408.524 c 0
 593.394 414.282 593.996 423.082 591.576 423.082 c 0
 590.666 423.082 586.114 420.956 581.568 418.232 c 0
 574.284 413.982 574.284 413.982 582.478 420.352 c 0
 587.626 424.294 596.426 431.876 602.186 437.334 c 0
 611.892 446.436 619.778 450.676 616.436 444.916 c 2
 616.438 444.92 l 2
532.434 401.854 m 2
 532.434 400.342 530.31 398.826 527.582 398.826 c 0
 521.822 398.826 513.326 379.11 513.326 366.374 c 0
 513.63 360.918 512.418 356.368 510.9 356.368 c 0
 506.044 356.368 495.436 331.498 493.918 315.426 c 0
 492.398 301.474 493.01 299.046 498.166 296.012 c 0
 506.354 291.772 508.474 282.368 503.014 274.786 c 0
 498.466 268.114 485.728 266.3 482.394 271.448 c 0
 477.844 278.732 474.512 273.876 476.324 262.96 c 0
 477.844 252.646 477.24 250.83 470.872 248.1 c 0
 466.014 245.676 461.468 239.302 458.13 229.902 c 0
 447.514 201.094 437.816 175.622 432.05 160.758 c 0
 428.716 152.57 425.072 138.916 424.166 131.036 c 0
 422.646 118.598 423.556 115.564 429.626 108.594 c 2
 436.902 100.406 l 1
 427.2 107.074 l 2
 417.194 114.054 405.058 135.586 405.058 146.504 c 0
 405.058 150.144 413.858 176.834 424.772 206.254 c 0
 435.69 235.364 444.486 261.144 444.486 262.96 c 0
 444.486 265.084 454.492 276.61 466.324 288.744 c 0
 478.45 300.87 486.336 310.874 483.91 310.874 c 0
 481.482 310.874 475.112 306.628 469.656 301.172 c 0
 464.2 295.716 459.646 292.984 459.646 295.104 c 0
 459.646 304.208 488.156 370.928 495.436 378.81 c 0
 502.102 386.09 528.184 404.896 531.52 404.896 c 0
 532.13 404.892 532.434 403.674 532.434 401.858 c 2
 532.434 401.854 l 2
EndSplineSet
Validated: 41
EndChar

StartChar: uniE60E
Encoding: 16 58894 16
Width: 1024
LayerCount: 2
Fore
SplineSet
217.65 310.932 m 2
 217.65 271.564 190.226 239.358 156.71 239.358 c 0
 123.188 239.358 95.76 271.566 95.76 310.932 c 2
 95.76 545.192 l 2
 95.76 584.564 123.186 616.772 156.71 616.772 c 0
 190.226 616.772 217.65 584.564 217.65 545.192 c 2
 217.65 310.932 l 2
928.238 310.932 m 2
 928.238 271.564 900.812 239.358 867.292 239.358 c 0
 833.772 239.358 806.34 271.566 806.34 310.932 c 2
 806.34 545.192 l 2
 806.34 584.564 833.774 616.772 867.292 616.772 c 0
 900.81 616.772 928.238 584.564 928.238 545.192 c 2
 928.238 310.932 l 2
645.25 843.218 m 1
 684.356 913.384 l 2
 687.55 919.116 686.61 925.786 682.266 928.208 c 0
 677.922 930.63 671.75 927.918 668.558 922.188 c 2
 628.546 850.396 l 1
 592.874 864.432 552.886 872.3 510.646 872.3 c 0
 468.094 872.3 427.822 864.312 391.938 850.072 c 1
 351.746 922.188 l 2
 348.554 927.92 342.386 930.628 338.046 928.208 c 0
 333.698 925.788 332.762 919.116 335.954 913.384 c 2
 375.252 842.864 l 1
 293.49 804.466 238.412 732.358 238.412 649.73 c 0
 238.412 641.334 239.004 633.054 240.106 624.902 c 1
 781.18 624.902 l 1
 782.286 633.054 782.876 641.332 782.876 649.73 c 0
 782.876 732.616 727.446 804.914 645.25 843.218 c 1
387.104 720.742 m 0
 373.954 720.742 363.296 731.4 363.296 744.55 c 0
 363.296 757.698 373.954 768.36 387.104 768.36 c 0
 400.254 768.36 410.912 757.698 410.912 744.55 c 0
 410.914 731.4 400.252 720.742 387.104 720.742 c 0
635.54 720.742 m 0
 622.39 720.742 611.73 731.4 611.73 744.55 c 0
 611.73 757.698 622.39 768.36 635.54 768.36 c 0
 648.69 768.36 659.348 757.698 659.348 744.55 c 0
 659.348 731.4 648.688 720.742 635.54 720.742 c 0
238.416 601.232 m 1
 238.416 202.148 l 1
 238.646 202.148 l 1
 241.442 168.438 272.45 141.652 309.994 141.652 c 2
 711.292 141.652 l 2
 748.834 141.652 779.836 168.438 782.644 202.148 c 1
 782.874 202.148 l 1
 782.874 601.232 l 1
 238.416 601.232 l 1
471.666 143.67 m 1
 471.666 20.202 l 2
 471.666 -19.166 444.24 -51.378 410.72 -51.378 c 0
 377.2 -51.378 349.778 -19.166 349.778 20.202 c 2
 349.778 143.546 l 1
 471.666 143.67 l 1
674.824 143.734 m 1
 674.824 20.202 l 2
 674.824 -19.166 647.394 -51.378 613.874 -51.378 c 0
 580.354 -51.378 552.926 -19.166 552.926 20.202 c 2
 552.926 143.734 l 1
 674.824 143.734 l 1
EndSplineSet
Validated: 37
EndChar

StartChar: uniE60F
Encoding: 17 58895 17
Width: 1024
LayerCount: 2
Fore
SplineSet
442.278 455.644 m 1
 153.06 455.644 l 1
 153.06 703.544 l 1
 442.278 744.858 l 1
 442.278 455.644 l 1
870.94 455.644 m 1
 481.014 455.644 l 1
 481.014 749.978 l 1
 870.94 806.836 l 1
 870.94 455.644 l 1
442.278 422.072 m 1
 153.06 422.072 l 1
 153.06 174.172 l 1
 442.278 132.854 l 1
 442.278 422.072 l 1
870.94 422.072 m 1
 481.014 422.072 l 1
 481.014 127.74 l 1
 870.94 70.88 l 1
 870.94 422.072 l 1
EndSplineSet
Validated: 9
EndChar

StartChar: uniE610
Encoding: 18 58896 18
Width: 1024
LayerCount: 2
Fore
SplineSet
194.554 197.276 m 1
 194.554 27.03 l 1
 731.094 27.03 l 1
 731.094 368.554 l 1
 703.234 365.456 l 1
 674.344 362.362 l 1
 671.254 221.006 l 1
 668.158 78.618 l 1
 246.146 78.618 l 1
 246.146 367.522 l 1
 194.556 367.522 l 1
 194.556 197.274 l 1
 194.554 197.276 l 1
287.416 171.48 m 1
 287.416 140.528 l 1
 617.596 140.528 l 1
 617.596 202.436 l 1
 287.418 202.436 l 1
 287.418 171.48 l 1
 287.416 171.48 l 1
292.386 293.372 m 1
 289.032 262.6 l 1
 617.268 226.82 l 1
 623.976 288.366 l 1
 295.742 324.146 l 1
 292.386 293.372 l 1
317.064 438.97 m 1
 309.034 409.076 l 1
 627.912 323.432 l 1
 643.97 383.222 l 1
 325.094 468.866 l 1
 317.064 438.97 l 1
384.76 608.716 m 1
 368.278 582.514 l 1
 647.766 406.712 l 1
 680.726 459.118 l 1
 401.242 634.918 l 1
 384.76 608.716 l 1
542.864 766.78 m 1
 517.368 749.224 l 1
 704.652 477.296 l 1
 755.638 512.412 l 1
 568.356 784.336 l 1
 542.864 766.78 l 1
749.224 846.438 m 1
 718.792 840.764 l 1
 779.356 516.182 l 1
 840.212 527.538 l 1
 779.654 852.116 l 1
 749.224 846.438 l 1
EndSplineSet
Validated: 9
EndChar

StartChar: uniE611
Encoding: 19 58897 19
Width: 1024
LayerCount: 2
Fore
SplineSet
736.736 413.018 m 0
 735.69 517.308 821.774 567.326 825.612 569.842 c 1
 777.242 640.582 701.88 650.29 675.05 651.384 c 0
 610.976 657.904 549.942 613.634 517.426 613.634 c 0
 484.986 613.634 434.756 650.434 381.616 649.504 c 0
 311.694 648.458 247.262 608.832 211.278 546.248 c 0
 138.678 420.306 192.716 233.646 263.454 131.418 c 0
 298.05 81.462 339.292 25.234 393.398 27.294 c 0
 445.556 29.354 465.232 61.04 528.29 61.04 c 0
 591.332 61.04 609.048 27.294 664.214 28.358 c 0
 720.294 29.368 755.854 79.274 790.172 129.44 c 0
 829.864 187.482 846.218 243.68 847.184 246.542 c 0
 845.974 247.096 737.864 288.518 736.736 413.018 c 0
633.068 719.034 m 0
 661.766 753.872 681.21 802.29 675.932 850.48 c 1
 634.508 848.796 584.376 822.946 554.648 788.14 c 0
 528.016 757.256 504.71 708.086 510.954 660.762 c 1
 557.15 657.184 604.276 684.26 633.068 719.034 c 0
EndSplineSet
Validated: 41
EndChar

StartChar: uniE612
Encoding: 20 58898 20
Width: 1024
LayerCount: 2
Fore
SplineSet
497.084 690.852 m 0
 497.084 687.592 493.824 687.592 493.824 687.592 c 1
 490.558 687.592 l 2
 487.296 687.592 487.296 690.852 484.03 694.118 c 2
 484.03 694.118 480.768 697.382 480.768 700.646 c 0
 480.768 703.91 480.768 703.91 484.03 703.91 c 2
 490.558 700.646 l 2
 493.824 697.382 497.084 694.118 497.084 690.852 c 0
438.34 723.49 m 2
 438.34 739.808 431.814 749.598 422.022 749.598 c 1
 422.022 749.598 422.022 746.334 418.758 746.334 c 2
 418.758 739.806 l 1
 428.55 739.806 l 1
 428.55 733.278 431.814 730.016 431.814 723.488 c 1
 438.34 723.488 l 1
 438.34 723.49 l 2
552.566 739.806 m 0
 559.094 739.806 562.358 733.278 565.62 723.488 c 1
 572.148 723.488 l 2
 568.884 726.752 568.884 730.016 568.884 733.278 c 0
 568.884 736.542 568.884 739.806 565.62 743.07 c 0
 562.356 746.334 559.092 749.598 555.828 749.598 c 2
 555.828 749.598 552.564 746.334 549.3 746.334 c 1
 549.302 743.07 552.566 743.07 552.566 739.806 c 0
454.662 687.59 m 2
 451.396 687.59 451.396 687.59 451.396 690.85 c 0
 451.396 694.116 451.396 697.38 454.662 700.642 c 0
 461.188 700.642 464.45 703.906 464.45 703.906 c 2
 467.716 703.906 467.716 700.642 467.716 700.642 c 2
 467.716 697.378 464.45 694.114 457.924 687.588 c 1
 454.662 687.588 l 1
 454.662 687.59 l 2
418.76 690.852 m 1
 405.706 697.382 402.442 707.172 402.442 723.49 c 0
 402.442 733.28 402.442 739.808 408.97 746.334 c 0
 412.234 752.86 418.76 756.124 425.288 756.124 c 0
 431.816 756.124 435.078 752.86 441.606 746.334 c 1
 444.87 736.542 448.134 726.752 448.134 716.962 c 2
 448.134 710.434 l 1
 451.398 710.434 l 1
 451.398 713.698 l 2
 454.664 713.698 454.664 720.226 454.664 733.28 c 0
 454.664 743.072 454.664 752.862 448.134 762.652 c 0
 441.606 772.444 435.08 778.972 422.026 778.972 c 0
 412.236 778.972 402.444 772.444 399.182 762.652 c 0
 392.654 749.598 391.348 739.808 391.348 723.49 c 0
 391.348 710.436 395.918 697.382 408.972 684.326 c 1
 412.234 687.59 415.496 687.59 418.76 690.852 c 1
826.704 230.69 m 0
 829.968 230.69 829.968 231.994 829.968 234.932 c 0
 829.968 242.112 826.704 250.596 816.916 260.062 c 0
 807.124 269.852 790.806 276.05 771.226 278.662 c 0
 767.962 278.988 764.698 278.988 764.698 278.988 c 2
 761.434 279.642 761.434 279.642 758.17 279.642 c 0
 754.906 279.968 748.378 280.62 745.116 281.272 c 1
 754.908 311.626 758.17 338.386 758.17 361.882 c 0
 758.17 394.52 751.642 417.362 738.588 436.946 c 0
 725.534 456.526 712.478 466.318 696.162 469.58 c 0
 692.898 466.316 692.898 466.316 692.898 463.052 c 0
 709.214 456.524 725.532 443.472 735.326 423.89 c 0
 745.116 401.046 748.378 381.464 748.378 358.618 c 0
 748.378 340.34 745.114 313.254 732.06 278.66 c 1
 719.006 273.442 705.95 261.366 696.162 242.436 c 0
 696.162 239.498 696.162 237.866 699.424 237.866 c 2
 699.424 237.866 702.688 240.804 705.952 246.352 c 0
 712.48 251.898 715.744 257.448 722.27 262.996 c 0
 732.062 268.544 738.588 271.482 748.38 271.482 c 0
 764.698 271.482 781.016 269.196 790.806 264.626 c 0
 803.86 260.386 810.388 255.816 813.652 250.592 c 0
 816.916 245.698 820.18 241.13 823.444 236.884 c 0
 823.444 232.646 826.704 230.69 826.704 230.69 c 0
526.458 703.908 m 1
 523.194 707.172 523.194 713.698 523.194 720.226 c 0
 523.194 733.28 523.194 739.808 529.722 749.598 c 0
 536.248 756.124 542.774 759.388 549.302 759.388 c 0
 559.094 759.388 565.62 752.86 572.148 746.334 c 1
 575.41 736.542 578.674 730.016 578.674 720.226 c 0
 578.674 703.908 572.148 694.118 559.094 690.852 c 1
 559.094 690.852 562.358 687.592 565.622 687.592 c 0
 572.15 687.592 575.412 684.326 581.94 681.064 c 1
 585.202 700.646 588.468 713.698 588.468 730.018 c 0
 588.468 749.6 585.202 762.652 578.676 772.444 c 0
 568.886 782.236 559.096 785.5 546.042 785.5 c 0
 536.25 785.5 526.462 782.236 516.67 775.708 c 1
 510.14 765.916 506.878 759.388 506.878 749.598 c 0
 506.878 733.28 510.14 720.226 516.67 707.172 c 0
 519.932 707.172 523.196 703.908 526.458 703.908 c 1
565.62 651.69 m 1
 523.194 622.318 490.556 609.264 464.448 609.264 c 0
 441.604 609.264 418.758 619.056 399.178 635.372 c 1
 402.442 628.844 405.706 622.318 408.97 619.054 c 2
 428.552 599.472 l 2
 441.606 586.418 457.924 579.89 474.244 579.89 c 0
 497.086 579.89 523.198 592.944 555.832 615.788 c 2
 585.204 635.37 l 2
 591.732 641.9 598.258 648.426 598.258 658.214 c 0
 598.258 661.48 598.258 664.742 594.996 664.742 c 0
 591.73 671.268 575.412 681.062 542.778 690.85 c 1
 513.406 703.906 490.56 710.434 477.506 710.434 c 0
 467.718 710.434 451.398 703.908 428.554 690.85 c 0
 408.972 677.796 395.918 664.742 395.918 651.688 c 1
 395.918 651.688 399.182 648.426 402.446 641.9 c 0
 422.028 625.58 441.608 615.79 461.192 615.79 c 0
 487.3 615.79 519.936 628.844 562.362 661.482 c 1
 562.362 654.954 l 2
 565.62 654.956 565.62 651.69 565.62 651.69 c 1
640.684 -7.552 m 1
 653.738 -32.094 676.582 -44.428 702.69 -44.428 c 0
 709.218 -44.428 715.744 -43.45 722.272 -41.492 c 0
 728.8 -40.186 735.328 -37.9 738.59 -35.29 c 0
 741.856 -33.004 745.118 -30.72 748.382 -28.108 c 0
 754.91 -25.824 754.91 -24.192 758.174 -22.562 c 2
 813.654 25.412 l 2
 826.706 35.822 839.762 44.928 856.08 52.826 c 0
 869.134 60.66 882.19 65.878 888.716 68.816 c 0
 898.508 71.428 905.034 75.344 911.56 80.566 c 0
 914.824 85.46 918.088 91.662 918.088 99.496 c 0
 918.088 108.958 911.56 116.138 905.036 121.362 c 0
 898.508 126.582 891.982 130.172 885.454 132.458 c 0
 878.926 134.744 872.4 139.966 862.61 148.774 c 0
 856.08 157.26 849.554 169.008 846.29 184.35 c 2
 843.026 203.278 l 2
 839.762 212.088 839.762 218.616 836.498 222.208 c 0
 836.498 223.186 836.498 223.512 833.234 223.512 c 0
 829.97 223.512 823.444 220.574 820.182 215.026 c 0
 813.654 209.48 807.128 203.278 800.6 196.75 c 0
 797.336 190.224 787.546 184.35 781.02 178.8 c 0
 771.228 173.252 761.438 170.314 754.91 170.314 c 0
 728.8 170.314 715.746 177.496 705.954 191.526 c 0
 699.426 201.97 696.164 214.046 692.902 227.752 c 1
 686.374 233.298 683.11 236.236 676.584 236.236 c 0
 660.266 236.236 653.74 219.266 653.74 185 c 2
 653.74 83.5 l 2
 653.74 80.562 650.476 74.036 650.476 63.918 c 0
 647.212 53.8 647.212 42.312 647.212 29.324 c 2
 640.684 -6.902 l 1
 640.684 -7.456 l 1
 640.684 -7.552 l 1
167.464 9.81 m 1
 197.814 5.374 232.734 -4.124 272.224 -18.614 c 0
 311.712 -32.974 335.864 -40.482 344.674 -40.482 c 0
 367.52 -40.482 386.45 -30.364 402.114 -10.816 c 0
 405.378 -4.484 405.378 2.958 405.378 11.508 c 0
 405.378 42.348 386.776 81.348 349.57 128.67 c 2
 327.378 158.368 l 2
 322.81 164.57 317.26 174.034 310.082 186.762 c 0
 303.228 199.488 297.026 209.28 292.132 216.134 c 0
 287.89 223.642 281.036 231.148 272.224 238.654 c 0
 263.738 246.158 253.948 251.054 243.18 253.666 c 1
 229.472 251.054 220.008 246.484 215.438 240.286 c 0
 210.868 234.084 208.258 227.232 207.604 220.052 c 0
 206.626 213.198 204.666 208.628 201.402 206.344 c 0
 198.14 204.386 192.592 202.754 185.084 201.122 c 0
 183.454 201.122 180.516 201.122 176.274 200.796 c 2
 167.462 200.796 l 2
 150.164 200.796 138.416 198.84 132.216 195.576 c 0
 124.056 186.114 119.814 175.342 119.814 163.918 c 0
 119.814 158.698 121.118 149.886 123.73 137.484 c 0
 126.342 125.41 127.646 115.616 127.646 108.766 c 0
 127.646 95.386 123.73 82.004 115.57 68.626 c 0
 107.412 54.59 103.17 44.148 103.17 36.706 c 0
 106.434 24.044 127.972 15.134 167.462 9.914 c 1
 167.464 9.81 l 1
276.142 306.568 m 0
 276.142 329.088 282.018 353.89 294.092 383.262 c 0
 305.84 412.636 317.59 432.218 329.012 445.272 c 0
 328.358 448.534 326.728 448.534 324.116 448.534 c 2
 320.852 451.8 l 1
 311.388 442.008 299.964 419.164 286.258 386.526 c 0
 272.552 357.154 265.372 330.068 265.372 310.158 c 0
 265.372 295.472 268.962 282.744 275.49 271.648 c 0
 282.67 260.878 299.966 245.212 327.38 225.304 c 2
 361.974 202.786 l 1
 398.85 170.802 418.434 148.61 418.434 135.556 c 0
 418.434 128.702 415.17 121.85 405.38 114.344 c 0
 398.85 106.512 390.042 102.596 382.534 102.596 c 0
 381.882 102.596 381.556 101.944 381.556 100.31 c 0
 381.556 99.984 384.82 93.456 391.674 80.73 c 0
 405.382 62.126 434.754 52.988 473.918 52.988 c 0
 545.714 52.988 601.198 82.362 643.624 141.106 c 1
 643.624 157.424 643.624 167.542 640.36 171.784 c 2
 640.36 183.858 l 2
 640.36 205.07 643.624 221.062 650.152 231.504 c 0
 656.68 241.95 663.204 246.844 672.996 246.844 c 0
 679.524 246.844 686.05 244.558 692.578 239.664 c 1
 695.842 264.792 695.842 286.66 695.842 306.24 c 0
 695.842 335.94 695.842 360.416 689.314 383.26 c 0
 686.05 402.842 679.522 419.16 672.996 432.216 c 0
 666.468 442.006 659.942 451.798 653.416 461.586 c 0
 646.888 471.378 643.624 481.17 637.098 490.96 c 0
 633.834 504.014 630.57 513.804 630.57 530.122 c 1
 620.778 546.442 614.254 562.756 604.46 579.078 c 0
 597.932 595.394 591.406 611.712 584.878 624.768 c 1
 555.506 601.92 l 2
 522.87 579.078 496.76 569.286 473.918 569.286 c 0
 454.334 569.286 438.016 572.552 428.226 585.606 c 2
 408.644 601.922 l 1
 408.644 592.134 405.38 579.08 398.852 566.026 c 2
 378.292 526.862 l 2
 369.154 504.018 364.26 490.964 363.28 481.172 c 0
 361.976 474.644 360.996 468.116 360.342 468.116 c 2
 335.866 419.164 l 2
 309.428 370.208 296.048 324.844 296.048 287.314 c 0
 296.048 279.808 296.7 271.974 298.006 264.14 c 1
 283.322 274.258 276.142 288.292 276.142 306.568 c 0
509.812 -2.164 m 1
 467.388 -2.164 434.75 -7.908 411.906 -19.3 c 1
 411.906 -18.32 l 1
 395.586 -37.9 377.312 -48.02 351.856 -48.02 c 0
 335.864 -48.02 310.734 -41.818 276.794 -29.416 c 0
 242.526 -17.668 212.176 -8.66 185.742 -2.72 c 0
 183.13 -1.97 177.256 -0.858 167.792 0.642 c 0
 158.654 2.112 150.168 3.612 142.662 5.112 c 0
 135.81 6.582 127.976 8.802 119.492 11.804 c 0
 111.332 14.382 104.806 17.744 99.91 21.822 c 0
 95.406 25.936 93.186 30.57 93.186 35.76 c 0
 93.186 40.98 94.296 46.56 96.516 52.502 c 0
 98.604 56.092 100.89 59.682 103.174 62.946 c 0
 105.458 66.534 107.416 69.798 108.72 73.062 c 0
 110.678 76 111.984 78.938 113.29 82.2 c 0
 114.594 85.138 115.902 88.076 116.554 91.664 c 0
 117.206 94.928 117.858 98.192 117.858 101.456 c 0
 117.858 104.72 116.554 114.51 113.942 131.808 c 0
 111.33 148.776 110.026 159.548 110.026 164.116 c 0
 110.026 178.478 113.29 189.898 120.468 198.058 c 0
 127.648 206.216 134.502 210.46 141.682 210.46 c 2
 179.212 210.46 l 2
 182.148 210.46 186.718 212.09 193.572 216.008 c 0
 195.858 221.228 197.814 225.47 199.12 229.388 c 0
 200.75 233.302 201.402 236.24 202.056 237.544 c 0
 202.708 239.502 203.36 241.462 204.014 243.092 c 0
 205.32 245.376 206.952 247.988 209.236 250.598 c 0
 206.624 253.864 205.32 258.104 205.32 263.326 c 0
 205.32 266.918 205.32 270.18 205.972 272.138 c 0
 205.972 283.886 211.52 300.53 223.268 322.396 c 2
 234.692 342.958 l 2
 244.156 360.58 251.336 373.634 256.558 386.688 c 0
 262.106 399.742 267.978 419.324 274.506 445.432 c 0
 279.728 468.276 292.13 491.122 311.712 513.968 c 2
 336.19 543.34 l 2
 353.16 562.922 364.258 579.242 370.458 592.296 c 0
 376.658 605.35 379.922 621.668 379.922 634.722 c 0
 379.922 641.25 378.29 660.83 374.7 693.468 c 0
 371.436 726.104 369.804 758.738 369.804 788.11 c 0
 369.804 810.956 371.762 827.274 376.004 843.592 c 0
 380.248 859.91 387.754 876.228 398.848 889.282 c 0
 408.64 902.336 421.694 915.39 441.276 921.916 c 0
 460.858 928.446 483.702 931.708 509.81 931.708 c 0
 519.602 931.708 529.392 931.708 539.184 928.444 c 0
 548.976 928.444 562.03 925.178 578.346 918.652 c 0
 591.4 912.124 604.456 905.598 614.248 895.808 c 0
 627.3 886.016 637.092 869.7 646.882 853.382 c 1
 653.41 833.8 659.934 814.22 663.198 788.11 c 0
 666.462 771.792 666.462 755.474 669.726 732.63 c 0
 669.726 713.048 672.99 699.996 672.99 690.202 c 0
 676.254 680.414 676.254 667.358 679.518 651.04 c 0
 682.782 637.986 686.046 624.932 692.572 615.142 c 0
 699.1 602.088 705.624 589.032 715.416 575.978 c 0
 725.208 559.662 738.262 543.342 751.314 523.762 c 0
 780.69 491.128 803.532 455.226 816.588 419.33 c 1
 832.904 386.694 842.696 344.268 842.696 298.904 c 0
 842.696 276.382 839.432 254.52 832.904 233.304 c 1
 839.432 233.304 842.696 230.694 845.958 226.124 c 0
 849.222 221.556 852.486 211.764 855.75 196.424 c 2
 859.014 172.276 l 2
 862.278 165.096 865.542 158.24 875.332 152.368 c 0
 881.86 146.494 888.386 141.598 898.178 137.682 c 0
 904.706 134.418 914.494 129.848 921.022 123.974 c 0
 927.55 117.446 930.814 110.594 930.814 103.416 c 0
 930.814 92.32 927.55 84.16 921.022 78.286 c 0
 914.494 71.758 907.97 67.19 898.178 64.252 c 0
 891.65 60.99 878.594 54.462 859.014 45.258 c 0
 842.696 35.6 826.378 23.882 810.06 10.012 c 2
 777.426 -17.76 l 2
 764.372 -30.488 751.314 -39.628 741.524 -45.176 c 0
 731.734 -51.052 718.68 -53.988 705.626 -53.988 c 2
 682.782 -51.376 l 2
 656.674 -44.522 640.356 -31.468 630.566 -11.56 c 1
 578.348 -5.23 535.922 -2.096 509.812 -2.096 c 1
 509.812 -2.164 l 1
EndSplineSet
Validated: 1
EndChar

StartChar: uniE613
Encoding: 21 58899 21
Width: 1024
LayerCount: 2
Fore
SplineSet
446.432 452.434 m 1
 507.786 559.31 l 2
 512.37 567.3 509.596 577.574 501.608 582.228 c 2
 457.956 607.2 l 2
 449.996 611.812 439.678 609.038 435.11 601.05 c 2
 232.984 249.034 l 2
 228.37 241.044 231.172 230.8 239.162 226.216 c 2
 282.786 201.128 l 2
 290.776 196.546 301.078 199.32 305.704 207.278 c 2
 446.432 452.434 l 1
857.806 484.52 m 2
 710.526 484.52 l 1
 727.854 452.048 743.932 421.486 755.24 399.862 c 0
 763.058 384.918 769.266 373.122 771.462 369.142 c 0
 773.748 364.944 775.4 360.606 776.494 356.182 c 1
 857.804 356.182 l 2
 866.168 356.182 872.978 362.966 872.978 371.326 c 2
 872.978 469.376 l 2
 872.98 477.738 866.17 484.52 857.806 484.52 c 2
499.796 484.52 m 1
 426.114 356.18 l 1
 626.07 356.18 l 1
 611.57 384.83 592.332 425.808 566.498 484.52 c 1
 499.796 484.52 l 1
333.264 484.52 m 1
 163.726 484.52 l 2
 155.364 484.52 148.582 477.738 148.582 469.39 c 2
 148.582 371.34 l 2
 148.582 362.976 155.364 356.196 163.726 356.196 c 2
 259.58 356.196 l 1
 333.264 484.52 l 1
268.546 181.932 m 2
 224.922 206.964 l 2
 216.932 211.544 209.546 207.796 208.484 198.658 c 2
 200.94 132.964 l 2
 199.89 123.826 205.266 120.55 212.88 125.722 c 2
 269.234 164.144 l 2
 276.868 169.288 276.538 177.318 268.546 181.932 c 2
744.896 354.544 m 0
 744.638 354.972 744.322 355.578 744.006 356.18 c 1
 744.006 356.18 l 1
 739.954 363.68 729.784 383.194 716.448 408.512 c 0
 716.304 408.856 716.132 409.156 715.96 409.488 c 0
 714.954 411.442 713.92 413.396 712.858 415.408 c 0
 712.08 416.844 711.318 418.294 710.528 419.776 c 0
 709.898 421.042 709.21 422.304 708.546 423.598 c 0
 707.368 425.838 706.162 428.08 704.952 430.38 c 0
 704.58 431.1 704.206 431.82 703.832 432.534 c 0
 702.48 435.124 701.102 437.71 699.694 440.336 c 0
 699.306 441.096 698.918 441.844 698.5 442.606 c 0
 667.766 500.714 629.172 572.254 605.364 609.872 c 0
 563.664 675.782 508 785.66 492.44 777.844 c 0
 470.686 767.01 538.062 627.548 560.348 575.13 c 0
 582.658 522.742 669.706 321.926 687.136 313.16 c 0
 704.624 304.424 711.362 309.282 723.016 314.098 c 0
 734.682 318.966 755.574 335.102 744.896 354.544 c 0
794.64 251.074 m 2
 773.866 290.958 l 2
 769.164 299.97 758.102 303.646 749.266 299.15 c 2
 724.206 286.246 l 2
 715.382 281.676 712.61 270.986 718.026 262.368 c 2
 744.32 220.842 l 2
 749.752 212.278 761.22 209.474 769.74 214.606 c 2
 787.614 225.352 l 2
 796.166 230.468 799.326 242.05 794.64 251.074 c 2
788.236 193.324 m 0
 781.684 187.06 766.134 173.44 784.958 147.014 c 0
 803.708 120.518 845.652 119.342 851.196 101.754 c 0
 851.212 101.754 864.36 236.276 788.236 193.324 c 0
EndSplineSet
Validated: 41
EndChar

StartChar: uniE614
Encoding: 22 58900 22
Width: 1024
LayerCount: 2
Fore
SplineSet
155.488 723.17 m 1
 155.488 655.474 l 1
 579.692 655.474 l 1
 579.692 790.858 l 1
 155.49 790.858 l 1
 155.49 723.17 l 1
 155.488 723.17 l 1
733.124 723.17 m 1
 733.124 655.474 l 1
 868.514 655.474 l 1
 868.514 790.858 l 1
 733.124 790.858 l 1
 733.124 723.17 l 1
155.488 434.352 m 1
 155.488 366.664 l 1
 868.51 366.664 l 1
 868.51 502.044 l 1
 155.486 502.044 l 1
 155.486 434.356 l 1
 155.488 434.352 l 1
155.488 150.032 m 1
 155.488 86.858 l 1
 435.284 86.858 l 1
 435.284 213.224 l 1
 155.488 213.224 l 1
 155.488 150.032 l 1
588.72 150.032 m 1
 588.72 86.858 l 1
 868.514 86.858 l 1
 868.514 213.224 l 1
 588.72 213.224 l 1
 588.72 150.032 l 1
EndSplineSet
Validated: 9
EndChar

StartChar: uniE615
Encoding: 23 58901 23
Width: 1024
LayerCount: 2
Fore
SplineSet
249.172 531.132 m 1
 249.148 531.124 l 1
 249.174 531.142 l 2
 241.526 528.466 235.29 528.624 227.776 531.134 c 2
 227.75 531.15 l 1
 203.012 469.074 174.512 399.008 148.876 346.756 c 1
 149.104 346.832 l 1
 148.98 346.778 l 2
 160.7 349.688 171.892 348.79 179.286 346.788 c 1
 179.27 346.796 179.256 346.806 179.238 346.816 c 2
 179.278 346.8 l 1
 185.812 363.316 193.254 382.026 200.694 400.842 c 1
 200.734 400.814 l 1
 225.924 401.536 251.11 401.632 276.3 400.814 c 1
 276.312 400.824 l 1
 283.466 382.808 290.646 364.782 297.652 346.742 c 1
 297.652 346.734 l 2
 297.654 346.734 297.652 346.734 297.654 346.734 c 0
 308.864 349.664 320.022 348.868 328.268 346.796 c 2
 328.27 346.796 l 1
 328.298 346.784 l 1
 328.266 346.8 l 1
 309.798 381.29 272.732 471.522 249.172 531.132 c 1
271.14 413.692 m 0
 249.356 412.93 227.57 412.918 205.786 413.692 c 1
 205.77 413.682 l 1
 219.102 447.502 231.768 480.132 238.448 499.36 c 1
 248.632 470.964 259.846 442.348 271.224 413.652 c 1
 271.14 413.692 l 0
148.88 346.732 m 1
 148.984 346.776 l 2
 148.946 346.77 148.914 346.766 148.88 346.754 c 2
 148.88 346.732 l 1
193.358 555.644 m 1
 193.352 555.638 193.346 555.632 193.338 555.632 c 2
 193.35 555.644 l 1
 182.284 553.138 172.304 553.048 162.396 555.644 c 1
 153.662 539.378 121.454 486.746 100.958 453.04 c 1
 80.168 487.476 55.552 527.222 39.522 555.644 c 1
 26.808 552.934 21.486 552.758 8.8 555.644 c 1
 33.98 517.702 74.328 445.432 88.052 421.708 c 1
 86.214 322.79 l 1
 86.214 322.79 95.068 324.274 100.984 324.274 c 0
 107.54 324.274 115.704 322.79 115.704 322.79 c 1
 113.86 421.708 l 1
 139.472 466.646 181.752 539.96 193.358 555.644 c 1
607.246 533.554 m 0
 542.074 533.554 507.886 492.232 507.886 438.672 c 0
 507.886 380.046 545.21 344.29 607.144 344.29 c 0
 674.104 344.29 706.812 384.586 706.812 438.058 c 0
 706.812 497.676 667.758 533.554 607.246 533.554 c 0
607.438 354.73 m 0
 563.992 354.73 538.474 385.858 538.474 438.364 c 0
 538.474 497.748 569.924 521.648 605.646 522.38 c 0
 606.216 522.394 606.786 522.38 607.356 522.38 c 0
 647.212 522.38 676.474 495.24 676.474 438.518 c 0
 676.472 381.872 647.25 354.73 607.438 354.73 c 0
967.066 351.504 m 0
 957.402 351.504 952.582 344.136 952.582 336.212 c 0
 952.582 326.862 960.042 322.072 969.274 322.072 c 0
 975.95 322.072 983.234 326.128 983.234 337.138 c 0
 983.234 345.978 976.312 351.504 967.066 351.504 c 0
1002.328 552.956 m 1
 1002.316 552.944 l 1
 1002.316 552.954 l 1
 1002.316 552.954 1000.406 553.22 999.116 553.22 c 0
 991.744 553.22 984.436 548.896 984.436 537.844 c 0
 980.06 482.368 975.506 426.74 968.014 373.802 c 1
 967.982 373.766 l 2
 967.99 373.766 967.998 373.766 968.01 373.77 c 2
 968.01 373.766 l 1
 968.042 373.774 l 2
 972.574 374.55 976.088 373.368 979.5 371.99 c 2
 979.48 372.03 l 1
 987.984 425.798 1008.18 506.328 1013.352 529.118 c 0
 1014.094 532.322 1015.2 536.112 1015.2 538.808 c 0
 1015.2 546.938 1010.042 551.666 1002.328 552.956 c 1
832.218 544.654 m 0
 767.324 544.654 717.718 507.8 717.718 439.282 c 0
 717.718 382.84 750.714 333.152 832.758 333.152 c 0
 902.216 333.152 947.57 371.342 947.57 438.29 c 0
 947.57 501.42 905.262 544.654 832.218 544.654 c 0
832.376 344.288 m 0
 788.426 344.288 748.4 370.08 748.4 439.69 c 0
 748.4 511.842 792.772 533.19 832.298 533.19 c 0
 881.032 533.19 916.934 503.586 916.934 438.288 c 0
 916.93 367.31 873.508 344.288 832.376 344.288 c 0
468.306 531.066 m 1
 469.796 502.414 470.536 473.74 470.64 445.046 c 1
 436.298 444.248 401.986 444.176 367.72 445.046 c 1
 367.826 473.74 368.566 502.418 370.054 531.066 c 1
 359.994 528.638 349.76 528.568 339.34 531.066 c 1
 342.012 469.518 341.782 408.094 339.34 346.752 c 1
 349.318 349.152 359.532 349.258 370.022 346.752 c 2
 369.964 346.786 l 1
 370.054 346.752 l 1
 368.542 375.352 367.822 403.924 367.726 432.476 c 1
 402.028 432.954 436.332 432.976 470.636 432.518 c 1
 470.542 403.946 469.818 375.366 468.304 346.75 c 1
 468.406 346.792 l 1
 468.344 346.75 l 2
 478.834 349.26 489.052 349.152 499.022 346.75 c 1
 496.584 408.088 496.344 469.516 499.022 531.064 c 1
 488.604 528.568 478.366 528.64 468.306 531.066 c 1
EndSplineSet
Validated: 37
EndChar

StartChar: uniE616
Encoding: 24 58902 24
Width: 1024
LayerCount: 2
Fore
SplineSet
871.732 554.006 m 0
 871.57 554.882 871.42 555.75 871.192 556.604 c 0
 871.052 557.114 870.87 557.602 870.71 558.11 c 0
 870.464 558.868 870.218 559.628 869.912 560.366 c 0
 869.696 560.876 869.458 561.374 869.222 561.872 c 0
 868.89 562.574 868.548 563.26 868.162 563.928 c 0
 867.886 564.422 867.584 564.89 867.28 565.364 c 0
 866.862 566.008 866.434 566.634 865.972 567.244 c 0
 865.632 567.698 865.28 568.14 864.912 568.576 c 0
 864.43 569.16 863.908 569.714 863.374 570.258 c 0
 862.968 570.67 862.56 571.078 862.134 571.466 c 0
 861.576 571.978 860.988 572.462 860.384 572.936 c 0
 859.918 573.296 859.464 573.66 858.982 573.996 c 0
 858.81 574.12 858.65 574.266 858.468 574.382 c 2
 529.17 793.916 l 2
 518.776 800.852 505.224 800.852 494.83 793.916 c 2
 165.532 574.382 l 2
 165.352 574.264 165.2 574.118 165.02 573.996 c 0
 164.536 573.66 164.082 573.294 163.618 572.936 c 0
 163.022 572.462 162.424 571.978 161.866 571.466 c 0
 161.44 571.076 161.032 570.67 160.634 570.258 c 0
 160.092 569.714 159.582 569.16 159.088 568.576 c 0
 158.718 568.142 158.37 567.7 158.028 567.244 c 0
 157.564 566.632 157.136 566.008 156.72 565.364 c 0
 156.418 564.89 156.114 564.42 155.84 563.928 c 0
 155.45 563.262 155.11 562.574 154.788 561.872 c 0
 154.552 561.374 154.306 560.876 154.096 560.366 c 0
 153.792 559.628 153.536 558.868 153.29 558.11 c 0
 153.128 557.602 152.95 557.114 152.816 556.604 c 0
 152.588 555.75 152.428 554.884 152.276 554.006 c 0
 152.192 553.56 152.088 553.122 152.02 552.672 c 0
 151.85 551.336 151.746 549.99 151.746 548.626 c 2
 151.746 329.098 l 2
 151.746 327.734 151.85 326.39 152.02 325.052 c 0
 152.088 324.598 152.19 324.166 152.276 323.716 c 0
 152.428 322.844 152.588 321.974 152.816 321.122 c 0
 152.948 320.61 153.128 320.118 153.29 319.614 c 0
 153.536 318.856 153.792 318.098 154.096 317.348 c 0
 154.304 316.836 154.552 316.344 154.788 315.852 c 0
 155.11 315.152 155.452 314.47 155.84 313.786 c 0
 156.114 313.302 156.418 312.828 156.72 312.364 c 0
 157.136 311.724 157.564 311.094 158.028 310.482 c 0
 158.37 310.018 158.72 309.58 159.088 309.146 c 0
 159.582 308.568 160.092 308.01 160.634 307.466 c 0
 161.03 307.06 161.438 306.642 161.866 306.262 c 0
 162.424 305.75 163.022 305.258 163.618 304.786 c 0
 164.082 304.422 164.536 304.064 165.02 303.724 c 0
 165.2 303.6 165.352 303.458 165.532 303.346 c 2
 494.828 83.814 l 2
 500.032 80.346 506.01 78.604 511.998 78.604 c 0
 517.986 78.604 523.974 80.346 529.168 83.814 c 2
 858.464 303.346 l 2
 858.646 303.46 858.806 303.6 858.978 303.724 c 0
 859.46 304.064 859.914 304.424 860.38 304.786 c 0
 860.984 305.258 861.572 305.75 862.13 306.262 c 0
 862.556 306.64 862.964 307.058 863.37 307.466 c 0
 863.904 308.008 864.424 308.568 864.908 309.146 c 0
 865.278 309.58 865.628 310.018 865.968 310.482 c 0
 866.43 311.096 866.858 311.724 867.276 312.364 c 0
 867.58 312.828 867.884 313.302 868.158 313.786 c 0
 868.544 314.47 868.886 315.154 869.218 315.852 c 0
 869.454 316.344 869.69 316.836 869.908 317.348 c 0
 870.214 318.098 870.46 318.856 870.706 319.614 c 0
 870.866 320.118 871.048 320.61 871.188 321.122 c 0
 871.414 321.974 871.564 322.844 871.728 323.716 c 0
 871.802 324.166 871.918 324.598 871.974 325.052 c 0
 872.144 326.392 872.25 327.736 872.25 329.098 c 2
 872.25 548.624 l 2
 872.25 549.988 872.144 551.332 871.974 552.67 c 0
 871.922 553.12 871.806 553.56 871.732 554.006 c 0
512 365.616 m 1
 402.5 438.858 l 1
 512 512.104 l 1
 621.51 438.858 l 1
 512 365.616 l 1
481.042 565.884 m 1
 346.81 476.108 l 1
 238.456 548.582 l 1
 481.042 710.302 l 1
 481.042 565.884 l 1
291.124 438.858 m 1
 213.67 387.05 l 1
 213.67 490.672 l 1
 291.124 438.858 l 1
346.81 401.604 m 1
 481.042 311.834 l 1
 481.042 167.412 l 1
 238.456 329.134 l 1
 346.81 401.604 l 1
542.958 311.834 m 1
 677.188 401.604 l 1
 785.552 329.136 l 1
 542.958 167.414 l 1
 542.958 311.834 l 1
732.876 438.858 m 1
 810.338 490.67 l 1
 810.338 387.048 l 1
 732.876 438.858 l 1
677.188 476.108 m 1
 542.958 565.884 l 1
 542.958 710.302 l 1
 785.552 548.582 l 1
 677.188 476.108 l 1
EndSplineSet
Validated: 41
EndChar

StartChar: uniE617
Encoding: 25 58903 25
Width: 1024
LayerCount: 2
Fore
SplineSet
203.782 458.526 m 2
 118.892 458.526 l 2
 116.708 458.526 114.934 456.752 114.934 454.55 c 2
 114.934 413.062 l 2
 114.934 410.856 116.708 409.09 118.892 409.09 c 2
 152.018 409.09 l 1
 152.018 357.514 l 1
 152.018 357.514 144.578 355.032 124.04 355.032 c 0
 99.784 355.032 65.912 363.916 65.912 438.374 c 0
 65.912 512.864 101.18 522.666 134.302 522.666 c 0
 162.976 522.666 175.31 517.632 183.18 515.19 c 0
 185.646 514.412 187.898 516.89 187.898 519.096 c 2
 197.384 559.192 l 2
 197.384 560.216 197.018 561.45 195.884 562.282 c 0
 192.682 564.532 173.212 575.426 124.04 575.426 c 0
 67.362 575.426 9.238 551.316 9.238 435.43 c 0
 9.238 319.552 75.778 302.294 131.858 302.294 c 0
 178.278 302.294 206.482 322.12 206.482 322.12 c 2
 207.63 322.75 207.752 324.37 207.752 325.098 c 2
 207.752 454.544 l 2
 207.734 456.738 205.948 458.526 203.782 458.526 c 2
633.062 565.528 m 2
 585.3 565.528 l 2
 583.096 565.528 581.332 563.75 581.332 561.548 c 2
 581.332 469.196 l 1
 506.846 469.196 l 1
 506.846 561.548 l 2
 506.846 563.752 505.062 565.528 502.912 565.528 c 2
 455.102 565.528 l 2
 452.952 565.528 451.2 563.75 451.2 561.548 c 2
 451.2 311.486 l 2
 451.2 309.272 452.966 307.5 455.102 307.5 c 2
 502.912 307.5 l 2
 505.094 307.5 506.846 309.29 506.846 311.486 c 2
 506.846 418.43 l 1
 581.332 418.43 l 1
 581.16 311.472 l 2
 581.16 309.254 582.926 307.502 585.062 307.502 c 2
 632.886 307.502 l 2
 635.09 307.502 636.804 309.292 636.804 311.472 c 2
 636.976 561.554 l 2
 637.012 563.752 635.226 565.528 633.062 565.528 c 2
260.874 559.86 m 0
 243.856 559.86 230.054 545.936 230.054 528.744 c 0
 230.054 511.548 243.856 497.62 260.874 497.62 c 0
 277.892 497.62 291.68 511.546 291.68 528.744 c 0
 291.682 545.936 277.898 559.86 260.874 559.86 c 0
288.298 479.65 m 1
 288.298 481.834 286.532 483.646 284.382 483.646 c 2
 236.722 483.646 l 2
 234.484 483.646 232.586 481.394 232.586 479.184 c 2
 232.586 479.184 232.586 340.28 232.586 313.808 c 0
 232.586 308.974 235.606 307.504 239.522 307.504 c 2
 239.522 307.504 259.826 307.504 282.45 307.504 c 0
 287.132 307.504 288.364 309.804 288.364 313.91 c 0
 288.334 322.776 288.334 357.48 288.334 364.214 c 0
 288.298 370.622 288.298 479.65 288.298 479.65 c 1
818.05 483.27 m 2
 770.64 483.27 l 2
 768.472 483.27 766.738 481.476 766.738 479.276 c 2
 766.738 356.682 l 1
 766.738 356.682 754.692 347.806 737.546 347.806 c 0
 720.464 347.806 715.898 355.562 715.898 372.35 c 0
 715.898 389.084 715.898 479.288 715.898 479.288 c 2
 715.898 481.494 714.116 483.284 711.976 483.284 c 2
 663.886 483.284 l 2
 661.682 483.284 659.952 481.492 659.952 479.288 c 2
 659.952 479.288 659.952 413.994 659.952 364.262 c 0
 659.952 314.538 687.67 302.348 725.764 302.348 c 0
 757.034 302.348 782.3 319.64 782.3 319.64 c 1
 782.3 319.64 783.484 310.568 784.074 309.486 c 0
 784.586 308.4 786.004 307.32 787.546 307.32 c 2
 818.018 307.32 l 2
 820.182 307.32 821.956 309.106 821.956 311.304 c 2
 822.088 479.292 l 2
 821.984 481.476 820.214 483.27 818.05 483.27 c 2
947.918 488.902 m 0
 920.976 488.902 902.656 476.88 902.656 476.88 c 1
 902.656 561.546 l 2
 902.656 563.75 900.87 565.526 898.738 565.526 c 2
 850.778 565.526 l 2
 848.63 565.526 846.864 563.748 846.864 561.546 c 2
 846.728 311.468 l 2
 846.728 309.246 848.514 307.498 850.678 307.498 c 2
 850.678 307.498 884.042 307.498 884.072 307.498 c 0
 885.556 307.498 886.67 308.266 887.522 309.602 c 0
 888.358 310.948 889.542 321.14 889.542 321.14 c 1
 889.542 321.14 909.096 302.564 946.222 302.564 c 0
 989.792 302.564 1014.764 324.666 1014.764 401.788 c 0
 1014.762 478.81 974.856 488.902 947.918 488.902 c 0
929.21 347.976 m 0
 912.772 348.482 901.636 355.948 901.636 355.948 c 1
 901.636 435.164 l 1
 901.636 435.164 912.652 441.926 926.164 443.12 c 0
 943.242 444.638 959.754 439.482 959.754 398.728 c 0
 959.664 355.776 952.23 347.294 929.21 347.976 c 0
426.364 348.882 m 0
 424.262 348.882 418.894 348.046 413.394 348.046 c 0
 395.82 348.046 389.82 356.23 389.82 366.82 c 0
 389.82 377.454 389.82 437.158 389.82 437.158 c 1
 425.694 437.158 l 2
 427.894 437.158 429.628 438.934 429.628 441.152 c 2
 429.628 479.686 l 2
 429.662 481.9 427.892 483.682 425.694 483.682 c 2
 389.82 483.682 l 1
 389.768 531.032 l 2
 389.768 532.824 388.818 533.716 386.75 533.716 c 2
 337.92 533.716 l 2
 336.036 533.716 334.988 532.87 334.988 531.05 c 2
 334.988 482.112 l 1
 334.988 482.112 310.498 476.2 308.848 475.712 c 0
 307.218 475.246 306.016 473.706 306.016 471.906 c 2
 306.016 441.134 l 2
 306.016 438.934 307.8 437.142 309.952 437.142 c 2
 334.99 437.142 l 1
 334.99 437.142 334.99 404.994 334.99 363.15 c 0
 334.99 308.2 373.546 302.804 399.554 302.804 c 0
 411.426 302.804 425.632 306.676 428.01 307.504 c 0
 429.442 308.008 430.262 309.486 430.262 311.07 c 2
 430.28 344.898 l 2
 430.284 347.11 428.43 348.908 426.364 348.882 c 0
EndSplineSet
Validated: 37
EndChar

StartChar: uniE618
Encoding: 26 58904 26
Width: 1024
Flags: H
LayerCount: 2
Fore
SplineSet
511.903320312 -142.541015625 m 4
 498.956054688 -142.541015625 486.045898438 -139.147460938 474.6796875 -132.579101562 c 6
 356.165039062 -62.462890625 l 6
 338.494140625 -52.5869140625 347.15625 -49.080078125 352.970703125 -47.0380859375 c 4
 376.567382812 -38.83984375 381.348632812 -36.9599609375 406.512695312 -22.666015625 c 4
 409.157226562 -21.197265625 412.634765625 -21.744140625 415.366210938 -23.3447265625 c 6
 506.362304688 -77.3623046875 l 6
 509.686523438 -79.2119140625 514.315429688 -79.2119140625 517.366210938 -77.3623046875 c 6
 872.232421875 127.439453125 l 6
 875.541992188 129.331054688 877.637695312 133.149414062 877.637695312 137.02734375 c 6
 877.637695312 546.583007812 l 6
 877.637695312 550.595703125 875.5234375 554.349609375 872.1484375 556.372070312 c 6
 517.438476562 761.00390625 l 6
 514.142578125 762.909179688 509.782226562 762.909179688 506.489257812 761.00390625 c 6
 151.879882812 556.297851562 l 6
 148.443359375 554.349609375 146.266601562 550.452148438 146.266601562 546.583007812 c 6
 146.266601562 137.02734375 l 6
 146.266601562 133.129882812 148.428710938 129.416992188 151.836914062 127.54296875 c 6
 249.055664062 71.392578125 l 6
 301.80078125 45.01171875 334.102539062 76.0673828125 334.102539062 107.284179688 c 6
 334.102539062 511.641601562 l 6
 334.102539062 517.35546875 338.709960938 521.86328125 344.415039062 521.86328125 c 6
 389.421875 521.86328125 l 6
 395.036132812 521.86328125 399.684570312 517.358398438 399.684570312 511.641601562 c 6
 399.684570312 107.284179688 l 6
 399.684570312 36.89453125 361.346679688 -3.4921875 294.610351562 -3.4921875 c 4
 274.109375 -3.4921875 257.950195312 -3.4921875 212.854492188 18.734375 c 6
 119.813476562 72.3017578125 l 6
 96.837890625 85.59765625 82.6015625 110.435546875 82.6015625 137.030273438 c 6
 82.6015625 546.583007812 l 6
 82.6015625 573.1796875 96.837890625 598.014648438 119.813476562 611.255859375 c 6
 474.696289062 816.321289062 l 6
 497.165039062 829.01953125 526.9921875 829.01953125 549.276367188 816.321289062 c 6
 904.12109375 611.255859375 l 6
 927.103515625 597.95703125 941.400390625 573.1796875 941.400390625 546.583007812 c 6
 941.400390625 137.02734375 l 6
 941.400390625 110.43359375 927.103515625 85.681640625 904.12109375 72.2998046875 c 6
 549.276367188 -132.579101562 l 6
 537.926757812 -139.147460938 525.05078125 -142.541015625 511.903320312 -142.541015625 c 4
621.54296875 139.600585938 m 4
 466.208007812 139.600585938 433.70703125 210.90234375 433.70703125 270.6953125 c 4
 433.70703125 276.369140625 438.254882812 280.903320312 443.928710938 280.903320312 c 6
 489.831054688 280.903320312 l 6
 494.943359375 280.903320312 499.231445312 277.204101562 500.009765625 272.209960938 c 4
 506.92578125 225.49609375 527.55859375 201.918945312 621.514648438 201.918945312 c 4
 696.252929688 201.918945312 728.0625 218.858398438 728.0625 258.491210938 c 4
 728.0625 281.36328125 719.067382812 298.314453125 602.864257812 309.721679688 c 4
 505.80078125 319.310546875 445.702148438 340.780273438 445.702148438 418.44921875 c 4
 445.702148438 490.067382812 506.079101562 532.749023438 607.265625 532.749023438 c 4
 720.956054688 532.749023438 777.1875 493.30078125 784.344726562 408.616210938 c 4
 784.606445312 405.741210938 783.581054688 402.92578125 781.606445312 400.747070312 c 4
 779.665039062 398.680664062 776.96484375 397.454101562 774.096679688 397.454101562 c 6
 728.028320312 397.454101562 l 6
 723.279296875 397.454101562 719.067382812 400.831054688 718.099609375 405.482421875 c 4
 707.0234375 454.631835938 680.16796875 470.330078125 607.262695312 470.330078125 c 4
 525.638671875 470.330078125 516.147460938 441.897460938 516.147460938 420.614257812 c 4
 516.147460938 394.770507812 527.369140625 387.26171875 637.5390625 372.676757812 c 4
 746.611328125 358.266601562 798.422851562 337.8671875 798.422851562 261.220703125 c 4
 798.439453125 183.90234375 733.98046875 139.600585938 621.54296875 139.600585938 c 4
EndSplineSet
Validated: 524321
EndChar

StartChar: uniE619
Encoding: 27 58905 27
Width: 1024
LayerCount: 2
Fore
SplineSet
169.736 429.984 m 1
 169.736 433.034 168.132 435.836 165.502 437.346 c 2
 95.374 477.706 l 2
 94.19 478.406 92.858 478.768 91.516 478.824 c 0
 91.392 478.824 90.888 478.824 90.792 478.824 c 0
 89.45 478.768 88.122 478.408 86.918 477.706 c 2
 16.794 437.346 l 2
 14.176 435.836 12.552 433.038 12.552 429.984 c 2
 12.706 321.308 l 2
 12.706 319.802 13.494 318.39 14.818 317.652 c 0
 16.124 316.87 17.734 316.87 19.028 317.652 c 2
 60.704 341.514 l 2
 63.34 343.08 64.944 345.844 64.944 348.868 c 2
 64.944 399.644 l 2
 64.944 402.664 66.548 405.466 69.172 406.976 c 2
 86.918 417.198 l 2
 88.24 417.956 89.684 418.328 91.166 418.328 c 0
 92.61 418.328 94.092 417.954 95.376 417.198 c 2
 113.12 406.976 l 2
 115.744 405.466 117.354 402.668 117.354 399.644 c 2
 117.354 348.868 l 2
 117.354 345.844 118.98 343.066 121.602 341.514 c 2
 163.268 317.652 l 2
 164.578 316.87 166.206 316.87 167.504 317.652 c 0
 168.796 318.396 169.608 319.802 169.608 321.308 c 2
 169.736 429.984 l 1
544.2 579.378 m 0
 542.888 580.108 541.286 580.092 539.992 579.33 c 0
 538.7 578.574 537.902 577.182 537.902 575.676 c 2
 537.902 468.054 l 2
 537.902 467.002 537.336 466.018 536.426 465.486 c 0
 535.5 464.958 534.372 464.958 533.458 465.486 c 2
 515.896 475.608 l 2
 513.268 477.118 510.05 477.112 507.426 475.606 c 2
 437.276 435.118 l 2
 434.65 433.606 433.034 430.806 433.034 427.788 c 2
 433.034 346.782 l 2
 433.034 343.758 434.648 340.97 437.268 339.446 c 2
 507.424 298.934 l 2
 510.046 297.42 513.276 297.42 515.892 298.934 c 2
 586.06 339.446 l 2
 588.682 340.97 590.294 343.758 590.294 346.782 c 2
 590.294 548.682 l 2
 590.294 551.752 588.634 554.582 585.946 556.082 c 2
 544.2 579.378 l 0
537.692 373.402 m 1
 537.692 372.648 537.294 371.944 536.638 371.568 c 2
 512.544 357.684 l 2
 511.898 357.304 511.082 357.304 510.432 357.684 c 2
 486.346 371.568 l 2
 485.684 371.944 485.284 372.648 485.284 373.402 c 2
 485.284 401.212 l 2
 485.284 401.968 485.686 402.67 486.346 403.046 c 2
 510.428 416.964 l 2
 511.082 417.34 511.894 417.34 512.55 416.964 c 2
 536.638 403.046 l 2
 537.294 402.67 537.692 401.968 537.692 401.212 c 2
 537.692 373.402 l 1
795.196 401.946 m 1
 797.802 403.454 799.406 406.25 799.406 409.264 c 2
 799.406 428.892 l 2
 799.406 431.916 797.8 434.7 795.192 436.222 c 2
 725.484 476.692 l 2
 722.86 478.216 719.62 478.22 716.996 476.704 c 2
 646.864 436.218 l 2
 644.246 434.7 642.634 431.906 642.634 428.88 c 2
 642.634 347.91 l 2
 642.634 344.868 644.262 342.05 646.912 340.544 c 2
 716.608 300.832 l 2
 719.182 299.374 722.322 299.352 724.92 300.788 c 2
 767.076 324.222 l 2
 768.404 324.964 769.236 326.368 769.248 327.892 c 0
 769.256 329.422 768.448 330.836 767.124 331.596 c 2
 696.546 372.108 l 2
 695.23 372.858 694.422 374.266 694.422 375.778 c 2
 694.422 401.158 l 2
 694.422 402.668 695.23 404.068 696.54 404.828 c 2
 718.512 417.484 l 2
 719.816 418.236 721.43 418.236 722.734 417.484 c 2
 744.714 404.828 l 2
 746.022 404.068 746.832 402.668 746.832 401.158 c 2
 746.832 381.184 l 2
 746.832 379.67 747.636 378.274 748.956 377.516 c 0
 750.268 376.76 751.886 376.768 753.198 377.528 c 2
 795.196 401.946 l 1
297.304 477.13 m 2
 299.926 478.642 303.154 478.642 305.774 477.13 c 2
 375.926 436.648 l 2
 378.542 435.136 380.16 432.346 380.16 429.314 c 2
 380.16 348.288 l 2
 380.16 345.262 378.542 342.47 375.926 340.948 c 2
 305.774 300.436 l 2
 303.152 298.93 299.922 298.93 297.304 300.436 c 2
 227.172 340.948 l 2
 224.55 342.466 222.938 345.262 222.938 348.288 c 2
 222.938 429.314 l 2
 222.938 432.346 224.552 435.136 227.176 436.648 c 2
 297.304 477.13 l 2
931.394 299.282 m 0
 928.98 299.282 926.57 299.912 924.452 301.138 c 2
 902.362 314.208 l 2
 899.07 316.048 900.682 316.702 901.768 317.082 c 0
 906.166 318.612 907.058 318.96 911.748 321.624 c 0
 912.24 321.9 912.888 321.798 913.396 321.5 c 2
 930.356 311.432 l 2
 930.978 311.088 931.84 311.088 932.406 311.432 c 2
 998.554 349.606 l 2
 999.168 349.958 999.558 350.67 999.558 351.394 c 2
 999.558 427.732 l 2
 999.558 428.482 999.168 429.182 998.534 429.558 c 2
 932.416 467.7 l 2
 931.802 468.056 930.99 468.056 930.376 467.7 c 2
 864.278 429.544 l 2
 863.638 429.18 863.232 428.454 863.232 427.732 c 2
 863.232 351.394 l 2
 863.232 350.668 863.638 349.976 864.272 349.626 c 2
 882.394 339.162 l 2
 892.226 334.244 898.246 340.032 898.246 345.852 c 2
 898.246 421.218 l 2
 898.246 422.284 899.106 423.122 900.168 423.122 c 2
 908.558 423.122 l 2
 909.604 423.122 910.472 422.284 910.472 421.218 c 2
 910.472 345.848 l 2
 910.472 332.726 903.328 325.2 890.886 325.2 c 0
 887.066 325.2 884.05 325.2 875.648 329.34 c 2
 858.304 339.326 l 2
 854.022 341.802 851.366 346.434 851.366 351.39 c 2
 851.366 427.728 l 2
 851.366 432.686 854.022 437.316 858.304 439.782 c 2
 924.452 478.006 l 2
 928.64 480.372 934.202 480.372 938.354 478.006 c 2
 1004.494 439.782 l 2
 1008.78 437.306 1011.444 432.686 1011.444 427.728 c 2
 1011.444 351.39 l 2
 1011.444 346.432 1008.78 341.822 1004.494 339.326 c 2
 938.354 301.136 l 2
 936.242 299.912 933.844 299.282 931.394 299.282 c 0
951.828 351.872 m 0
 922.874 351.872 916.816 365.164 916.816 376.306 c 0
 916.816 377.364 917.664 378.21 918.722 378.21 c 2
 927.276 378.21 l 2
 928.23 378.21 929.03 377.518 929.174 376.59 c 0
 930.464 367.882 934.31 363.486 951.822 363.486 c 0
 965.752 363.486 971.682 366.642 971.682 374.03 c 0
 971.682 378.294 970.006 381.454 948.346 383.578 c 0
 930.252 385.366 919.054 389.368 919.054 403.846 c 0
 919.054 417.196 930.304 425.148 949.168 425.148 c 0
 970.36 425.148 980.84 417.796 982.172 402.012 c 0
 982.222 401.476 982.032 400.952 981.664 400.546 c 0
 981.3 400.162 980.8 399.932 980.262 399.932 c 2
 971.676 399.932 l 2
 970.794 399.932 970.008 400.56 969.824 401.428 c 0
 967.762 410.59 962.758 413.516 949.168 413.516 c 0
 933.954 413.516 932.184 408.216 932.184 404.248 c 0
 932.184 399.432 934.278 398.03 954.812 395.312 c 0
 975.14 392.626 984.8 388.824 984.8 374.538 c 0
 984.8 360.128 972.79 351.872 951.828 351.872 c 0
720.208 405.734 m 2
 720.712 406.022 721.326 406.022 721.836 405.734 c 2
 735.296 397.97 l 2
 735.796 397.678 736.112 397.138 736.112 396.558 c 2
 736.112 381.012 l 2
 736.112 380.43 735.796 379.894 735.296 379.608 c 2
 721.836 371.832 l 2
 721.324 371.548 720.712 371.548 720.208 371.832 c 2
 706.758 379.608 l 2
 706.258 379.896 705.946 380.43 705.946 381.012 c 2
 705.946 396.558 l 2
 705.946 397.138 706.258 397.678 706.758 397.97 c 2
 720.208 405.734 l 2
EndSplineSet
Validated: 5
EndChar

StartChar: uniE61A
Encoding: 28 58906 28
Width: 1024
LayerCount: 2
Fore
SplineSet
810.834 762.692 m 1
 810.834 161.026 l 1
 209.166 161.026 l 1
 209.166 762.692 l 1
 810.834 762.692 l 1
871 822.858 m 1
 149 822.858 l 1
 149 100.858 l 1
 871 100.858 l 1
 871 822.858 l 1
586.524 644.238 m 1
 671.698 644.238 l 1
 551.552 418.614 l 1
 551.552 283.238 l 1
 476.534 283.238 l 1
 476.534 418.614 l 1
 352.062 644.238 l 1
 440.618 644.238 l 1
 515.262 487.054 l 1
 586.524 644.238 l 1
EndSplineSet
Validated: 9
EndChar

StartChar: uniE61B
Encoding: 29 58907 29
Width: 1024
Flags: H
LayerCount: 2
Fore
SplineSet
723.50390625 210.03515625 m 5
 723.50390625 210.03515625 718.380859375 228.20703125 737.478515625 263.151367188 c 4
 756.581054688 298.087890625 771.493164062 278.987304688 771.493164062 278.987304688 c 5
 771.493164062 278.987304688 787.796875 261.288085938 769.161132812 234.734375 c 4
 750.529296875 208.166992188 723.50390625 210.03515625 723.50390625 210.03515625 c 5
576.750976562 184.879882812 m 4
 554.854492188 127.572265625 501.740234375 150.868164062 501.740234375 150.868164062 c 5
 501.740234375 150.868164062 495.68359375 171.3671875 512.91796875 228.670898438 c 4
 530.161132812 285.98046875 570.690429688 263.611328125 570.690429688 263.611328125 c 5
 570.690429688 263.611328125 598.643554688 242.18359375 576.750976562 184.879882812 c 4
537.151367188 424.807617188 m 5
 537.151367188 424.807617188 570.23046875 510.997070312 578.145507812 469.064453125 c 4
 586.061523438 427.134765625 508.729492188 302.283203125 508.729492188 302.283203125 c 5
 509.655273438 330.236328125 537.151367188 424.807617188 537.151367188 424.807617188 c 5
64.2763671875 210.03515625 m 5
 65.6708984375 265.4765625 102.012695312 289.703125 114.594726562 277.592773438 c 4
 127.174804688 265.4765625 122.514648438 239.384765625 98.75 223.081054688 c 4
 74.990234375 206.776367188 64.2763671875 210.03515625 64.2763671875 210.03515625 c 5
1066.39160156 219.239257812 m 4
 1064.52441406 237.875976562 1047.75097656 230.948242188 1047.75097656 230.948242188 c 5
 1047.75097656 230.948242188 1020.73339844 209.997070312 996.96875 212.322265625 c 4
 973.2109375 214.654296875 980.6640625 267.78515625 980.6640625 267.78515625 c 5
 980.6640625 267.78515625 985.788085938 316.47265625 971.81640625 320.55859375 c 4
 957.836914062 324.639648438 940.600585938 307.87109375 940.600585938 307.87109375 c 5
 940.600585938 307.87109375 919.171875 284.108398438 908.919921875 253.826171875 c 5
 906.124023438 252.895507812 l 5
 906.124023438 252.895507812 909.390625 306.004882812 905.668945312 318.114257812 c 4
 902.870117188 324.172851562 877.250976562 323.708984375 873.055664062 312.9921875 c 4
 868.860351562 302.276367188 848.36328125 227.733398438 846.963867188 196.524414062 c 5
 846.963867188 196.524414062 806.897460938 162.510742188 771.955078125 156.91796875 c 4
 737.01171875 151.330078125 728.627929688 173.228515625 728.627929688 173.228515625 c 5
 728.627929688 173.228515625 823.674804688 199.782226562 820.41015625 275.72265625 c 4
 817.151367188 351.662109375 743.766601562 323.577148438 735.474609375 317.333007812 c 4
 727.442382812 311.295898438 684.540039062 285.432617188 672.037109375 213.803710938 c 4
 671.608398438 211.361328125 670.865234375 200.715820312 670.865234375 200.715820312 c 5
 670.865234375 200.715820312 634.060546875 176.02734375 613.5546875 169.5 c 5
 613.5546875 169.5 670.865234375 265.938476562 600.981445312 309.736328125 c 4
 569.306640625 328.83203125 544.147460938 288.763671875 544.147460938 288.763671875 c 5
 544.147460938 288.763671875 638.713867188 394.055664062 617.751953125 483.0390625 c 4
 607.764648438 525.416015625 586.591796875 529.9609375 567.145507812 523.10546875 c 4
 537.627929688 511.458984375 526.443359375 494.219726562 526.443359375 494.219726562 c 5
 526.443359375 494.219726562 488.234375 438.779296875 479.385742188 356.317382812 c 4
 470.533203125 273.861328125 457.486328125 174.157226562 457.486328125 174.157226562 c 5
 457.486328125 174.157226562 439.321289062 156.454101562 422.548828125 155.52734375 c 4
 405.775390625 154.592773438 413.231445312 205.368164062 413.231445312 205.368164062 c 5
 413.231445312 205.368164062 426.275390625 282.70703125 425.346679688 295.749023438 c 4
 424.412109375 308.794921875 423.481445312 315.782226562 408.10546875 320.44140625 c 4
 392.729492188 325.094726562 375.963867188 305.532226562 375.963867188 305.532226562 c 5
 375.963867188 305.532226562 331.704101562 238.4453125 327.979492188 228.202148438 c 6
 325.649414062 224.006835938 l 5
 323.32421875 226.805664062 l 5
 323.32421875 226.805664062 354.538085938 318.116210938 324.71875 319.513671875 c 4
 294.904296875 320.908203125 275.333007812 286.905273438 275.333007812 286.905273438 c 5
 275.333007812 286.905273438 241.319335938 230.07421875 239.921875 223.551757812 c 5
 237.592773438 226.34765625 l 5
 237.592773438 226.34765625 251.571289062 292.499023438 248.770507812 308.801757812 c 4
 245.974609375 325.107421875 230.60546875 321.84765625 230.60546875 321.84765625 c 5
 230.60546875 321.84765625 211.038085938 324.1796875 205.912109375 311.599609375 c 4
 200.784179688 299.020507812 182.15234375 215.625 179.8203125 189.071289062 c 5
 179.8203125 189.071289062 130.901367188 154.130859375 98.7529296875 153.666015625 c 4
 66.6083984375 153.200195312 69.869140625 174.051757812 69.869140625 174.051757812 c 5
 69.869140625 174.051757812 187.736328125 214.397460938 155.591796875 294.059570312 c 5
 141.1484375 314.556640625 124.375976562 321.004882812 100.618164062 320.54296875 c 4
 76.8603515625 320.079101562 47.3779296875 305.581054688 28.2734375 262.715820312 c 4
 19.1435546875 242.271484375 15.826171875 222.874023438 13.9619140625 208.19140625 c 5
 13.9619140625 208.19140625 -6.6689453125 203.982421875 -17.849609375 213.294921875 c 4
 -29.0302734375 222.607421875 -34.78515625 213.294921875 -34.78515625 213.294921875 c 5
 -34.78515625 213.294921875 -53.982421875 188.831054688 -34.8798828125 181.375 c 4
 -15.779296875 173.919921875 14.0390625 170.436523438 14.0390625 170.436523438 c 5
 14.017578125 170.436523438 l 5
 16.7568359375 157.38671875 24.7353515625 135.225585938 47.9853515625 117.5625 c 4
 82.92578125 91.0078125 149.995117188 120.00390625 149.995117188 120.00390625 c 5
 177.484375 135.432617188 l 5
 177.484375 135.432617188 178.416992188 110.220703125 198.450195312 106.533203125 c 4
 218.483398438 102.864257812 226.8671875 106.588867188 261.809570312 191.37890625 c 4
 282.311523438 234.701171875 283.708984375 232.395507812 283.708984375 232.395507812 c 5
 286.0390625 232.857421875 l 5
 286.0390625 232.857421875 270.198242188 149.932617188 276.252929688 127.567382812 c 4
 282.309570312 105.2109375 308.86328125 107.537109375 308.86328125 107.537109375 c 5
 308.86328125 107.537109375 323.301757812 104.740234375 334.951171875 145.739257812 c 4
 346.602539062 186.741210938 368.967773438 231.928710938 368.967773438 231.928710938 c 5
 371.76171875 231.928710938 l 5
 371.76171875 231.928710938 361.978515625 147.13671875 376.889648438 120.12109375 c 4
 391.798828125 93.09765625 430.463867188 111.0234375 430.463867188 111.0234375 c 5
 430.463867188 111.0234375 457.489257812 124.666015625 461.6796875 128.856445312 c 5
 461.6796875 128.856445312 493.751953125 101.559570312 539.000976562 106.515625 c 4
 640.120117188 126.416992188 676.083007812 153.291992188 676.083007812 153.291992188 c 5
 676.083007812 153.291992188 693.454101562 109.272460938 747.268554688 105.200195312 c 4
 808.76953125 100.529296875 842.30859375 139.225585938 842.30859375 139.225585938 c 5
 842.30859375 139.225585938 841.841796875 114.064453125 863.276367188 105.215820312 c 4
 884.702148438 96.36328125 899.143554688 146.100585938 899.143554688 146.100585938 c 5
 935.014648438 244.979492188 l 5
 938.27734375 244.979492188 l 5
 938.27734375 244.979492188 940.140625 180.684570312 975.544921875 170.434570312 c 4
 1010.95605469 160.1875 1057.07519531 194.4296875 1057.07519531 194.4296875 c 5
 1057.07519531 194.4296875 1068.25488281 200.610351562 1066.39160156 219.239257812 c 4
EndSplineSet
Validated: 524325
EndChar

StartChar: uniE61C
Encoding: 30 58908 30
Width: 1024
LayerCount: 2
Fore
SplineSet
261.52 670.21 m 2
 261.52 669.268 261.52 608.954 261.52 535.828 c 2
 261.52 402.952 l 1
 255.488 390.704 l 2
 247.194 374.308 227.028 354.138 209.688 345.094 c 0
 190.084 334.916 176.704 331.522 155.972 331.522 c 0
 124.498 331.522 101.316 341.324 78.51 364.132 c 0
 50.05 392.776 38.742 431.416 47.6 469.676 c 0
 52.5 490.596 60.982 505.112 77.756 521.882 c 0
 102.446 546.762 126.194 555.81 161.628 554.112 c 0
 184.81 552.982 199.136 548.646 216.472 537.528 c 0
 222.884 533.38 228.16 530.174 228.536 530.552 c 0
 228.724 530.928 229.854 538.846 231.174 548.078 c 0
 232.492 557.502 234.004 566.738 234.568 569.002 c 0
 235.32 572.204 233.06 573.902 220.62 579.742 c 0
 198.758 589.92 183.488 593.124 155.974 593.124 c 0
 126.762 593.124 112.626 589.918 86.992 577.29 c 0
 47.792 558.254 19.708 522.444 8.21 477.214 c 0
 3.69 458.93 4.064 421.99 9.152 403.896 c 0
 22.722 354.516 58.532 317.198 108.856 299.858 c 0
 126.006 294.014 128.08 293.824 155.032 293.638 c 0
 179.534 293.638 185.188 294.202 197.438 298.162 c 0
 216.1 303.814 231.364 311.542 247.008 323.036 c 0
 253.982 328.128 259.822 332.274 260.202 332.274 c 0
 260.39 332.274 260.578 325.298 260.578 316.818 c 2
 260.578 301.174 l 1
 308.64 300.044 l 1
 308.64 671.526 l 1
 285.08 671.526 l 2
 272.078 671.526 261.522 670.962 261.522 670.208 c 2
 261.52 670.21 l 2
649.778 632.892 m 1
 649.778 603.678 l 1
 687.476 603.678 l 1
 687.476 662.106 l 1
 649.778 662.106 l 1
 649.778 632.892 l 1
416.446 649.102 m 2
 414.94 648.16 414.182 644.956 414.562 641.186 c 2
 415.126 634.776 l 1
 478.642 634.212 l 1
 542.346 633.834 l 1
 543.476 638.358 l 2
 544.042 640.806 544.234 644.58 543.856 646.462 c 0
 543.29 649.668 539.524 649.856 481.094 650.234 c 0
 446.788 650.61 417.766 650.044 416.444 649.104 c 2
 416.446 649.102 l 2
804.706 648.534 m 2
 802.258 646.086 801.878 641.562 803.57 636.852 c 0
 804.516 634.21 812.054 633.832 867.652 633.832 c 2
 930.604 633.832 l 1
 932.678 638.356 l 2
 934.186 641.56 934.186 643.82 932.678 646.836 c 0
 930.416 650.794 929.854 650.794 868.784 650.794 c 0
 823.174 650.794 806.396 650.23 804.706 648.53 c 2
 804.706 648.534 l 2
450.936 591.618 m 1
 421.914 585.964 395.904 573.144 376.676 555.24 c 0
 354.25 534.698 341.244 513.024 332.198 482.302 c 0
 328.242 468.542 327.486 461.758 327.486 442.72 c 0
 327.486 414.072 330.5 401.07 342.75 375.812 c 0
 351.046 358.662 354.628 353.952 369.514 338.874 c 0
 389.682 318.706 405.324 308.716 431.146 299.858 c 0
 448.3 294.014 450.18 293.824 478.264 293.638 c 0
 506.536 293.638 508.042 293.824 525.384 299.858 c 0
 589.274 322.098 629.044 376.57 629.418 442.536 c 0
 629.61 469.296 625.648 486.07 613.586 511.328 c 0
 605.106 528.856 602.094 533.002 585.884 549.022 c 0
 571.182 563.724 564.582 568.812 550.45 575.974 c 0
 540.836 580.878 526.32 586.72 518.41 588.792 c 0
 499.374 593.692 468.276 595.012 450.934 591.618 c 2
 450.936 591.618 l 1
515.774 549.02 m 1
 542.726 539.408 567.226 517.356 580.038 491.156 c 0
 610.386 428.774 576.272 355.268 507.476 334.914 c 0
 492.212 330.39 464.13 330.39 449.238 334.914 c 0
 410.036 346.6 379.314 379.212 370.08 418.976 c 0
 356.51 476.648 391.944 535.452 450.18 551.85 c 0
 465.262 555.996 499.94 554.49 515.776 549.022 c 1
 515.774 549.02 l 1
839.196 591.618 m 1
 781.334 580.118 740.058 543.18 722.532 487.202 c 0
 718.192 473.066 717.63 468.544 717.63 441.968 c 0
 717.63 411.058 719.326 402.2 728.564 380.904 c 0
 745.338 342.642 780.77 312.11 824.118 298.352 c 0
 844.094 291.942 879.152 290.998 900.824 296.28 c 0
 989.41 317.386 1039.73 407.29 1010.708 492.67 c 0
 994.688 539.602 956.992 574.848 907.992 588.604 c 0
 889.708 593.694 857.29 595.202 839.194 591.622 c 1
 839.196 591.618 l 1
894.606 551.848 m 1
 924.008 544.872 953.79 521.312 967.168 494.362 c 0
 976.406 475.514 979.61 462.696 979.61 443.472 c 0
 979.61 414.636 970.184 389.944 951.154 369.212 c 0
 936.826 353.756 922.502 344.336 902.334 337.172 c 0
 888.768 332.46 883.486 331.71 867.472 331.518 c 0
 835.616 331.518 812.624 340.944 790.194 363.372 c 0
 775.874 377.506 765.69 394.848 759.85 414.256 c 0
 754.76 431.034 755.326 461.19 760.796 477.4 c 0
 773.422 513.588 801.502 540.916 837.312 551.094 c 0
 851.636 555.238 878.59 555.618 894.61 551.848 c 2
 894.606 551.848 l 1
668.25 585.208 m 1
 649.778 584.646 l 1
 649.778 447.622 l 2
 649.778 297.03 649.97 300.422 638.282 277.238 c 0
 634.888 270.644 626.974 259.9 620.38 252.926 c 0
 613.782 246.142 608.314 239.924 608.314 239.168 c 0
 608.314 236.908 630.93 206 632.44 206.186 c 0
 636.588 206.374 665.802 247.648 675.038 266.122 c 0
 688.23 292.512 687.48 282.142 687.1 441.592 c 2
 686.538 585.776 l 1
 668.254 585.208 l 1
 668.25 585.208 l 1
EndSplineSet
Validated: 41
EndChar

StartChar: uniE61D
Encoding: 31 58909 31
Width: 1024
LayerCount: 2
Fore
SplineSet
124.278 573.472 m 1
 124.278 531.5 l 1
 121.154 532.092 l 2
 101.896 535.468 81.376 534.116 63.894 528.292 c 0
 25.214 515.37 3.51 481.086 5.454 435.902 c 0
 6.384 415.634 10.438 401.7 19.22 388.526 c 0
 31.718 369.692 51.988 358.462 81.63 353.818 c 0
 103.416 350.356 147.754 352.804 177.736 359.136 c 2
 180.014 359.646 l 1
 180.014 615.362 l 1
 124.276 615.362 l 1
 124.276 573.474 l 1
 124.278 573.472 l 1
120.312 487.838 m 2
 124.28 486.826 l 1
 124.28 397.73 l 1
 118.62 397.222 l 2
 96.58 395.112 82.056 398.832 72.764 409.048 c 0
 65.504 416.986 61.786 428.304 61.786 442.236 c 0
 61.786 466.894 73.522 483.616 94.214 488.346 c 0
 100.21 489.694 114.23 489.442 120.312 487.838 c 2
212.952 587.072 m 1
 212.952 558.778 l 1
 268.69 558.778 l 1
 268.522 586.898 l 1
 268.272 614.94 l 1
 240.654 615.19 l 1
 212.954 615.358 l 1
 212.954 587.07 l 1
 212.952 587.072 l 1
364.12 533.778 m 1
 344.442 532.342 323.836 527.278 306.524 519.674 c 2
 301.628 517.478 l 1
 301.628 496.198 l 2
 301.628 479.56 301.88 475.084 302.724 475.422 c 0
 332.536 488.176 347.314 491.724 368.09 491.132 c 0
 376.872 490.878 378.732 490.54 380.756 489.022 c 0
 384.812 486.066 386.074 482.434 386.074 473.734 c 0
 386.074 469.428 385.908 465.88 385.654 465.88 c 0
 383.206 465.88 366.738 463.77 358.882 462.416 c 0
 318.43 455.662 297.486 441.81 291.91 418.424 c 0
 290.306 411.412 290.306 394.524 291.91 387.514 c 0
 294.614 376.196 300.356 367.75 309.478 361.922 c 0
 328.396 349.68 356.938 348.412 431.51 356.602 c 2
 436.748 357.194 l 1
 436.748 420.618 l 2
 436.748 455.496 436.322 487.502 435.902 491.724 c 0
 433.366 515.454 422.052 527.36 397.306 532.092 c 0
 390.378 533.36 372.054 534.288 364.116 533.78 c 1
 364.12 533.778 l 1
388.612 411.074 m 1
 388.612 392.578 l 1
 381.262 391.48 l 2
 369.776 389.792 354.408 389.96 349.596 391.818 c 0
 340.81 395.198 337.348 405.08 341.826 413.692 c 0
 344.274 418.424 350.27 422.306 359.222 424.928 c 0
 363.616 426.192 382.446 429.314 386.752 429.486 c 2
 388.61 429.572 l 1
 388.61 411.076 l 1
 388.612 411.074 l 1
538.094 533.696 m 1
 518.076 532.85 488.182 528.04 466.984 522.38 c 2
 463.776 521.534 l 1
 463.776 354.404 l 1
 519.514 354.404 l 1
 519.684 420.11 l 1
 519.94 485.726 l 1
 525.846 487.332 l 2
 530.072 488.43 534.966 488.936 543.16 489.02 c 0
 553.468 489.104 554.986 488.936 559.04 487.078 c 0
 564.526 484.63 567.992 480.744 569.934 475.002 c 0
 571.284 470.95 571.454 465.29 571.704 412.514 c 2
 571.958 354.408 l 1
 626.852 354.408 l 1
 626.514 420.452 l 2
 626.266 479.818 626.092 487.168 624.828 491.98 c 0
 622.294 501.524 618.49 507.942 611.568 514.952 c 0
 600.756 525.846 586.232 531.506 564.02 533.362 c 0
 553.716 534.206 550.762 534.29 538.094 533.698 c 1
 538.094 533.696 l 1
909.172 533.02 m 1
 876.664 527.108 853.35 507.6 843.556 477.872 c 0
 838.912 463.938 837.644 454.058 838.15 436.41 c 0
 838.494 425.852 839.08 419.434 840.264 414.28 c 0
 847.19 384.808 865.516 364.12 892.874 354.832 c 0
 916.268 346.808 948.53 348.156 969.81 358.04 c 0
 997.006 370.534 1013.642 395.028 1017.694 428.304 c 0
 1022.424 466.808 1009.67 501.602 984.674 518.83 c 0
 973.784 526.348 965.084 529.894 950.81 532.68 c 0
 941.012 534.624 918.718 534.792 909.174 533.02 c 2
 909.172 533.02 l 1
940.25 487.838 m 1
 949.206 484.544 955.956 475.848 959.676 462.926 c 0
 961.364 457.098 961.622 454.228 961.622 442.236 c 0
 961.622 430.328 961.366 427.374 959.676 421.716 c 0
 955.956 408.71 950.302 401.11 941.098 396.804 c 0
 936.958 394.862 935.182 394.526 928.26 394.526 c 0
 921.42 394.526 919.562 394.864 915.592 396.722 c 0
 906.472 400.948 900.986 407.784 897.184 419.27 c 0
 894.314 428.054 893.55 448.402 895.664 458.79 c 0
 898.198 470.87 903.26 479.65 910.948 484.886 c 0
 919.14 490.544 930.118 491.644 940.25 487.842 c 1
 940.25 487.838 l 1
750.488 532.936 m 1
 728.276 530.57 711.64 526.518 697.118 519.844 c 0
 662.488 503.968 644.502 475.084 644.502 435.48 c 0
 644.502 396.63 662.24 368.51 693.488 357.614 c 0
 711.222 351.452 735.122 351.198 752.008 357.026 c 0
 756.148 358.46 759.61 359.472 759.778 359.304 c 0
 760.458 358.628 758.512 342.668 757.162 338.356 c 0
 752.854 323.918 744.238 315.722 728.956 311.588 c 0
 721.102 309.39 694.414 309.39 684.198 311.588 c 0
 675.246 313.444 662.828 317.498 654.89 321.132 c 2
 648.724 323.92 l 1
 648.724 272.74 l 1
 658.69 269.698 l 2
 675.58 264.546 689.854 262.352 708.098 262.352 c 0
 749.732 262.27 779.372 275.104 796.768 300.696 c 0
 804.538 312.18 809.522 326.788 811.888 345.368 c 0
 813.066 354.83 813.322 452.45 812.226 475.08 c 2
 811.634 487.162 l 1
 818.138 486.908 l 1
 824.724 486.568 l 1
 833.93 505.822 l 2
 838.996 516.38 842.968 525.248 842.796 525.5 c 0
 842.038 526.176 825.232 529.216 812.228 530.988 c 0
 802.766 532.258 793.562 532.762 776.67 533.016 c 0
 764.172 533.1 752.352 533.1 750.49 532.932 c 2
 750.488 532.936 l 1
758.85 475.846 m 1
 759.104 468.246 759.528 448.316 759.778 431.512 c 2
 760.286 400.946 l 1
 757.078 400.094 l 2
 744.582 396.718 732.25 396.718 723.636 399.926 c 0
 709.282 405.416 702.016 417.744 701.256 437.758 c 0
 700.666 454.478 703.876 465.206 712.236 473.988 c 0
 721.442 483.702 735.626 488.936 753.956 489.442 c 2
 758.35 489.526 l 1
 758.856 475.846 l 1
 758.85 475.846 l 1
212.952 465.712 m 1
 212.952 370.03 211.77 357.532 201.38 337.266 c 0
 194.88 324.596 182.888 314.04 164.902 305.002 c 0
 160.34 302.722 158.904 301.708 159.834 301.204 c 0
 160.51 300.782 172.08 295.292 185.51 288.958 c 2
 210 277.386 l 1
 215.152 280.006 l 2
 247.922 296.982 262.784 320.708 267.008 363.276 c 0
 267.598 368.848 268.19 403.728 268.442 451.354 c 2
 268.95 530.066 l 1
 212.958 530.066 l 1
 212.958 465.712 l 1
 212.952 465.712 l 1
EndSplineSet
Validated: 41
EndChar

StartChar: uniE61E
Encoding: 32 58910 32
Width: 1024
LayerCount: 2
Fore
SplineSet
10.238 467.014 m 1
 10.238 299.088 l 1
 289.774 299.088 l 1
 289.774 242.778 l 1
 513.004 242.778 l 1
 513.004 299.088 l 1
 1013.76 299.088 l 1
 1013.76 634.938 l 1
 10.236 634.938 l 1
 10.236 467.014 l 1
 10.238 467.014 l 1
289.774 467.014 m 1
 289.774 355.398 l 1
 233.466 355.398 l 1
 233.466 522.318 l 1
 179.168 522.318 l 1
 179.168 355.398 l 1
 64.536 355.398 l 1
 64.536 578.628 l 1
 289.776 578.628 l 1
 289.776 467.014 l 1
 289.774 467.014 l 1
568.914 466.81 m 1
 568.31 355.194 l 1
 458.704 355.594 l 1
 458.704 299.086 l 1
 344.074 299.086 l 1
 344.074 578.624 l 1
 569.314 578.624 l 1
 568.914 466.808 l 1
 568.914 466.81 l 1
959.462 467.014 m 1
 959.462 355.398 l 1
 903.148 355.398 l 1
 903.148 522.318 l 1
 846.836 522.318 l 1
 846.836 354.39 l 1
 790.528 355.596 l 1
 790.528 522.318 l 1
 736.23 522.318 l 1
 736.23 355.398 l 1
 623.61 355.398 l 1
 623.61 578.628 l 1
 959.462 578.628 l 1
 959.462 467.014 l 1
458.704 467.014 m 1
 458.704 411.706 l 1
 510.992 411.706 l 1
 510.992 522.316 l 1
 458.704 522.316 l 1
 458.704 467.014 l 1
EndSplineSet
Validated: 5
EndChar

StartChar: uniE61F
Encoding: 33 58911 33
Width: 1024
LayerCount: 2
Fore
SplineSet
448.186 595.176 m 1
 433.55 593.024 l 1
 433.55 354.56 l 1
 472.288 354.56 l 1
 472.288 474.652 l 1
 478.96 480.248 l 2
 482.622 483.476 488.646 487.564 492.306 489.502 c 0
 501.78 494.234 519.64 494.234 526.954 489.286 c 0
 538.146 482.182 539.008 476.156 539.008 412.668 c 2
 539.008 354.558 l 1
 579.898 354.558 l 1
 579.898 412.236 l 2
 579.898 474.65 578.176 487.562 568.278 502.198 c 0
 551.278 527.378 511.244 531.898 483.48 511.67 c 0
 478.532 508.228 474.008 505.214 473.366 505.214 c 0
 472.932 505.214 472.074 525.874 471.858 551.056 c 0
 471.212 603.354 473.58 598.834 448.184 595.176 c 2
 448.186 595.176 l 1
948.364 569.996 m 2
 943.198 569.136 938.248 567.198 937.384 565.69 c 0
 936.308 564.184 934.37 554.714 933.082 544.384 c 0
 929.424 518.342 929.206 518.124 922.106 518.124 c 0
 909.626 518.124 905.532 514.898 901.872 502.414 c 0
 899.94 495.958 898.43 489.93 898.43 489.284 c 0
 898.43 488.638 905.32 487.992 913.496 487.992 c 2
 928.56 487.992 l 1
 928.56 441.72 l 2
 928.56 416.324 929.636 390.718 930.926 384.474 c 0
 936.954 356.494 970.742 344.44 1003.24 358.864 c 2
 1012.282 362.95 l 1
 1009.052 374.36 l 2
 1007.114 380.598 1005.178 386.196 1004.744 386.628 c 0
 1004.316 387.272 998.716 386.412 992.692 384.902 c 0
 982.572 382.752 980.854 382.752 975.904 386.412 c 2
 970.528 390.504 l 1
 969.882 439.352 l 1
 969.446 487.994 l 1
 1008.188 487.994 l 1
 1008.188 520.278 l 1
 969.664 520.278 l 1
 969.018 545.674 l 2
 968.374 574.298 969.018 573.438 948.36 569.994 c 1
 948.364 569.996 l 2
11.718 508.444 m 1
 11.718 492.3 l 1
 112.872 492.3 l 1
 112.872 524.584 l 1
 11.718 524.584 l 1
 11.718 508.442 l 1
 11.718 508.444 l 1
149.456 508.444 m 1
 149.456 492.3 l 1
 181.74 492.3 l 1
 181.74 524.584 l 1
 149.456 524.584 l 1
 149.456 508.442 l 1
 149.456 508.444 l 1
309.584 522.216 m 1
 304.85 521.14 295.596 517.05 289.138 513.178 c 0
 279.886 507.798 276.44 503.706 271.276 493.808 c 0
 259.224 470.346 263.958 438.282 281.822 424.078 c 2
 288.71 418.482 l 1
 280.746 410.52 l 2
 270.844 400.622 268.048 389 272.998 377.594 c 0
 274.722 373.29 277.948 368.768 280.1 367.262 c 0
 283.974 364.892 283.328 364.036 272.998 353.484 c 0
 260.514 341.004 257.716 333.254 260.082 317.114 c 0
 262.236 303.774 273.212 291.504 288.924 285.48 c 0
 299.256 281.388 305.496 280.528 327.018 280.528 c 0
 383.838 280.316 416.122 302.052 416.336 340.788 c 0
 416.336 356.932 410.954 366.188 397.18 373.072 c 0
 385.346 378.884 378.028 380.176 340.364 382.544 c 0
 323.578 383.616 309.158 385.556 307.436 387.062 c 0
 305.714 388.354 304.422 392.228 304.422 395.456 c 0
 304.422 405.57 309.588 407.726 334.552 408.798 c 0
 367.268 410.09 384.484 418.698 395.46 439.576 c 0
 399.118 446.46 399.98 451.626 399.762 465.4 c 0
 399.548 474.87 399.118 484.986 398.688 487.998 c 0
 398.044 492.734 399.118 493.594 407.296 495.532 c 2
 416.55 497.47 l 1
 415.904 510.382 l 2
 415.046 526.74 412.676 527.602 393.522 518.13 c 0
 381.04 512.104 379.534 511.674 375.012 514.686 c 0
 362.098 523.08 330.034 526.738 309.584 522.22 c 1
 309.584 522.216 l 1
348.108 493.592 m 1
 359.514 488.858 363.39 482.83 364.25 467.55 c 0
 365.112 454.638 364.896 453.778 357.58 445.814 c 0
 350.476 438.066 349.402 437.636 335.412 436.776 c 0
 317.764 435.912 308.08 440.648 303.13 452.486 c 0
 291.292 481.11 318.41 506.292 348.11 493.592 c 1
 348.108 493.592 l 1
372.214 349.392 m 1
 387.71 342.722 383.19 323.786 363.606 313.67 c 0
 354.566 309.15 350.046 308.29 333.474 308.29 c 0
 310.662 308.29 301.406 312.164 296.888 323.138 c 0
 293.016 332.394 296.026 344.018 303.99 350.474 c 0
 309.586 354.776 311.308 354.994 337.348 353.7 c 0
 353.276 353.056 367.91 351.12 372.214 349.396 c 1
 372.214 349.392 l 1
653.078 521.14 m 0
 617.348 511.67 596.906 481.54 596.906 438.494 c 0
 596.906 415.252 601.21 399.546 612.184 383.614 c 0
 639.732 343.586 713.982 342.51 744.116 381.678 c 0
 766.064 410.304 766.928 462.386 745.838 493.164 c 0
 728.19 518.772 688.804 530.61 653.078 521.14 c 0
691.602 492.3 m 1
 709.896 487.134 719.794 468.194 719.794 438.492 c 0
 719.794 429.454 718.286 417.188 716.564 411.378 c 0
 705.592 374.36 653.934 373.284 641.454 409.87 c 0
 636.934 422.996 636.934 453.99 641.234 466.902 c 0
 648.556 488.208 669.43 498.754 691.6 492.296 c 1
 691.602 492.3 l 1
814.492 521.354 m 1
 788.666 514.038 775.322 497.896 775.322 474.438 c 0
 775.322 448.18 786.3 436.346 820.738 425.584 c 0
 844.624 418.054 852.372 413.746 855.598 405.566 c 0
 859.26 396.956 854.738 388.996 844.622 385.336 c 0
 835.8 382.11 812.768 383.398 797.706 388.13 c 0
 781.562 392.864 780.49 392.65 776.612 378.878 c 0
 773.166 367.258 773.166 366.608 777.042 363.814 c 0
 791.03 353.694 836.014 350.036 857.32 357.572 c 0
 879.704 365.32 893.908 384.044 894.122 405.564 c 0
 894.122 430.746 883.362 441.936 847.852 453.56 c 0
 839.672 456.358 829.126 460.232 824.822 462.384 c 0
 811.696 469.056 808.678 479.386 817.292 487.78 c 0
 824.61 494.452 840.32 495.744 860.552 491.222 c 0
 869.808 489.284 878.418 487.992 879.706 488.638 c 0
 881.212 489.284 883.796 494.664 885.302 500.908 c 0
 888.104 511.454 887.884 512.53 884.226 515.328 c 0
 873.252 523.29 833.866 526.734 814.494 521.352 c 1
 814.492 521.354 l 1
11.718 439.574 m 1
 11.718 423.432 l 1
 181.744 423.432 l 1
 181.744 455.714 l 1
 11.718 455.714 l 1
 11.718 439.574 l 1
11.718 371.776 m 1
 11.718 356.712 l 1
 78.436 356.712 l 1
 78.436 386.846 l 1
 11.718 386.846 l 1
 11.718 371.778 l 1
 11.718 371.776 l 1
115.022 371.776 m 1
 115.022 356.712 l 1
 181.74 356.712 l 1
 181.74 386.846 l 1
 115.022 386.846 l 1
 115.022 371.778 l 1
 115.022 371.776 l 1
EndSplineSet
Validated: 41
EndChar

StartChar: uniE620
Encoding: 34 58912 34
Width: 1024
LayerCount: 2
Fore
SplineSet
10.27 198.024 m 1
 10.27 358.584 l 1
 170.82 358.584 l 1
 170.82 519.14 l 1
 331.374 519.14 l 1
 331.374 679.692 l 1
 491.93 679.692 l 1
 491.93 198.024 l 1
 10.27 198.024 l 1
532.068 679.692 m 1
 798.088 679.692 1013.73 464.042 1013.73 198.04 c 1
 532.068 198.04 l 1
 532.068 679.692 l 1
EndSplineSet
Validated: 1
EndChar

StartChar: uniE621
Encoding: 35 58913 35
Width: 1024
LayerCount: 2
Fore
SplineSet
713.826 787.98 m 1
 674.6 777.992 609.702 762.304 569.764 751.6 c 2
 496.31 733.062 l 1
 474.916 695.266 l 1
 453.524 656.754 l 1
 364.376 656.754 l 1
 150.428 442.806 l 1
 364.376 228.864 l 1
 452.092 228.864 l 1
 474.202 190.352 l 2
 486.33 168.95 501.304 149.706 508.434 147.554 c 0
 520.56 143.996 612.55 119.026 735.218 86.226 c 0
 765.88 78.38 791.552 72.674 792.276 73.39 c 0
 793.7 74.814 804.396 112.62 816.516 157.536 c 0
 828.642 202.47 846.472 268.08 855.742 303.032 c 2
 872.852 365.782 l 1
 852.178 401.448 l 2
 840.764 420.7 831.494 439.236 831.494 442.804 c 0
 831.494 446.378 840.764 465.63 852.888 484.89 c 2
 873.568 520.536 l 1
 858.592 572.606 l 2
 829.352 676.714 802.966 761.592 794.408 782.986 c 2
 785.138 804.382 l 1
 713.822 787.978 l 1
 713.826 787.98 l 1
680.302 692.42 m 2
 678.884 689.556 651.072 639.636 617.548 582.588 c 2
 556.928 478.472 l 1
 429.274 478.472 l 2
 358.676 478.472 303.046 479.894 304.472 482.03 c 0
 306.61 483.466 342.984 521.968 384.344 566.898 c 0
 448.53 635.362 465.646 648.918 487.752 653.19 c 0
 502.016 655.334 546.234 666.748 585.452 677.44 c 0
 663.9 698.838 683.868 701.69 680.3 692.422 c 1
 680.302 692.42 l 2
759.466 633.934 m 2
 763.03 621.096 776.582 572.608 789.418 526.252 c 2
 812.236 441.384 l 1
 792.274 369.354 l 2
 781.572 329.418 768.022 279.494 762.316 258.81 c 0
 756.61 237.424 748.768 223.152 745.918 226.718 c 0
 743.062 229.568 713.824 278.07 681.732 334.406 c 0
 642.506 402.872 624.678 439.944 628.246 448.506 c 0
 636.804 472.04 742.348 656.05 747.342 656.752 c 0
 749.482 656.752 755.188 646.06 759.466 633.932 c 1
 759.466 633.934 l 2
587.598 350.098 m 1
 663.19 223.154 683.868 185.356 680.3 182.508 c 0
 678.882 181.084 628.958 192.492 569.766 207.464 c 2
 462.078 235.988 l 1
 384.344 315.146 l 2
 342.27 358.66 305.894 397.16 305.188 400.728 c 0
 303.756 405.016 351.544 406.44 429.274 405.724 c 2
 556.216 403.58 l 1
 587.6 350.096 l 1
 587.598 350.098 l 1
EndSplineSet
Validated: 41
EndChar

StartChar: uniE622
Encoding: 36 58914 36
Width: 1024
LayerCount: 2
Fore
SplineSet
780.088 476.91 m 1
 774.23 487.346 l 1
 774.462 562.314 740.2 592.868 700.252 616.096 c 1
 712.334 619.328 724.82 621.992 728.242 637.408 c 1
 749.016 642.802 753.362 652.568 755.446 662.906 c 1
 760.874 666.588 779.062 676.912 777.154 694.662 c 1
 787.336 701.796 793.01 710.954 790.126 723.922 c 1
 801.064 736.036 803.94 746.048 799.296 755.278 c 1
 812.426 771.84 806.602 780.424 801 789.118 c 1
 810.832 807.228 802.158 826.652 774.652 823.398 c 1
 763.72 839.718 739.872 836.008 736.184 835.934 c 0
 732.06 841.17 726.61 845.658 709.854 843.484 c 1
 698.996 853.31 686.862 851.634 674.34 846.808 c 1
 659.478 858.536 649.638 849.136 638.4 845.58 c 1
 620.404 851.462 616.286 843.406 607.446 840.126 c 1
 587.818 844.272 581.85 835.24 572.442 825.71 c 1
 561.496 825.93 l 1
 531.89 808.482 517.186 772.958 511.972 754.694 c 1
 506.758 772.958 492.084 808.486 462.482 825.93 c 1
 451.536 825.71 l 1
 442.116 835.24 436.154 844.272 416.526 840.126 c 1
 407.68 843.406 403.572 851.462 385.568 845.58 c 1
 378.192 847.914 371.412 852.766 363.426 852.514 c 2
 363.438 852.512 l 2
 359.258 852.384 354.75 850.838 349.638 846.806 c 1
 337.122 851.632 324.984 853.31 314.13 843.482 c 1
 297.368 845.656 291.92 841.168 287.796 835.932 c 0
 284.12 836.01 260.262 839.714 249.324 823.398 c 1
 221.834 826.648 213.148 807.23 222.99 789.118 c 1
 217.376 780.424 211.56 771.834 224.692 755.27 c 1
 220.044 746.044 222.926 736.028 233.862 723.914 c 1
 230.978 710.944 236.654 701.79 246.834 694.652 c 1
 244.926 676.902 263.112 666.578 268.542 662.902 c 1
 270.626 652.556 274.974 642.798 295.746 637.398 c 1
 299.168 621.982 311.65 619.322 323.74 616.086 c 1
 283.788 592.864 249.526 562.308 249.76 487.334 c 1
 243.908 476.9 l 1
 198.1 449.042 156.882 359.504 221.33 286.728 c 1
 225.538 263.944 232.604 247.584 238.886 229.472 c 0
 248.29 156.5 309.65 122.326 325.836 118.284 c 1
 349.554 100.222 374.81 83.08 408.992 71.07 c 1
 441.212 37.838 476.12 25.174 511.22 25.196 c 0
 511.736 25.196 512.258 25.192 512.778 25.196 c 0
 547.872 25.172 582.778 37.836 615.002 71.07 c 1
 649.184 83.082 674.442 100.222 698.158 118.284 c 1
 714.34 122.326 775.706 156.498 785.108 229.472 c 0
 791.394 247.584 798.458 263.944 802.666 286.728 c 1
 867.118 359.51 825.902 449.05 780.088 476.91 c 1
738.66 489.722 m 0
 736.272 459.52 581.27 594.874 608.028 599.366 c 0
 680.66 611.634 741.098 568.482 738.66 489.722 c 0
568.49 805.228 m 1
 569.832 798.444 571.35 794.154 573.084 792.894 c 0
 581.704 802.27 588.746 811.874 599.838 820.898 c 1
 599.876 815.596 597.2 809.848 603.81 805.638 c 1
 609.756 813.764 617.796 821.014 628.468 827.164 c 1
 623.328 818.164 627.586 815.43 630.348 811.704 c 1
 638.502 818.8 646.248 825.988 661.278 831.554 c 1
 657.168 826.472 651.428 821.512 657.518 815.674 c 1
 665.912 820.996 674.36 826.308 694.302 830.092 c 1
 689.81 825.01 680.514 819.926 686.152 814.836 c 1
 696.692 818.924 708.354 821.892 721.26 823.618 c 1
 715.082 818.458 709.926 813.402 714.99 809.406 c 1
 726.27 812.928 741.81 817.674 756.994 813.584 c 1
 747.38 803.762 l 2
 746.316 802.45 769.874 802.738 785.422 802.51 c 1
 779.744 794.504 773.964 786.782 770.584 773.042 c 0
 772.126 771.456 779.832 772.334 787.092 773.042 c 1
 779.646 757.118 766.712 753.102 763.684 746.288 c 1
 768.24 742.79 774.546 743.702 781.452 746.08 c 1
 776.094 734.864 764.842 727.178 755.956 718.076 c 1
 758.206 716.456 762.132 715.494 771.418 716.614 c 1
 763.208 707.758 753.29 699.658 741.538 692.376 c 1
 743.618 689.93 750.776 690.032 757.418 689.868 c 1
 746.772 679.286 733.064 673.802 720.212 666.878 c 1
 726.616 662.432 731.192 663.474 736.096 663.53 c 1
 727.016 655.954 711.562 652.012 697.226 647.442 c 1
 699.952 643.138 702.678 641.964 708.512 640.752 c 1
 693.332 632.224 671.592 636.126 665.46 631.77 c 1
 666.936 627.482 671.116 624.69 676.12 622.36 c 1
 651.684 620.924 584.85 623.266 572.042 674.612 c 1
 597.054 702.51 642.71 735.254 721.224 775.744 c 1
 660.13 754.988 605.012 727.316 558.874 689.238 c 1
 504.626 714.878 542.026 779.548 568.49 805.228 c 1
511.678 620.046 m 1
 511.678 620.05 l 1
 550.146 620.47 597.772 591.344 597.584 563.9 c 0
 597.418 539.682 564.132 520.074 511.976 520.45 c 0
 460.898 521.056 426.5 545.088 426.62 568.556 c 0
 426.724 587.872 468.326 621.174 511.678 620.046 c 1
317.252 640.75 m 1
 323.08 641.96 325.81 643.134 328.538 647.44 c 1
 314.196 652.01 298.75 655.952 289.666 663.528 c 1
 294.572 663.472 299.148 662.43 305.548 666.876 c 1
 292.704 673.8 278.998 679.284 268.35 689.866 c 1
 274.988 690.03 282.15 689.928 284.232 692.374 c 1
 272.476 699.658 262.556 707.756 254.346 716.612 c 1
 263.64 715.492 267.564 716.456 269.812 718.074 c 1
 260.926 727.176 249.678 734.862 244.314 746.078 c 1
 251.214 743.702 257.528 742.788 262.076 746.286 c 1
 259.058 753.1 246.118 757.116 238.674 773.04 c 1
 245.934 772.332 253.64 771.454 255.182 773.04 c 0
 251.808 786.774 246.024 794.498 240.348 802.5 c 1
 255.894 802.73 279.452 802.442 278.384 803.754 c 2
 268.772 813.576 l 1
 283.956 817.666 299.496 812.918 310.776 809.398 c 1
 315.844 813.396 310.686 818.448 304.508 823.606 c 1
 317.416 821.882 329.076 818.92 339.62 814.826 c 1
 345.25 819.916 335.962 825.002 331.466 830.082 c 1
 351.406 826.302 359.854 820.986 368.248 815.664 c 1
 374.342 821.5 368.6 826.462 364.49 831.546 c 1
 379.524 825.976 387.27 818.792 395.42 811.692 c 1
 398.184 815.422 402.444 818.154 397.302 827.154 c 1
 407.978 821.004 416.012 813.754 421.962 805.628 c 1
 428.568 809.838 425.9 815.588 425.934 820.888 c 1
 437.028 811.866 444.066 802.262 452.684 792.886 c 0
 454.422 794.15 455.938 798.43 457.282 805.216 c 1
 483.746 779.54 521.144 714.872 466.894 689.226 c 1
 420.752 727.282 365.65 754.946 304.594 775.704 c 1
 383.08 735.234 428.718 702.492 453.72 674.604 c 1
 440.914 623.258 374.082 620.916 349.644 622.352 c 1
 354.648 624.682 358.82 627.476 360.304 631.762 c 1
 354.17 636.122 332.43 632.222 317.252 640.75 c 1
407.346 601.68 m 0
 434.104 597.188 279.104 461.838 276.714 492.026 c 0
 274.274 570.78 334.706 613.944 407.346 601.68 c 0
244.61 300.088 m 1
 206.942 330.38 194.808 419.112 264.648 458.992 c 1
 306.73 470.274 278.852 284.874 244.61 300.088 c 1
391.444 141.278 m 0
 370.198 128.464 318.606 133.742 281.936 186.424 c 1
 257.206 230.628 260.39 275.608 277.758 288.822 c 0
 303.724 304.644 343.846 283.276 374.726 247.446 c 0
 401.636 215.024 413.898 158.072 391.444 141.278 c 0
349.698 334.628 m 0
 310.716 360.168 303.688 418.058 334.004 463.926 c 0
 364.318 509.804 420.494 526.29 459.474 500.748 c 0
 498.458 475.206 505.486 417.32 475.172 371.444 c 0
 444.86 325.574 388.684 309.086 349.698 334.628 c 0
511.82 50.992 m 0
 465.09 48.976 419.262 89.268 419.866 103.234 c 0
 419.166 123.712 476.764 139.702 514.324 138.766 c 0
 552.12 140.414 602.84 126.588 602.934 108.25 c 0
 603.562 90.444 556.944 50.212 511.82 50.992 c 0
607.992 252.922 m 0
 608.272 205.008 566.368 165.96 514.404 165.712 c 0
 462.446 165.46 420.106 204.094 419.834 252.006 c 0
 419.834 252.308 419.834 252.616 419.834 252.922 c 0
 419.558 300.832 461.458 339.878 513.418 340.134 c 0
 565.374 340.382 607.72 301.746 607.992 253.838 c 0
 607.996 253.532 607.996 253.224 607.992 252.922 c 0
548.998 376.068 m 0
 518.684 421.942 525.71 479.832 564.694 505.368 c 0
 603.678 530.91 659.854 514.428 690.168 468.552 c 0
 720.478 422.676 713.452 364.788 674.47 339.254 c 0
 635.486 313.712 579.312 330.198 548.998 376.068 c 0
739.546 183.878 m 0
 699.278 128.002 644.764 125.82 624.458 141.388 c 0
 603.216 161.426 619.428 223.618 648.544 257.724 c 1
 648.54 257.732 l 1
 681.854 295.35 717.476 319.914 742.286 300.716 c 0
 758.992 284.076 768.79 221.402 739.546 183.878 c 0
771.066 302.392 m 1
 736.82 287.174 708.936 472.58 751.03 461.304 c 1
 820.868 421.426 808.732 332.69 771.066 302.392 c 1
EndSplineSet
Validated: 41
EndChar

StartChar: uniE623
Encoding: 37 58915 37
Width: 1024
LayerCount: 2
Fore
SplineSet
773.668 456.514 m 0
 726.286 456.514 675.204 456.514 675.204 456.514 c 1
 702.044 581.23 l 1
 702.044 581.23 771.354 581.23 796.616 581.23 c 0
 857.974 581.23 872.498 550.934 872.498 526.958 c 0
 872.498 493.036 850.656 456.514 773.668 456.514 c 0
835.852 349.27 m 0
 835.852 315.352 814.016 278.83 737.024 278.83 c 0
 689.644 278.83 638.56 278.83 638.56 278.83 c 1
 665.4 403.636 l 1
 665.4 403.636 734.712 403.636 759.882 403.636 c 0
 821.23 403.638 835.852 373.154 835.852 349.27 c 0
544.45 568.126 m 0
 497.068 568.126 446.08 568.126 446.08 568.126 c 1
 472.914 692.84 l 1
 472.914 692.84 542.132 692.84 567.302 692.84 c 0
 628.748 692.84 643.368 662.546 643.368 638.566 c 0
 643.374 604.65 621.438 568.126 544.45 568.126 c 0
609.13 450.848 m 0
 609.13 416.924 587.294 380.402 510.302 380.402 c 0
 462.966 380.402 411.93 380.402 411.93 380.402 c 1
 438.72 505.026 l 1
 438.72 505.026 508.032 505.026 533.25 505.026 c 0
 594.606 505.026 609.13 474.822 609.13 450.848 c 0
572.578 255.316 m 0
 572.578 221.308 550.74 184.876 473.934 184.876 c 0
 426.46 184.876 375.334 184.876 375.334 184.876 c 1
 402.168 309.684 l 1
 402.168 309.684 471.482 309.684 496.744 309.684 c 0
 558.052 309.684 572.578 279.298 572.578 255.316 c 0
280.99 568.126 m 0
 233.656 568.126 182.668 568.126 182.668 568.126 c 1
 209.366 692.84 l 1
 209.366 692.84 278.678 692.84 303.942 692.84 c 0
 365.296 692.84 379.962 662.546 379.962 638.566 c 0
 379.958 604.65 357.98 568.126 280.99 568.126 c 0
345.812 450.848 m 0
 345.812 416.924 323.836 380.402 247.026 380.402 c 0
 199.508 380.402 148.426 380.402 148.426 380.402 c 1
 175.31 505.026 l 1
 175.31 505.026 244.67 505.026 269.794 505.026 c 0
 331.192 505.026 345.812 474.822 345.812 450.848 c 0
EndSplineSet
Validated: 33
EndChar

StartChar: uniE624
Encoding: 38 58916 38
Width: 1024
LayerCount: 2
Fore
SplineSet
493.75 850.37 m 2
 489.866 849.886 471.172 847.698 452.478 845.516 c 0
 402.224 839.688 359.012 825.364 327.692 804 c 0
 317.498 796.96 317.012 796.716 309.484 800.602 c 0
 298.558 806.184 269.672 807.154 255.346 802.3 c 0
 235.438 795.748 222.328 780.936 218.444 760.546 c 0
 215.532 745.248 218.688 727.286 226.698 715.39 c 0
 231.552 708.106 249.274 695.24 259.958 691.112 c 0
 260.686 690.626 259.232 675.576 256.558 657.61 c 0
 252.43 630.178 251.948 616.826 252.918 576.282 c 0
 253.646 549.576 255.832 517.288 257.772 504.664 c 0
 259.958 492.038 262.384 473.346 263.114 463.15 c 2
 264.814 444.698 l 1
 254.376 442.998 l 2
 237.864 440.57 212.618 426.978 209.946 419.454 c 0
 206.79 410.47 209.704 401.974 219.174 391.776 c 0
 228.884 381.578 234.708 381.824 250.976 392.748 c 2
 260.686 399.3 l 1
 260.686 287.624 l 2
 260.686 176.678 260.686 175.466 266.27 162.112 c 0
 273.554 143.906 288.604 121.084 303.172 105.304 c 2
 315.312 92.678 l 1
 303.172 84.908 l 2
 289.82 76.17 278.896 60.39 278.896 49.466 c 0
 278.896 44.85 281.566 40.24 287.634 34.658 c 0
 294.918 27.614 298.074 26.402 308.028 26.402 c 0
 318.71 26.402 321.38 27.614 332.79 37.326 c 0
 339.828 43.396 350.27 50.68 355.852 53.594 c 2
 366.292 58.936 l 1
 388.626 51.408 l 2
 426.496 38.542 449.562 35.14 498.602 35.384 c 0
 560.75 35.628 612.218 44.61 650.092 61.846 c 0
 657.13 65.002 664.9 67.672 666.84 67.672 c 0
 669.028 67.672 679.224 58.688 689.662 48.008 c 0
 708.354 28.342 708.598 28.102 718.552 29.556 c 0
 732.878 31.498 742.59 41.454 742.59 53.834 c 0
 742.59 67.188 736.762 78.112 722.68 90.738 c 2
 710.786 101.42 l 1
 722.192 116.714 l 2
 743.802 146.09 756.182 178.378 764.678 227.42 c 0
 769.534 256.796 770.504 312.876 767.35 375.51 c 0
 766.378 391.776 765.894 405.13 765.894 405.13 c 2
 766.138 405.13 771.234 402.46 776.818 399.06 c 0
 790.902 391.05 799.396 391.29 807.164 399.546 c 0
 814.208 407.07 816.148 413.384 814.934 424.794 c 0
 813.962 435.232 804.496 441.784 782.16 447.854 c 0
 773.178 450.042 765.168 452.468 764.438 453.196 c 0
 763.708 453.682 762.496 497.382 761.524 550.304 c 0
 759.826 649.354 759.826 650.814 748.172 700.824 c 0
 747.446 703.98 747.93 706.166 749.87 706.166 c 0
 755.938 706.166 774.388 721.46 779.974 731.172 c 0
 791.868 751.08 790.412 776.57 776.334 795.992 c 0
 761.766 816.142 730.208 823.182 700.344 813.228 c 2
 685.05 808.13 l 1
 672.67 816.142 l 2
 655.432 827.794 626.3 839.45 600.566 845.034 c 0
 579.446 849.644 511.714 853.044 493.748 850.376 c 1
 493.75 850.37 l 2
587.456 838.474 m 1
 667.332 824.636 710.3 787.248 735.548 710.29 c 0
 750.6 664.406 752.542 644.256 754.728 513.16 c 0
 755.94 447.852 758.128 371.868 759.584 344.436 c 0
 761.04 317.004 761.526 283.744 760.796 270.388 c 0
 757.642 222.076 746.958 177.408 731.422 147.788 c 0
 720.98 127.882 700.83 102.636 693.548 100.45 c 0
 690.392 99.478 683.596 94.62 678.254 89.524 c 0
 650.334 63.062 589.884 46.794 510.74 44.124 c 0
 462.428 42.668 434.024 46.066 396.394 57.964 c 0
 375.274 64.762 371.144 67.19 361.434 77.142 c 0
 349.294 90.012 338.128 96.808 328.902 96.808 c 0
 316.764 96.808 284.234 139.052 274.036 167.698 c 0
 266.752 188.332 265.538 240.044 269.18 357.79 c 2
 272.334 460.722 l 1
 266.51 506.362 l 2
 251.214 626.29 266.266 719.516 310.21 774.138 c 0
 329.63 798.174 359.734 815.652 403.434 828.034 c 0
 446.406 840.174 545.456 845.998 587.454 838.472 c 1
 587.456 838.474 l 1
754.972 803.03 m 1
 785.562 787.492 787.016 739.18 757.644 720.486 c 0
 751.576 716.6 745.992 713.444 745.26 713.444 c 0
 744.288 713.444 741.376 720.242 738.462 728.252 c 2
 732.88 743.304 l 1
 739.192 750.588 l 2
 743.806 755.93 745.018 759.57 743.806 764.184 c 0
 740.892 775.838 734.336 779.236 720.742 776.078 c 0
 715.646 774.864 713.218 776.564 704.234 787.974 c 0
 698.408 795.258 694.036 801.568 694.522 802.296 c 0
 695.008 802.782 701.56 804.724 708.846 806.908 c 0
 724.624 811.278 741.864 809.822 754.972 803.026 c 1
 754.972 803.03 l 1
295.648 795.748 m 1
 302.446 794.29 308.516 792.104 309.242 791.134 c 0
 309.97 789.922 305.842 782.88 300.258 775.596 c 0
 290.306 762.73 289.334 762.244 281.08 763.456 c 0
 273.554 764.67 271.612 763.942 267.242 758.358 c 0
 260.444 749.62 260.444 744.52 267.728 736.266 c 2
 273.312 729.468 l 1
 268.698 715.388 l 2
 266.03 707.616 262.63 701.306 261.174 701.306 c 0
 256.318 701.306 240.778 711.744 235.684 718.3 c 0
 215.048 745.49 228.402 786.034 261.174 795.014 c 0
 275.982 798.898 280.596 799.142 295.648 795.744 c 1
 295.648 795.748 l 1
789.688 440.814 m 1
 806.44 434.502 814.45 425.762 812.022 416.294 c 2
 810.566 410.226 l 1
 802.31 415.082 l 2
 797.454 417.994 793.33 418.966 792.598 417.51 c 0
 791.628 416.294 793.084 414.598 795.758 413.626 c 0
 803.524 411.198 806.922 405.858 803.282 401.486 c 0
 798.426 395.66 787.988 397.116 775.848 405.37 c 2
 764.438 412.894 l 1
 764.438 429.646 l 2
 764.438 445.422 764.68 446.394 770.022 446.152 c 0
 772.936 446.152 781.918 443.724 789.686 440.81 c 1
 789.688 440.814 l 1
264.33 431.348 m 0
 264.33 411.684 261.662 405.128 250.976 397.846 c 0
 236.168 387.648 229.612 386.434 222.814 393.23 c 0
 217.716 398.33 217.472 398.816 221.602 401.244 c 0
 231.554 407.314 233.496 409.256 231.068 410.714 c 0
 229.612 411.686 225.726 409.984 222.086 407.316 c 0
 216.748 403.186 215.532 402.942 214.32 406.1 c 0
 209.948 417.51 218.446 426.976 240.294 434.502 c 0
 260.202 441.3 264.33 440.814 264.33 431.348 c 0
717.586 89.766 m 2
 730.452 80.3 741.62 58.692 738.462 49.228 c 0
 735.066 39.03 732.15 39.998 725.596 53.838 c 0
 722.196 60.636 718.312 66.708 716.858 66.948 c 0
 715.4 67.434 717.34 61.364 721.468 53.352 c 0
 725.354 45.342 727.78 37.818 726.808 36.358 c 0
 726.082 34.902 721.712 33.69 717.1 33.69 c 0
 710.302 33.69 706.902 36.116 694.036 50.682 c 0
 686.026 59.908 677.044 68.162 674.374 68.888 c 0
 667.09 71.316 668.788 75.93 680.686 86.854 c 0
 694.282 99.234 703.506 99.962 717.588 89.764 c 2
 717.586 89.766 l 2
341.774 88.31 m 1
 345.658 86.368 352.7 80.054 357.554 74.472 c 2
 366.534 64.274 l 1
 357.068 59.904 l 2
 351.968 57.476 341.288 49.952 333.278 43.154 c 0
 317.012 29.316 310.944 27.13 300.746 31.258 c 0
 294.436 33.928 293.948 34.658 296.132 40.484 c 0
 297.59 44.124 301.474 50.68 304.872 55.05 c 0
 308.268 59.416 310.456 63.79 309.728 64.516 c 0
 307.788 66.214 296.618 53.348 293.22 45.338 c 0
 289.82 36.84 286.664 36.598 284.722 44.608 c 0
 281.322 58.446 291.032 73.01 311.426 84.666 c 0
 325.262 92.678 331.818 93.65 341.772 88.306 c 1
 341.774 88.31 l 1
581.634 808.126 m 0
 557.114 801.814 535.75 784.334 525.796 762.242 c 0
 518.268 745.978 518.754 718.788 526.526 702.52 c 0
 534.782 685.526 552.502 668.774 569.498 662.462 c 0
 588.432 655.42 619.506 656.394 635.772 664.65 c 0
 662.72 678.486 675.102 697.424 676.556 728.498 c 0
 677.528 746.948 676.802 750.834 671.7 762.484 c 0
 663.204 780.934 652.28 792.346 635.042 800.842 c 0
 618.292 808.854 596.928 811.766 581.634 808.126 c 0
629.216 798.902 m 1
 670.246 780.694 685.782 730.198 662.236 692.81 c 0
 639.898 657.608 582.362 651.052 549.588 679.942 c 0
 521.428 704.706 516.572 742.336 537.448 772.924 c 0
 557.356 802.056 596.928 813.222 629.214 798.9 c 1
 629.216 798.902 l 1
540.602 745.248 m 1
 520.938 727.77 540.116 696.694 566.336 703.978 c 0
 576.048 706.65 584.784 717.816 584.784 727.526 c 0
 584.784 749.62 557.596 760.544 540.6 745.248 c 1
 540.602 745.248 l 1
383.288 798.658 m 0
 363.866 792.59 344.686 776.566 335.22 758.6 c 0
 329.636 748.162 328.664 743.066 328.664 725.584 c 0
 328.664 708.59 329.636 702.762 334.49 693.05 c 0
 357.552 646.196 419.944 634.302 458.548 669.018 c 0
 477.24 685.768 484.038 700.332 484.038 724.37 c 0
 484.038 740.878 483.064 745.976 477.24 757.63 c 0
 463.888 784.82 436.94 801.086 405.622 800.602 c 0
 396.64 800.602 386.686 799.63 383.288 798.658 c 0
442.04 787.978 m 0
 495.206 756.904 492.294 686.502 436.698 659.31 c 0
 419.702 651.054 391.542 651.782 373.09 660.766 c 0
 317.982 687.956 318.71 763.702 374.548 790.406 c 0
 385.474 795.502 389.598 796.232 408.778 795.502 c 0
 427.472 794.776 432.568 793.56 442.04 787.978 c 0
357.798 745.734 m 1
 350.514 744.036 340.318 733.354 338.862 726.07 c 0
 337.162 717.572 342.258 705.434 349.542 700.334 c 0
 352.7 698.152 359.74 696.452 365.324 696.452 c 0
 393.486 696.452 400.526 733.108 374.55 744.034 c 0
 366.054 747.674 365.81 747.674 357.798 745.732 c 1
 357.798 745.734 l 1
494.476 679.7 m 1
 481.852 677.03 473.114 670.72 471.414 662.222 c 0
 470.686 657.608 467.532 653.724 463.404 651.54 c 0
 448.108 643.528 440.098 626.534 445.438 612.694 c 0
 447.624 607.598 459.034 601.77 467.772 601.77 c 2
 474.812 601.77 l 1
 472.626 589.144 l 2
 469.956 573.122 471.898 561.712 478.21 555.4 c 0
 484.522 549.088 493.262 549.572 501.272 556.614 c 2
 508.07 562.198 l 1
 512.196 557.342 l 2
 517.296 550.786 532.104 550.786 539.144 557.342 c 0
 543.514 561.226 544 563.898 543.028 581.862 c 2
 542.058 601.77 l 1
 549.582 601.77 l 2
 577.26 601.77 576.774 637.944 548.852 651.54 c 0
 542.058 654.694 538.656 657.85 538.656 661.252 c 0
 538.414 668.292 533.314 674.118 523.362 678.246 c 0
 513.894 682.13 508.798 682.372 494.472 679.702 c 1
 494.476 679.7 l 1
545.702 647.898 m 1
 558.812 641.342 565.364 632.36 565.364 620.708 c 0
 565.364 612.21 564.392 610.756 557.354 607.84 c 0
 548.856 604.2 538.418 605.656 518.51 612.696 c 0
 507.586 616.58 506.372 616.58 490.346 611.724 c 0
 461.458 602.986 448.834 606.386 448.348 622.892 c 0
 448.106 632.604 452.234 639.16 462.428 645.712 c 0
 470.926 650.812 471.41 650.812 479.908 646.684 c 0
 484.764 644.496 494.232 642.07 501.03 641.342 c 0
 510.982 640.372 515.11 641.342 524.092 646.198 c 0
 530.162 649.598 535.258 652.512 535.744 652.512 c 0
 535.988 652.752 540.6 650.568 545.7 647.898 c 2
 545.702 647.898 l 1
505.644 589.146 m 1
 503.702 563.412 502.002 558.8 493.748 556.616 c 0
 479.18 552.974 473.84 562.928 476.996 586.476 c 2
 479.182 602.986 l 1
 491.322 607.114 l 2
 498.12 609.296 504.188 611.242 505.16 611.484 c 0
 506.13 611.484 506.374 601.286 505.646 589.148 c 1
 505.644 589.146 l 1
524.338 606.384 m 1
 536.478 602.258 538.662 598.13 538.662 579.436 c 0
 538.662 564.87 537.932 562.686 532.834 559.286 c 0
 524.582 553.944 514.628 556.858 512.93 565.112 c 0
 512.2 568.508 510.988 573.122 510.502 575.064 c 0
 508.802 579.92 512.2 609.052 514.386 609.052 c 0
 515.358 609.052 519.728 607.838 524.338 606.382 c 1
 524.338 606.384 l 1
EndSplineSet
Validated: 41
EndChar

StartChar: uniE625
Encoding: 39 58917 39
Width: 1024
LayerCount: 2
Fore
SplineSet
688 732.192 m 0
 623.262 732.192 570.668 679.626 570.668 614.858 c 0
 570.668 571.572 594.384 534.134 629.334 513.766 c 1
 629.334 497.524 l 1
 629.334 497.524 629.334 380.192 511.998 380.192 c 0
 463.358 380.192 425.232 369.764 394.666 353.778 c 1
 394.666 631.1 l 1
 429.644 651.468 453.332 688.906 453.332 732.192 c 0
 453.332 796.96 400.766 849.524 335.998 849.524 c 0
 271.23 849.524 218.666 796.96 218.666 732.192 c 0
 218.666 688.906 242.358 651.468 277.332 631.1 c 1
 277.332 246.588 l 1
 242.356 226.248 218.666 188.838 218.666 145.524 c 0
 218.666 80.786 271.23 28.192 335.998 28.192 c 0
 400.768 28.192 453.332 80.786 453.332 145.524 c 0
 453.332 176.234 441.244 203.962 421.934 224.932 c 1
 439.008 245.9 466.766 262.858 511.998 262.858 c 0
 744.834 262.858 746.666 497.524 746.666 497.524 c 1
 746.666 513.766 l 1
 781.614 534.134 805.334 571.572 805.334 614.858 c 0
 805.334 679.626 752.74 732.192 688 732.192 c 0
335.998 790.858 m 0
 368.456 790.858 394.666 764.648 394.666 732.192 c 0
 394.666 699.736 368.456 673.524 335.998 673.524 c 0
 303.542 673.524 277.332 699.734 277.332 732.192 c 0
 277.334 764.648 303.542 790.858 335.998 790.858 c 0
335.998 86.86 m 0
 303.542 86.86 277.332 113.098 277.332 145.524 c 0
 277.332 177.894 303.542 204.192 335.998 204.192 c 0
 368.456 204.192 394.666 177.894 394.666 145.524 c 0
 394.666 113.098 368.456 86.86 335.998 86.86 c 0
688 556.192 m 0
 655.572 556.192 629.334 582.4 629.334 614.858 c 0
 629.334 647.316 655.572 673.524 688 673.524 c 0
 720.428 673.524 746.666 647.314 746.666 614.858 c 0
 746.666 582.4 720.428 556.192 688 556.192 c 0
EndSplineSet
Validated: 9
EndChar

StartChar: uniE626
Encoding: 40 58918 40
Width: 1024
LayerCount: 2
Fore
SplineSet
293.422 794.046 m 0
 233.094 794.046 184.132 745.086 184.132 684.758 c 0
 184.132 644.442 206.252 609.57 238.776 590.596 c 1
 238.776 232.444 l 1
 206.25 213.5 184.132 178.652 184.132 138.312 c 0
 184.132 78.012 233.092 29.022 293.422 29.022 c 0
 353.748 29.022 402.71 78.01 402.71 138.312 c 0
 402.71 178.654 380.646 213.502 348.068 232.444 c 1
 348.068 590.598 l 1
 380.646 609.57 402.71 644.442 402.71 684.76 c 0
 402.708 745.086 353.748 794.046 293.422 794.046 c 0
293.422 83.668 m 0
 263.272 83.668 238.778 108.108 238.778 138.312 c 0
 238.778 168.462 263.272 192.956 293.422 192.956 c 0
 323.652 192.956 348.066 168.462 348.066 138.312 c 0
 348.066 108.108 323.652 83.668 293.422 83.668 c 0
293.422 630.112 m 0
 263.272 630.112 238.778 654.526 238.778 684.758 c 0
 238.778 714.99 263.272 739.402 293.422 739.402 c 0
 323.652 739.402 348.066 714.988 348.066 684.758 c 0
 348.066 654.528 323.652 630.112 293.422 630.112 c 0
785.22 232.446 m 1
 785.22 575.47 l 2
 785.22 739.83 621.288 739.404 621.288 739.404 c 1
 566.644 739.404 l 1
 566.644 848.692 l 1
 402.708 684.758 l 1
 566.644 520.824 l 1
 566.644 630.114 l 1
 566.644 630.114 589.428 630.114 621.288 630.114 c 0
 669.474 630.114 675.93 575.47 675.93 575.47 c 1
 675.93 232.446 l 1
 643.38 213.502 621.288 178.71 621.288 138.314 c 0
 621.288 78.014 670.274 29.024 730.576 29.024 c 0
 790.878 29.024 839.868 78.012 839.868 138.314 c 0
 839.868 178.654 817.772 213.502 785.22 232.446 c 1
730.576 83.668 m 0
 700.428 83.668 675.932 108.108 675.932 138.312 c 0
 675.932 168.462 700.428 192.956 730.576 192.956 c 0
 760.784 192.956 785.22 168.462 785.22 138.312 c 0
 785.22 108.108 760.784 83.668 730.576 83.668 c 0
EndSplineSet
Validated: 37
EndChar

StartChar: uniE627
Encoding: 41 58919 41
Width: 1024
LayerCount: 2
Fore
SplineSet
745.872 497.324 m 0
 702.364 497.324 664.908 473.286 644.81 438.03 c 1
 639.556 438.4 634.416 438.858 628.934 438.858 c 0
 509.204 438.858 395.578 530.07 354.128 642.978 c 1
 379.048 664.418 395.068 695.822 395.068 731.194 c 0
 395.068 795.742 342.68 848.13 278.132 848.13 c 0
 213.584 848.13 161.196 795.742 161.196 731.194 c 0
 161.196 688.058 184.808 650.742 219.664 630.444 c 1
 219.664 247.238 l 1
 184.806 226.968 161.196 189.686 161.196 146.52 c 0
 161.196 82 213.582 29.586 278.132 29.586 c 0
 342.678 29.586 395.068 82 395.068 146.52 c 0
 395.068 189.686 371.456 226.97 336.6 247.238 c 1
 336.6 457.612 l 1
 413.482 376.28 519.654 321.922 628.936 321.922 c 0
 634.76 321.922 639.558 322.32 644.812 322.492 c 1
 665.026 287.378 702.48 263.456 745.874 263.456 c 0
 810.394 263.456 862.808 315.87 862.808 380.388 c 0
 862.804 444.938 810.39 497.324 745.872 497.324 c 0
278.13 88.054 m 0
 245.87 88.054 219.664 114.204 219.664 146.52 c 0
 219.664 178.78 245.872 204.986 278.13 204.986 c 0
 310.476 204.986 336.596 178.778 336.596 146.52 c 0
 336.598 114.204 310.476 88.054 278.13 88.054 c 0
278.13 672.726 m 0
 245.87 672.726 219.664 698.848 219.664 731.194 c 0
 219.664 763.538 245.872 789.66 278.13 789.66 c 0
 310.476 789.66 336.596 763.538 336.596 731.194 c 0
 336.598 698.848 310.476 672.726 278.13 672.726 c 0
745.872 321.922 m 0
 713.61 321.922 687.404 348.072 687.404 380.388 c 0
 687.404 412.734 713.612 438.856 745.872 438.856 c 0
 778.184 438.856 804.336 412.732 804.336 380.388 c 0
 804.336 348.072 778.184 321.922 745.872 321.922 c 0
EndSplineSet
Validated: 41
EndChar

StartChar: uniE628
Encoding: 42 58920 42
Width: 1024
LayerCount: 2
Fore
SplineSet
814.494 278.872 m 1
 814.494 595.35 l 2
 814.494 746.99 663.248 746.596 663.248 746.596 c 1
 612.832 746.596 l 1
 612.832 847.428 l 1
 461.584 696.18 l 1
 612.832 544.932 l 1
 612.832 645.764 l 1
 612.832 645.764 633.854 645.764 663.248 645.764 c 0
 707.706 645.764 713.662 595.35 713.662 595.35 c 1
 713.662 278.872 l 1
 683.628 261.392 663.248 229.342 663.248 192.024 c 0
 663.248 136.39 708.444 91.19 764.08 91.19 c 0
 819.712 91.19 864.91 136.39 864.91 192.024 c 0
 864.91 229.242 844.528 261.392 814.494 278.872 c 1
764.08 141.608 m 0
 736.262 141.608 713.662 164.156 713.662 192.024 c 0
 713.662 219.84 736.262 242.438 764.08 242.438 c 0
 791.946 242.438 814.494 219.84 814.494 192.024 c 0
 814.494 164.156 791.946 141.608 764.08 141.608 c 0
209.506 598.82 m 1
 209.506 282.364 l 2
 209.506 130.726 360.754 131.116 360.754 131.116 c 1
 411.17 131.116 l 1
 411.17 30.286 l 1
 562.414 181.534 l 1
 411.17 332.782 l 1
 411.17 231.95 l 1
 411.17 231.95 390.144 231.95 360.754 231.95 c 0
 316.296 231.95 310.338 282.364 310.338 282.364 c 1
 310.338 598.82 l 1
 340.394 616.322 360.754 648.372 360.754 685.694 c 0
 360.754 741.352 315.582 786.526 259.922 786.526 c 0
 204.262 786.526 159.09 741.352 159.09 685.694 c 0
 159.09 648.448 179.45 616.322 209.506 598.82 c 1
259.922 633.16 m 0
 232.104 633.16 209.506 655.686 209.506 683.576 c 0
 209.506 711.392 232.104 733.992 259.922 733.992 c 0
 287.812 733.992 310.338 711.392 310.338 683.576 c 0
 310.338 655.686 287.812 633.16 259.922 633.16 c 0
EndSplineSet
Validated: 41
EndChar

StartChar: uniE629
Encoding: 43 58921 43
Width: 1024
LayerCount: 2
Fore
SplineSet
709.14 489.966 m 1
 686.384 577.98 607.124 643.288 512 643.288 c 0
 416.898 643.288 337.618 577.982 314.834 489.966 c 1
 154.25 489.966 l 1
 154.25 387.75 l 1
 314.834 387.75 l 1
 337.618 299.71 416.9 234.43 512 234.43 c 0
 607.124 234.43 686.384 299.712 709.14 387.75 c 1
 869.75 387.75 l 1
 869.75 489.966 l 1
 709.14 489.966 l 1
512 336.648 m 0
 455.578 336.648 409.786 382.464 409.786 438.86 c 0
 409.786 495.282 455.578 541.074 512 541.074 c 0
 568.396 541.074 614.214 495.282 614.214 438.86 c 0
 614.214 382.464 568.396 336.648 512 336.648 c 0
EndSplineSet
Validated: 9
EndChar

StartChar: uniE62A
Encoding: 44 58922 44
Width: 1024
LayerCount: 2
Fore
SplineSet
436.224 790.762 m 1
 416.604 786.632 377.876 772.69 351.024 759.262 c 0
 310.228 739.642 294.74 728.282 257.562 691.104 c 0
 220.384 653.926 209.024 638.436 189.4 597.642 c 0
 136.73 489.718 136.73 386.444 189.4 277.492 c 0
 209.022 236.184 219.862 221.208 257.562 184.036 c 0
 295.256 146.338 309.714 136.008 351.024 115.872 c 0
 414.024 85.924 444.486 78.692 511.098 78.692 c 0
 577.71 78.692 608.176 85.922 671.172 115.872 c 0
 711.966 135.492 726.426 146.338 764.634 184.036 c 0
 802.332 222.242 813.174 236.7 832.796 277.492 c 0
 857.58 329.648 864.812 353.918 870.488 405.554 c 2
 874.104 437.57 l 1
 771.864 437.57 l 1
 765.152 397.808 l 2
 732.624 190.746 480.116 107.606 330.368 254.77 c 0
 209.022 373.54 235.354 574.92 384.072 662.188 c 0
 411.954 678.712 468.24 695.752 494.058 695.752 c 2
 511.096 695.752 l 1
 511.096 799.026 l 1
 491.988 798.508 l 2
 481.146 798.508 456.362 794.898 436.222 790.764 c 1
 436.224 790.762 l 1
454.81 651.346 m 1
 345.344 621.912 274.082 512.954 292.672 403.49 c 0
 313.84 282.142 427.442 199.002 545.174 219.142 c 0
 666.006 239.798 749.66 353.916 729.52 470.616 c 0
 706.8 602.29 580.804 685.424 454.808 651.346 c 1
 454.81 651.346 l 1
EndSplineSet
Validated: 41
EndChar

StartChar: uniE62B
Encoding: 45 58923 45
Width: 1024
LayerCount: 2
Fore
SplineSet
732.972 548.206 m 0
 736.984 549.002 742.948 550.328 749.682 551.792 c 2
 801.842 551.792 l 1
 809.96 563.794 l 2
 810.128 563.878 810.444 563.906 810.616 563.906 c 2
 830.804 593.062 l 2
 830.514 593.062 830.034 593.12 829.82 593.12 c 2
 831.93 596.28 l 1
 549.214 596.28 l 1
 560.09 551.806 l 1
 637.25 551.806 l 1
 507.416 434.616 l 1
 480.908 471.202 418.81 547.45 375.506 610.56 c 1
 472.694 610.56 l 1
 472.694 644.398 l 1
 473.806 651.872 l 2
 473.506 651.928 472.966 652.014 472.694 652.014 c 2
 472.694 655.06 l 1
 150.334 655.06 l 1
 150.334 610.56 l 1
 245.928 610.56 l 1
 283.042 581.546 424.946 404.348 430.842 386.668 c 0
 433.206 370.126 435.37 272.438 428.422 265.064 c 0
 414.47 250.3 350.834 254.214 335.488 253.134 c 1
 330.178 222.868 l 1
 358.21 222.042 449.448 225.146 477.792 225.146 c 0
 533.68 225.146 631.568 225.402 645.38 224.35 c 1
 647.088 256.094 l 1
 632.966 258.486 555.92 256.38 545.272 258.8 c 1
 542.908 274.19 540.318 377.016 542.682 387.652 c 0
 553.328 418.342 715.234 543.422 732.972 548.206 c 0
779.91 305.14 m 1
 823.214 301.694 l 1
 873.668 496.584 l 1
 865.238 496.87 788.676 504.102 778.742 506.038 c 1
 779.91 305.14 l 1
772.406 273.89 m 1
 772.676 226.328 l 1
 794.586 224.418 l 1
 818.278 222.654 l 1
 825.222 269.234 l 1
 800.25 270.458 l 1
 772.406 273.89 l 1
EndSplineSet
Validated: 41
EndChar

StartChar: uniE62C
Encoding: 46 58924 46
Width: 1024
LayerCount: 2
Fore
SplineSet
149.538 559.678 m 1
 149.538 499.268 l 1
 270.358 499.268 l 1
 270.358 257.628 l 1
 391.18 257.628 l 1
 391.18 499.268 l 1
 512 499.268 l 1
 512 257.628 l 1
 874.464 257.628 l 1
 874.464 378.448 l 1
 632.824 378.448 l 1
 632.824 499.268 l 1
 874.464 499.268 l 1
 874.464 620.09 l 1
 632.824 620.09 l 1
 632.824 499.268 l 1
 512.002 499.268 l 1
 512.002 620.09 l 1
 149.538 620.09 l 1
 149.538 559.678 l 1
EndSplineSet
Validated: 5
EndChar

StartChar: uniE62D
Encoding: 47 58925 47
Width: 1024
LayerCount: 2
Fore
SplineSet
723.908 795.348 m 1
 736.524 790.19 749.138 778.72 755.158 767.54 c 0
 758.884 760.372 778.092 678.67 854.92 344.98 c 0
 865.24 300.546 873.554 257.544 873.554 249.232 c 0
 873.554 231.17 867.534 218.27 853.2 205.372 c 0
 841.734 194.766 835.426 192.47 777.516 178.71 c 2
 743.116 170.686 l 1
 752.29 188.17 l 2
 764.902 211.678 770.924 239.486 770.924 272.454 c 0
 770.924 335.806 747.416 388.27 700.116 430.41 c 0
 672.596 455.068 631.886 477.714 569.678 503.228 c 0
 483.104 538.488 457.876 560.276 457.876 599.55 c 0
 458.162 643.124 492.564 665.486 552.478 661.474 c 0
 582.292 659.18 613.828 651.44 646.506 637.966 c 0
 660.266 632.232 673.454 627.072 675.748 626.212 c 0
 679.19 625.066 684.634 637.392 699.83 678.674 c 0
 710.724 708.202 720.184 734.002 720.758 735.724 c 0
 722.474 740.31 674.888 761.236 642.782 770.124 c 0
 605.23 780.158 604.366 780.444 609.812 781.878 c 0
 682.34 800.224 705.846 803.09 723.908 795.35 c 1
 723.908 795.348 l 1
319.986 699.024 m 1
 311.386 686.698 302.786 668.922 298.2 655.164 c 0
 291.606 635.384 290.462 627.356 290.462 596.396 c 0
 290.462 564.862 291.32 557.982 297.914 539.634 c 0
 322.854 470.258 381.336 420.378 486.546 378.522 c 0
 533.562 359.888 565.096 342.114 581.15 325.202 c 0
 597.49 308 602.366 293.668 600.644 267.868 c 0
 599.21 243.786 589.75 229.738 567.674 218.844 c 0
 551.622 211.102 549.612 210.82 508.046 210.82 c 0
 468.198 210.82 462.752 211.392 433.51 219.992 c 0
 416.308 224.868 392.228 233.178 380.476 238.054 c 0
 368.722 243.214 356.682 247.516 353.816 247.802 c 0
 350.088 248.09 342.922 235.474 323.142 193.906 c 0
 308.808 164.094 297.342 138.578 297.342 137.718 c 0
 297.342 134.276 342.35 114.786 371.59 105.612 c 0
 386.784 100.738 401.118 96.15 403.412 95.578 c 0
 405.706 94.722 392.232 90.42 373.312 85.836 c 0
 313.682 71.212 285.588 77.52 269.822 109.056 c 0
 265.81 117.08 240.868 219.426 205.606 372.512 c 0
 142.252 646.286 143.972 635.678 159.45 660.046 c 0
 170.632 677.82 187.832 685.272 244.306 698.174 c 0
 283.868 706.774 332.03 718.242 333.748 719.386 c 0
 334.034 719.674 328.016 710.5 319.986 699.032 c 1
 319.986 699.024 l 1
EndSplineSet
Validated: 33
EndChar

StartChar: uniE62E
Encoding: 48 58926 48
Width: 1024
LayerCount: 2
Fore
SplineSet
723.844 591.034 m 1
 718.022 585.94 717.84 583.576 720.388 553.922 c 0
 721.844 536.456 720.568 531.544 714.566 531.544 c 0
 705.47 531.544 684.914 516.808 682.364 508.258 c 0
 680.546 502.618 684.912 489.7 689.642 486.608 c 0
 691.826 485.152 698.376 483.516 704.016 482.97 c 0
 711.656 482.242 714.75 480.97 716.204 478.24 c 0
 718.388 473.874 716.748 446.404 712.93 424.028 c 0
 710.382 410.02 710.382 406.926 712.93 393.464 c 0
 714.566 385.098 715.842 375.09 715.842 371.088 c 0
 715.842 367.086 716.568 362.358 717.66 360.536 c 0
 718.57 358.718 719.842 349.984 720.208 341.07 c 0
 721.3 318.512 724.028 309.964 732.944 302.322 c 0
 744.406 292.316 747.132 291.588 769.146 291.404 c 0
 780.424 291.404 791.522 291.224 794.07 291.224 c 0
 812.444 291.04 835.912 294.68 837.186 297.954 c 0
 837.73 299.228 843.552 304.87 850.102 310.508 c 0
 867.02 324.882 871.568 331.974 873.386 348.714 c 0
 874.842 360.72 871.204 380.912 866.656 386.738 c 0
 864.836 389.102 861.56 394.924 859.558 399.472 c 0
 857.01 405.656 855.01 407.838 852.102 407.838 c 0
 850.1 407.838 847.006 409.478 845.372 411.478 c 0
 842.278 415.114 842.098 415.114 836.092 411.842 c 0
 832.636 410.024 828.814 406.93 827.904 404.93 c 0
 826.814 403.112 824.452 399.29 822.812 396.56 c 0
 820.994 394.012 819.538 389.646 819.538 387.098 c 0
 819.538 384.554 818.082 378.546 816.082 373.82 c 0
 814.262 369.09 812.262 361.994 811.53 358.358 c 0
 809.896 349.444 806.256 345.984 798.072 345.984 c 0
 788.248 345.984 786.792 347.624 786.972 357.992 c 0
 787.52 394.012 786.972 408.386 784.242 417.48 c 0
 779.332 434.582 783.516 471.694 790.794 476.242 c 0
 792.068 477.15 806.438 477.698 822.448 477.88 c 0
 849.19 477.88 852.282 478.244 855.924 481.52 c 0
 859.38 484.614 859.742 486.432 858.832 493.344 c 0
 858.288 497.892 857.014 506.988 856.102 513.538 c 0
 855.376 520.268 853.92 526.636 853.192 527.726 c 0
 852.282 529.364 845.006 529.728 825.176 529 c 0
 810.622 528.452 796.796 527.544 794.612 526.816 c 0
 789.156 525.362 783.698 535.366 786.61 541.916 c 0
 787.7 544.28 788.61 549.374 788.61 553.378 c 0
 788.61 557.196 789.518 561.018 790.428 561.564 c 0
 793.158 563.202 792.612 574.118 789.518 578.12 c 0
 788.062 579.938 786.788 583.032 786.788 584.67 c 0
 786.788 589.218 783.514 590.492 767.686 592.128 c 0
 729.298 595.948 729.48 595.948 723.842 591.036 c 1
 723.844 591.034 l 1
593.948 526.086 m 2
 591.4 525.358 586.304 524.63 582.67 524.448 c 0
 574.118 524.266 538.826 511.712 535.732 507.71 c 0
 535.188 507.166 533.184 506.074 531.184 505.348 c 0
 526.814 504.074 500.802 479.696 496.8 473.146 c 0
 494.072 468.78 492.434 460.41 488.43 431.488 c 0
 487.338 424.03 485.702 415.478 484.792 412.566 c 0
 480.244 398.922 485.156 361.446 492.796 353.44 c 0
 495.162 350.896 498.07 346.892 499.164 344.708 c 0
 501.346 340.524 501.164 340.524 486.794 340.524 c 2
 472.424 340.524 l 1
 472.24 362.172 l 2
 472.24 374.18 471.332 386.006 470.24 388.552 c 0
 469.148 391.644 469.148 398.196 470.604 408.2 c 0
 473.152 427.666 472.604 449.676 469.33 457.862 c 0
 467.876 461.318 466.602 466.778 466.602 470.052 c 0
 466.602 482.422 454.96 505.528 448.412 506.254 c 0
 446.956 506.436 444.956 506.798 443.864 506.982 c 0
 442.952 507.346 440.59 507.528 438.95 507.708 c 0
 437.312 507.708 432.22 511.164 427.672 514.986 c 0
 416.21 524.81 409.66 526.81 395.288 524.264 c 0
 376.55 520.99 365.454 517.17 360.178 512.44 c 0
 357.632 509.892 353.992 507.892 352.356 507.892 c 0
 348.17 507.892 346.716 506.618 338.53 496.614 c 0
 334.708 491.702 330.342 487.884 328.886 487.884 c 0
 324.884 487.884 321.064 492.614 321.064 497.526 c 0
 321.064 499.892 319.244 503.348 317.242 505.35 c 0
 313.786 508.442 310.146 508.806 288.5 508.99 c 0
 274.854 509.172 260.484 509.898 256.48 510.628 c 0
 240.288 513.356 232.648 503.532 234.832 482.792 c 0
 235.376 476.062 236.834 468.602 237.742 466.238 c 0
 239.198 462.052 239.744 461.872 253.388 462.964 c 2
 267.578 464.056 l 1
 269.942 458.598 l 2
 272.308 453.14 272.128 448.956 268.488 433.314 c 0
 266.122 422.944 266.122 389.832 268.488 377.826 c 0
 273.762 351.264 273.944 347.08 270.67 344.716 c 0
 269.032 343.26 262.3 342.352 255.206 342.352 c 0
 244.108 342.352 242.654 341.988 239.924 337.804 c 0
 236.65 332.71 232.102 313.79 231.92 304.694 c 0
 231.92 299.78 233.012 298.508 240.108 295.05 c 0
 247.75 291.41 257.208 290.866 281.952 293.048 c 0
 290.32 293.774 307.968 292.322 309.968 290.682 c 0
 313.062 288.318 349.81 288.862 356.54 291.408 c 0
 364.362 294.32 368.364 299.96 368.364 307.6 c 0
 368.364 311.6 367.456 315.422 366.546 315.97 c 0
 365.454 316.514 364.726 322.156 364.726 328.522 c 0
 364.726 342.71 362.362 346.168 351.446 347.26 c 0
 343.986 348.168 342.896 348.894 342.896 352.352 c 0
 342.896 354.718 341.804 357.082 340.714 357.448 c 0
 338.894 358.174 338.894 358.9 340.532 359.996 c 0
 344.534 362.906 345.08 371.82 342.896 397.836 c 0
 340.714 421.486 340.714 424.398 343.442 428.582 c 0
 345.262 431.126 346.536 436.406 346.536 440.222 c 0
 346.536 444.408 347.628 448.41 349.264 449.682 c 0
 350.718 450.956 351.992 452.956 351.992 454.23 c 0
 351.992 461.144 378.554 462.052 391.106 455.504 c 0
 394.2 454.048 397.836 452.23 399.292 451.5 c 0
 400.748 450.77 402.202 448.044 402.566 445.498 c 0
 402.93 442.95 404.386 439.856 405.84 438.768 c 0
 408.752 436.22 409.48 412.754 406.75 405.48 c 0
 404.75 400.384 404.022 369.82 405.658 359.632 c 0
 407.296 349.262 402.564 345.078 388.74 345.078 c 0
 373.094 345.078 372.548 342.714 379.098 307.058 c 0
 382.01 291.232 382.738 290.684 401.112 292.324 c 0
 419.486 293.964 412.936 293.964 462.966 292.324 c 2
 503.898 290.868 l 1
 508.082 296.69 l 2
 511.356 301.238 512.086 304.326 511.722 311.968 c 2
 511.176 321.612 l 1
 530.28 308.878 l 2
 553.564 293.412 562.298 291.048 597.048 291.412 c 0
 616.694 291.596 622.88 292.324 632.524 295.598 c 0
 638.708 297.962 645.076 300.512 646.532 301.42 c 0
 647.988 302.15 653.446 303.968 658.72 305.238 c 0
 672.186 308.332 682.19 316.884 686.738 329.072 c 0
 688.738 334.528 692.012 342.172 694.016 345.99 c 0
 696.016 349.994 697.656 354.36 697.656 355.816 c 0
 697.656 359.634 688.74 369.642 685.104 369.642 c 0
 683.468 369.642 679.098 371.282 675.28 373.278 c 0
 668.184 377.098 662.91 376.918 657.634 372.37 c 0
 656.178 371.096 651.994 369.64 648.356 368.914 c 0
 644.716 368.366 640.17 366.002 638.348 364.004 c 0
 636.348 361.818 631.8 358.906 627.982 357.452 c 0
 624.342 355.996 619.612 352.356 617.612 349.628 c 0
 614.882 345.988 611.424 344.172 603.42 342.354 c 0
 597.418 341.08 590.688 340.714 588.322 341.444 c 0
 582.864 343.084 566.672 353.45 566.672 355.088 c 0
 566.672 355.818 563.216 360 559.214 364.184 c 0
 552.118 371.462 551.756 372.372 552.848 380.194 c 0
 554.304 391.656 556.304 393.294 567.948 393.294 c 0
 573.404 393.294 580.318 394.564 583.414 396.202 c 0
 591.6 400.572 619.616 400.206 626.348 395.842 c 0
 630.348 393.112 635.262 392.568 652.18 392.568 c 0
 674.192 392.386 684.382 394.386 692.022 400.208 c 0
 696.752 403.664 696.752 404.21 696.752 426.222 c 0
 696.752 450.6 694.204 463.152 687.656 472.43 c 0
 685.472 475.524 682.198 480.982 680.378 484.8 c 0
 678.56 488.804 675.83 492.26 674.19 492.988 c 0
 672.556 493.536 668.188 497.356 664.55 501.54 c 0
 659.82 506.998 655.82 509.544 651.272 510.272 c 0
 647.816 510.818 639.81 513.728 633.626 516.822 c 0
 609.974 528.1 604.516 529.374 593.966 526.1 c 2
 593.948 526.086 l 2
605.228 479.15 m 2
 611.412 474.964 632.154 451.678 632.154 448.768 c 0
 632.154 444.764 627.424 442.4 614.688 439.67 c 0
 597.952 436.034 573.936 436.034 569.206 439.67 c 0
 567.388 441.126 564.476 442.4 562.84 442.4 c 0
 559.928 442.4 557.566 445.856 557.566 449.676 c 0
 557.566 450.586 560.292 454.224 563.568 457.68 c 0
 566.662 461.136 571.574 466.958 574.304 470.232 c 0
 583.4 481.512 595.95 485.15 605.23 479.148 c 2
 605.228 479.15 l 2
170.974 350.712 m 2
 163.88 347.438 156.42 339.434 152.964 331.064 c 0
 141.866 304.502 167.152 276.488 195.168 284.128 c 0
 225.368 292.132 230.098 335.976 202.444 349.44 c 0
 193.168 353.806 179.34 354.35 170.97 350.712 c 2
 170.974 350.712 l 2
EndSplineSet
Validated: 41
EndChar

StartChar: uniE62F
Encoding: 49 58927 49
Width: 1024
LayerCount: 2
Fore
SplineSet
441.212 795.526 m 1
 324.612 770.67 221.118 685.704 177.73 579.046 c 0
 141.124 489.56 141.124 387.422 177.73 297.938 c 0
 216.144 203.93 302.014 125.294 402.798 91.85 c 0
 438.952 80.1 447.542 79.196 512.168 79.196 c 0
 576.794 79.196 585.384 80.1 621.538 91.85 c 0
 773.846 142.016 873.722 278.956 873.722 438.49 c 0
 873.722 596.672 777.002 731.348 626.058 783.322 c 0
 591.256 795.074 579.956 796.88 523.464 798.236 c 0
 488.664 799.14 451.606 797.784 441.21 795.524 c 1
 441.212 795.526 l 1
552.844 558.71 m 0
 615.21 449.338 634.646 395.558 626.06 357.142 c 0
 612.502 299.294 561.882 262.234 504.034 268.108 c 0
 475.56 271.272 444.83 288.444 427.654 310.136 c 2
 416.808 324.598 l 1
 434.884 324.598 l 2
 484.146 325.504 522.11 372.054 514.426 422.67 c 0
 511.714 443.46 496.35 484.588 478.272 519.838 c 2
 467.878 540.176 l 1
 490.926 579.498 l 2
 503.58 601.188 515.33 617.912 517.138 616.556 c 0
 518.948 615.652 535.216 589.438 552.844 558.71 c 0
457.936 515.322 m 0
 496.804 438.04 503.582 404.146 486.86 375.22 c 0
 456.582 324.152 384.72 338.614 369.808 399.172 c 0
 367.548 406.406 369.356 420.864 374.328 435.328 c 0
 382.462 461.09 430.82 551.478 436.244 551.478 c 0
 438.054 551.478 447.994 535.208 457.936 515.322 c 0
EndSplineSet
Validated: 41
EndChar

StartChar: uniE630
Encoding: 50 58928 50
Width: 1024
LayerCount: 2
Fore
SplineSet
509.544 797.698 m 1
 493.022 791.584 482.282 779.52 476.996 761.348 c 0
 473.358 748.954 473.358 745.154 480.962 510.854 c 0
 484.596 398.162 488.562 267.628 490.048 220.868 c 0
 491.866 159.402 493.354 132.47 495.168 123.878 c 0
 501.284 95.126 524.25 77.116 554.982 77.116 c 0
 566.548 77.116 820.512 120.242 833.4 124.374 c 0
 845.13 128.176 859.178 141.888 865.62 155.932 c 0
 875.534 177.576 875.534 177.244 868.76 277.21 c 0
 859.506 413.032 846.456 612.636 843.646 663.362 c 0
 840.67 713.594 838.852 722.682 828.776 737.716 c 0
 821.502 748.456 805.806 760.188 794.406 763.658 c 0
 789.618 764.98 760.536 769.936 729.636 774.396 c 0
 536.146 802.488 525.242 803.644 509.542 797.696 c 1
 509.544 797.698 l 1
682.712 663.034 m 1
 768.302 656.426 778.544 655.432 784.826 652.294 c 0
 795.236 646.842 804.158 637.918 809.114 628.006 c 0
 813.412 619.248 813.576 617.43 817.376 551.668 c 0
 819.524 514.654 823.986 441.458 827.126 388.746 c 0
 832.578 300.346 832.906 292.582 830.596 284.486 c 0
 825.966 269.12 810.936 255.732 792.428 250.774 c 0
 780.862 247.798 591.502 228.798 580.764 229.626 c 0
 561.428 231.112 546.066 243.506 539.62 263.002 c 0
 537.472 269.118 536.48 281.674 535.322 312.57 c 0
 534.498 335.372 531.52 416.506 528.712 493.008 c 0
 524.086 621.226 523.756 632.796 526.236 640.892 c 0
 529.54 652.292 537.306 661.546 547.716 666.336 c 0
 559.446 671.788 570.02 671.624 682.712 663.032 c 1
 682.712 663.034 l 1
556.472 660.058 m 1
 542.92 656.424 533.836 642.708 533.836 626.184 c 0
 533.836 618.254 531.688 618.748 568.532 615.61 c 0
 591.834 613.628 601.252 609.992 610.008 599.254 c 0
 619.262 588.182 619.426 586.198 625.374 449.718 c 0
 631.32 311.25 631.488 314.558 622.398 302.658 c 0
 619.922 299.518 613.476 294.892 607.528 291.918 c 0
 598.442 287.456 593.816 286.466 571.672 284.152 c 0
 557.628 282.83 545.894 281.344 545.566 281.012 c 0
 544.246 279.856 549.368 262.504 553.164 255.896 c 0
 555.316 252.098 559.942 246.974 563.246 244.826 c 0
 573.984 237.722 581.59 237.39 624.548 241.854 c 0
 646.028 244 664.04 246.48 664.536 246.974 c 0
 665.196 247.634 661.396 339.998 656.274 452.194 c 2
 647.02 656.258 l 1
 612.322 659.066 l 2
 572.17 662.206 565.064 662.372 556.474 660.056 c 1
 556.472 660.058 l 1
360.504 728.796 m 1
 348.112 725.49 341.006 720.7 335.388 711.776 c 0
 325.308 695.914 325.64 719.54 330.596 449.716 c 0
 335.058 205.5 335.554 191.124 340.51 179.888 c 0
 347.614 163.368 362.486 153.618 385.122 150.644 c 0
 391.896 149.816 480.298 160.062 482.114 162.044 c 0
 482.776 162.706 479.472 274.238 478.646 274.9 c 0
 478.48 275.23 463.444 273.908 445.266 272.088 c 0
 411.228 268.618 402.472 268.948 392.062 274.404 c 0
 382.644 279.36 374.876 290.596 372.07 303.648 c 0
 371.244 307.614 369.26 375.688 367.608 455.002 c 0
 364.302 617.426 363.808 608.006 376.86 619.738 c 0
 387.104 628.99 392.722 629.816 428.908 627.504 c 0
 446.258 626.348 462.122 625.026 464.266 624.528 c 2
 468.068 623.538 l 1
 467.076 659.724 l 2
 466.578 679.718 465.588 701.858 465.094 709.128 c 2
 464.266 722.512 l 1
 420.15 726.974 l 2
 370.248 732.096 372.562 732.096 360.5 728.792 c 1
 360.504 728.796 l 1
236.91 647.336 m 1
 224.022 644.032 214.44 634.448 212.292 622.552 c 0
 211.632 619.246 211.962 566.042 213.118 504.246 c 0
 216.422 320.01 217.908 271.102 220.222 263.5 c 0
 223.196 253.42 232.614 244.664 244.18 241.36 c 0
 253.268 238.716 255.416 238.716 282.68 241.36 c 0
 298.542 243.012 314.736 244.664 318.534 245.158 c 2
 325.64 246.15 l 1
 324.65 285.972 l 2
 323.988 307.78 323.328 325.956 323.162 326.124 c 0
 322.996 326.454 312.422 325.792 299.532 324.8 c 0
 270.616 322.488 263.016 323.48 255.084 330.416 c 0
 244.014 340.168 244.51 336.694 241.862 451.702 c 2
 239.55 555.962 l 1
 243.022 562.902 l 2
 245.666 568.024 248.476 570.668 254.092 573.148 c 0
 261.03 576.288 263.674 576.452 290.61 575.294 c 2
 319.524 573.972 l 1
 318.368 607.68 l 2
 317.872 626.02 316.88 641.552 316.55 642.046 c 0
 315.558 642.872 281.52 646.012 255.416 647.83 c 0
 248.146 648.328 239.884 647.996 236.908 647.334 c 2
 236.91 647.336 l 1
389.09 616.934 m 1
 377.856 611.646 372.568 598.922 374.386 581.078 c 2
 375.542 570.008 l 1
 393.884 569.182 l 2
 415.86 568.192 423.956 565.052 430.896 554.312 c 2
 435.522 547.374 l 1
 435.522 349.92 l 1
 430.566 344.632 l 2
 423.13 336.7 413.218 333.066 396.032 331.742 c 2
 380.996 330.754 l 1
 380.5 321.666 l 2
 379.178 301.012 386.448 286.638 400.988 281.02 c 0
 407.596 278.54 410.572 278.376 433.704 280.358 c 0
 447.75 281.516 459.976 283.002 461.134 283.662 c 0
 463.612 285.152 463.446 305.306 460.308 445.594 c 0
 456.836 607.026 456.508 612.148 449.568 615.782 c 0
 447.914 616.608 434.696 617.764 420.32 618.26 c 0
 399.832 619.086 393.058 618.756 389.092 616.938 c 2
 389.09 616.934 l 1
161.068 549.682 m 2
 159.086 549.022 155.946 546.212 153.964 543.734 c 0
 150.494 539.436 150.494 538.28 150.494 469.71 c 0
 150.494 431.542 150.99 389.404 151.652 376.352 c 0
 152.642 354.872 152.972 352.228 156.442 348.1 c 0
 161.728 341.984 169.992 340.168 189.984 341.158 c 2
 206.838 341.984 l 1
 206.34 362.806 l 1
 205.846 383.622 l 1
 190.644 384.45 l 2
 166.354 385.772 168.008 381.31 167.348 448.232 c 0
 166.852 510.854 166.686 510.194 178.75 513.332 c 0
 182.55 514.488 189.324 514.654 194.446 513.992 c 2
 203.37 513.002 l 1
 203.37 549.352 l 1
 198.248 550.344 l 2
 190.812 551.832 165.202 551.334 161.072 549.684 c 2
 161.068 549.682 l 2
249.634 530.846 m 1
 249.634 513.332 l 1
 254.756 513.332 l 2
 261.53 513.332 270.782 508.87 273.098 504.408 c 0
 276.072 499.288 277.228 400.97 274.42 394.526 c 0
 272.272 389.242 264.01 384.45 257.234 384.45 c 2
 252.938 384.45 l 1
 252.938 369.744 l 2
 252.938 361.648 253.434 352.724 253.93 349.916 c 0
 254.922 344.96 255.25 344.792 264.338 344.792 c 0
 274.912 344.792 283.34 348.426 288.134 355.038 c 0
 291.438 359.332 291.438 360.822 289.456 444.264 c 0
 287.638 517.462 286.978 529.856 284.662 534.646 c 0
 280.2 543.736 274.252 547.04 261.198 547.7 c 2
 249.632 548.362 l 1
 249.632 530.848 l 1
 249.634 530.846 l 1
EndSplineSet
Validated: 41
EndChar

StartChar: uniE631
Encoding: 51 58929 51
Width: 1024
LayerCount: 2
Fore
SplineSet
404.756 306.348 m 1
 400.724 306.348 l 1
 398.762 302.87 l 1
 294.918 121.282 l 1
 767.654 121.282 l 1
 769.618 124.778 l 1
 873.492 306.348 l 1
 861.548 306.348 l 1
 404.756 306.348 l 1
658.346 349.616 m 1
 660.34 346.162 l 1
 664.372 346.162 l 1
 873.52 347.054 l 1
 867.548 357.35 l 1
 637.18 756.434 l 1
 633.148 756.422 l 1
 423.958 755.558 l 1
 429.928 745.244 l 1
 658.346 349.616 l 1
494.228 550.754 m 1
 492.208 554.248 l 1
 386.862 734.93 l 1
 380.902 724.616 l 1
 150.48 325.564 l 1
 152.518 322.08 l 1
 257.846 141.356 l 1
 263.804 151.686 l 1
 492.208 547.3 l 1
 494.228 550.754 l 1
EndSplineSet
Validated: 9
EndChar

StartChar: uniE632
Encoding: 52 58930 52
Width: 1024
LayerCount: 2
Fore
SplineSet
874.574 716.956 m 1
 714.464 716.956 l 1
 601.348 603.832 l 1
 761.458 603.832 l 1
 874.574 716.956 l 1
512.664 603.832 m 1
 625.788 716.956 l 1
 465.722 716.956 l 1
 352.554 603.832 l 1
 512.664 603.832 l 1
761.732 273.988 m 1
 262.268 273.988 l 1
 262.268 602.758 l 1
 376.438 716.956 l 1
 216.324 716.956 l 1
 149.038 649.654 l 1
 149.038 160.76 l 1
 874.962 160.76 l 1
 874.962 603.832 l 1
 761.732 603.832 l 1
 761.732 273.988 l 1
EndSplineSet
Validated: 9
EndChar

StartChar: uniE633
Encoding: 53 58931 53
Width: 1024
LayerCount: 2
Fore
SplineSet
674.944 633.406 m 1
 821.808 780.27 l 1
 664.41 780.27 l 1
 511.994 627.866 l 1
 359.594 780.27 l 1
 202.19 780.27 l 1
 349.066 633.406 l 1
 149.906 633.406 l 1
 149.906 97.446 l 1
 411.954 97.446 l 1
 511.996 197.502 l 1
 612.054 97.446 l 1
 874.102 97.446 l 1
 874.102 633.406 l 1
 674.944 633.406 l 1
511.992 354.976 m 1
 365.834 208.766 l 1
 261.21 208.766 l 1
 261.21 522.096 l 1
 762.782 522.096 l 1
 762.782 208.764 l 1
 658.16 208.764 l 1
 511.992 354.976 l 1
EndSplineSet
Validated: 9
EndChar

StartChar: uniE634
Encoding: 54 58932 54
Width: 1024
LayerCount: 2
Fore
SplineSet
693.758 301.802 m 1
 783.396 301.802 l 1
 783.396 517.026 l 1
 682.406 618.014 l 1
 619.022 554.63 l 1
 693.758 479.892 l 1
 693.758 301.802 l 1
783.632 256.864 m 1
 470.964 256.864 l 1
 396.228 331.602 l 1
 427.92 363.294 l 1
 489.65 301.566 l 1
 616.652 301.566 l 1
 491.54 426.916 l 1
 523.47 458.846 l 1
 648.582 333.732 l 1
 648.582 460.736 l 1
 587.092 522.23 l 1
 618.55 553.686 l 1
 463.16 709.782 l 1
 150.968 709.782 l 1
 240.37 620.382 l 1
 240.37 620.144 l 1
 425.794 620.144 l 1
 491.308 554.63 l 1
 395.52 458.844 l 1
 330.006 524.356 l 1
 330.006 575.206 l 1
 240.37 575.206 l 1
 240.37 487.224 l 1
 395.52 332.074 l 1
 332.372 268.926 l 1
 433.36 167.936 l 1
 873.03 167.936 l 1
 783.632 256.864 l 1
EndSplineSet
Validated: 9
EndChar

StartChar: uniE635
Encoding: 55 58933 55
Width: 1024
LayerCount: 2
Fore
SplineSet
542.614 766.018 m 1
 356.75 705.866 l 1
 759.308 575.612 l 1
 759.308 318.736 l 1
 491.054 231.994 l 1
 264.692 305.182 l 1
 264.692 556.808 l 1
 483.458 486.006 l 1
 669.322 546.12 l 1
 266.18 676.59 l 1
 150.276 639.086 l 1
 150.276 221.936 l 1
 491.054 111.698 l 1
 873.724 235.498 l 1
 873.724 658.86 l 1
 542.614 766.018 l 1
EndSplineSet
Validated: 9
EndChar

StartChar: uniE636
Encoding: 56 58934 56
Width: 1024
Flags: H
LayerCount: 2
Fore
SplineSet
112.9921875 785.057617188 m 5
 185.6171875 -30.732421875 l 5
 511.51171875 -121.341796875 l 5
 838.306640625 -30.607421875 l 5
 911.0078125 785.057617188 l 5
 112.9921875 785.057617188 l 5
263.881835938 591.458007812 m 5
 261.490234375 618.299804688 l 5
 511.654296875 618.299804688 l 5
 511.654296875 518.24609375 l 5
 370.671875 518.24609375 l 5
 379.801757812 415.791992188 l 5
 511.654296875 415.791992188 l 5
 511.654296875 315.73828125 l 5
 288.435546875 315.73828125 l 5
 263.881835938 591.458007812 l 5
741.440429688 388.921875 m 5
 717.963867188 125.513671875 l 5
 716.4609375 108.610351562 l 5
 511.540039062 51.71484375 l 5
 306.896484375 108.610351562 l 5
 292.899414062 265.708007812 l 5
 393.186523438 265.708007812 l 5
 400.299804688 185.912109375 l 5
 511.654296875 155.85546875 l 5
 623.078125 185.973632812 l 5
 634.673828125 315.736328125 l 5
 512 315.736328125 l 5
 512 415.790039062 l 5
 743.877929688 415.790039062 l 5
 741.440429688 388.921875 l 5
759.524414062 591.458007812 m 5
 754.974609375 540.734375 l 5
 752.970703125 518.244140625 l 5
 512 518.244140625 l 5
 512 618.297851562 l 5
 761.913085938 618.297851562 l 5
 759.524414062 591.458007812 l 5
EndSplineSet
Validated: 9
EndChar

StartChar: uniE637
Encoding: 57 58935 57
Width: 1024
LayerCount: 2
Fore
SplineSet
274.348 726.162 m 1
 274.348 726.162 749.652 773.694 749.652 852.91 c 2
 749.652 662.786 l 1
 749.652 662.786 749.652 583.57 274.348 536.04 c 1
 274.348 726.162 l 1
276.348 472.662 m 1
 276.348 472.662 751.652 520.194 751.652 599.412 c 2
 751.652 409.294 l 1
 751.652 409.294 751.652 330.076 276.348 282.544 c 1
 276.348 472.662 l 1
276.348 219.168 m 1
 276.348 219.168 751.652 266.698 751.652 345.914 c 2
 751.652 155.792 l 1
 751.652 155.792 751.652 76.576 276.348 29.044 c 1
 276.348 219.168 l 1
EndSplineSet
Validated: 1
EndChar

StartChar: uniE638
Encoding: 58 58936 58
Width: 1024
LayerCount: 2
Fore
SplineSet
401.824 216.97 m 1
 401.824 216.97 370.384 198.688 424.198 192.502 c 0
 489.39 185.064 522.71 186.13 594.55 199.726 c 1
 594.55 199.726 613.442 187.884 639.818 177.626 c 1
 478.764 108.6 275.324 181.624 401.824 216.97 c 1
382.142 307.042 m 1
 382.142 307.042 346.88 280.94 400.732 275.37 c 0
 470.372 268.188 525.372 267.598 620.534 285.92 c 1
 620.534 285.92 633.698 272.576 654.396 265.278 c 1
 459.676 208.342 242.79 260.79 382.142 307.042 c 1
548.048 459.834 m 0
 587.734 414.146 537.62 373.034 537.62 373.034 c 1
 537.62 373.034 638.384 425.048 592.11 490.186 c 0
 548.89 550.93 515.744 581.112 695.172 685.174 c 0
 695.174 685.174 413.53 614.832 548.048 459.834 c 0
761.052 150.346 m 1
 761.052 150.346 784.316 131.178 735.428 116.348 c 0
 642.468 88.184 348.514 79.682 266.854 115.224 c 0
 237.502 127.994 292.548 145.716 309.864 149.432 c 0
 327.922 153.35 338.242 152.62 338.242 152.62 c 1
 305.596 175.614 127.238 107.464 247.644 87.948 c 0
 576.014 34.698 846.224 111.928 761.052 150.346 c 1
416.94 400.364 m 2
 416.94 400.364 267.416 364.852 363.99 351.956 c 0
 404.766 346.498 486.052 347.734 561.766 354.076 c 0
 623.648 359.296 685.786 370.394 685.786 370.394 c 1
 685.786 370.394 663.964 361.05 648.178 350.27 c 1
 496.34 310.338 203.014 328.914 287.46 369.762 c 0
 358.876 404.282 416.94 400.364 416.94 400.364 c 2
685.168 250.438 m 0
 839.522 330.642 768.152 407.722 718.342 397.338 c 0
 706.132 394.796 700.688 392.594 700.688 392.594 c 1
 700.688 392.594 705.22 399.692 713.878 402.766 c 0
 812.422 437.412 888.212 300.584 682.066 246.394 c 0
 682.064 246.394 684.456 248.528 685.168 250.438 c 0
592.112 853.204 m 1
 592.112 853.204 677.59 767.694 511.032 636.204 c 0
 377.47 530.726 480.576 470.584 510.978 401.87 c 1
 433.014 472.212 375.8 534.132 414.186 591.764 c 0
 470.524 676.36 626.6 717.376 592.112 853.204 c 1
432.108 33.096 m 0
 580.268 23.61 807.778 38.358 813.164 108.464 c 1
 813.164 108.464 802.81 81.888 690.72 60.782 c 0
 564.266 36.984 408.302 39.762 315.798 55.014 c 1
 315.8 55.014 334.734 39.34 432.108 33.096 c 0
EndSplineSet
Validated: 37
EndChar

StartChar: uniE639
Encoding: 59 58937 59
Width: 1024
LayerCount: 2
Fore
SplineSet
302.604 87.994 m 1
 501.472 60.846 696.806 34.178 896.008 6.984 c 1
 828.142 119.984 762.022 230.076 695.354 341.088 c 1
 564.778 256.942 435.39 173.562 302.604 87.996 c 1
 302.604 87.994 l 1
952.144 713.44 m 0
 934.61 687.118 917.052 660.812 899.544 634.474 c 0
 839.418 544.016 779.296 453.558 719.228 363.06 c 0
 715.884 358.018 711.552 354.018 716.256 346.252 c 0
 774.302 250.408 831.884 154.282 889.612 58.244 c 0
 898.718 43.076 907.93 27.97 919.718 13.412 c 1
 931.382 246.504 943.05 479.598 954.716 712.69 c 0
 953.856 712.94 953 713.19 952.144 713.44 c 0
159.834 414.616 m 0
 162.552 412.04 169.322 410.548 172.48 412.098 c 0
 228.154 439.46 284.178 466.216 338.64 495.834 c 0
 356.396 505.486 370.048 522.784 385.35 536.82 c 0
 436.016 583.286 486.59 629.84 537.152 676.408 c 0
 540.252 679.264 543.908 682.034 545.756 685.64 c 0
 563.92 721.138 581.76 756.804 600.242 793.512 c 1
 578.21 801.788 557.318 809.894 536.17 817.272 c 0
 533.31 818.27 528.79 816.292 525.678 814.552 c 0
 476.728 787.208 426.848 761.324 379.454 731.5 c 0
 355.74 716.578 336.418 694.586 315.428 675.436 c 0
 281.584 644.548 247.794 613.586 214.438 582.164 c 0
 205.582 573.82 197.524 564.296 190.63 554.264 c 0
 167.816 521.054 145.698 487.362 122.55 452.716 c 1
 135.49 439.316 147.242 426.524 159.834 414.616 c 0
363.306 460.014 m 1
 335.612 343.014 308.072 226.676 279.632 106.516 c 1
 413.018 192.462 543.336 276.426 672.786 359.838 c 1
 569.774 393.18 467.08 426.42 363.308 460.014 c 1
 363.306 460.014 l 1
918.144 712.314 m 1
 805.442 693.49 695.43 675.11 583.996 656.494 c 1
 621.95 564.17 659.146 473.698 697.392 380.668 c 1
 771.406 491.862 843.944 600.842 918.144 712.314 c 1
367.948 483.952 m 1
 469.438 451.004 568.912 418.714 671.262 385.484 c 1
 633.244 478.084 596.546 567.454 559.074 658.71 c 1
 495.244 600.352 432.376 542.868 367.946 483.952 c 1
 367.948 483.952 l 1
164.022 346.388 m 1
 128.026 260.336 93.262 177.234 57.864 92.618 c 1
 125.892 94.628 191.842 96.58 260.05 98.592 c 1
 228.032 181.218 196.636 262.23 164.024 346.388 c 1
 164.022 346.388 l 1
262.44 157.438 m 0
 263.286 157.6 264.104 157.828 264.954 157.99 c 0
 289.224 258.93 313.85 359.174 338.64 464.06 c 1
 283.35 435.326 230.612 407.916 176.428 379.756 c 1
 204.076 307.876 233.562 232.07 262.44 157.438 c 0
877.346 728.686 m 1
 845.058 737.232 812.784 745.82 780.478 754.314 c 0
 734.05 766.514 687.594 778.574 641.196 790.89 c 0
 635.398 792.43 631.202 793.434 627.794 786.452 c 0
 611.396 752.856 594.49 719.508 577.828 686.04 c 0
 577.31 685.004 577.418 683.662 577.02 681.068 c 1
 677.562 696.304 777.428 711.44 877.288 726.576 c 0
 877.316 727.278 877.33 727.982 877.35 728.686 c 2
 877.346 728.686 l 1
690.048 805.1 m 1
 776.748 781.116 863.45 757.132 953.192 732.306 c 1
 938.096 775.314 924.102 815.188 909.716 856.194 c 1
 836.034 839.854 763.24 823.714 690.438 807.572 c 0
 690.308 806.75 690.182 805.924 690.052 805.1 c 2
 690.048 805.1 l 1
284.754 68.614 m 0
 252.16 72.368 218.704 68.912 185.648 68.35 c 0
 158.49 67.884 131.346 66.854 104.2 66.004 c 0
 101.398 65.916 98.612 65.36 95.824 62.34 c 1
 320.296 41.586 544.768 20.83 769.238 0.076 c 0
 769.396 1.076 769.54 2.076 769.7 3.076 c 1
 697.742 12.9 625.78 22.726 553.818 32.546 c 0
 464.154 44.786 374.636 58.254 284.754 68.614 c 0
62.302 170.068 m 1
 91.23 237.184 120.026 304.356 149.074 371.416 c 0
 151.982 378.138 151.756 382.704 146.07 388.122 c 0
 133.924 399.688 122.634 412.152 109.352 425.958 c 1
 91.398 337.334 73.892 250.91 56.382 164.484 c 0
 57.032 164.18 57.69 163.874 58.336 163.566 c 0
 59.674 165.726 61.31 167.758 62.302 170.066 c 2
 62.302 170.068 l 1
632.418 822.82 m 0
 681.196 835.406 730.684 845.238 779.882 856.222 c 0
 783.064 856.934 786.17 857.992 789.314 858.886 c 0
 789.152 859.686 788.992 860.488 788.832 861.29 c 0
 719.538 851.968 650.242 842.648 577.446 832.856 c 1
 597.302 824.174 612.592 817.704 632.418 822.82 c 0
EndSplineSet
Validated: 41
EndChar

StartChar: uniE63A
Encoding: 60 58938 60
Width: 1024
LayerCount: 2
Fore
SplineSet
512.002 800.874 m 0
 312.06 800.874 149.978 638.794 149.978 438.854 c 0
 149.978 238.928 312.058 76.842 512.002 76.842 c 0
 711.942 76.842 874.022 238.928 874.022 438.854 c 0
 874.022 638.794 711.944 800.874 512.002 800.874 c 0
593.226 676.206 m 0
 606.584 699.324 636.128 707.248 659.248 693.912 c 0
 682.368 680.556 690.276 651.01 676.924 627.89 c 0
 663.586 604.772 634.04 596.866 610.92 610.214 c 0
 587.816 623.552 579.892 653.1 593.226 676.206 c 0
511.996 648.824 m 0
 531.436 648.824 550.234 646.124 568.096 641.196 c 1
 571.246 621.774 582.77 603.882 601.15 593.274 c 0
 619.5 582.698 640.726 581.636 659.104 588.578 c 1
 694.842 553.432 718.102 505.634 721.49 452.392 c 1
 652.618 451.378 l 1
 646.266 523.494 585.754 580.044 512 580.044 c 0
 490.752 580.044 470.598 575.32 452.532 566.912 c 1
 418.948 627.094 l 1
 446.996 640.978 478.586 648.824 511.996 648.824 c 0
265.84 390.526 m 0
 239.132 390.526 217.494 412.162 217.494 438.854 c 0
 217.494 465.56 239.132 487.196 265.84 487.196 c 0
 292.532 487.196 314.168 465.56 314.168 438.854 c 0
 314.168 412.162 292.532 390.526 265.84 390.526 c 0
308.688 386.222 m 1
 323.946 398.672 333.714 417.624 333.714 438.856 c 0
 333.714 460.102 323.946 479.056 308.688 491.504 c 1
 321.764 542.092 353.23 585.288 395.518 613.554 c 1
 430.854 554.368 l 1
 394.55 528.816 370.826 486.616 370.826 438.852 c 0
 370.826 391.086 394.548 348.892 430.854 323.352 c 1
 395.518 264.152 l 1
 353.21 292.42 321.748 335.616 308.688 386.222 c 1
659.248 183.83 m 0
 636.128 170.474 606.584 178.4 593.248 201.518 c 0
 579.892 224.628 587.818 254.17 610.94 267.522 c 0
 634.04 280.858 663.6 272.932 676.938 249.834 c 0
 690.292 226.71 682.364 197.166 659.248 183.83 c 0
659.106 289.144 m 1
 640.73 296.09 619.514 295.042 601.152 284.452 c 0
 582.776 273.824 571.25 255.952 568.1 236.526 c 1
 550.238 231.58 531.44 228.882 512.002 228.882 c 0
 478.588 228.882 446.998 236.73 418.952 250.632 c 1
 452.536 310.812 l 1
 470.6 302.406 490.754 297.68 512.002 297.68 c 0
 585.758 297.68 646.268 354.208 652.604 426.346 c 1
 721.492 425.332 l 1
 718.104 372.084 694.844 324.288 659.106 289.144 c 1
EndSplineSet
Validated: 41
EndChar

StartChar: uniE63B
Encoding: 61 58939 61
Width: 1024
Flags: H
LayerCount: 2
Fore
SplineSet
142.30078125 -124.349609375 m 2
 602.909179688 -124.349609375 l 1
 602.909179688 -124.349609375 500.739257812 107.6875 526.7109375 320.668945312 c 0
 552.6953125 533.661132812 720.650390625 630.6328125 815.890625 641.01953125 c 0
 911.125976562 651.416992188 963.07421875 592.532226562 963.07421875 592.532226562 c 1
 983.858398438 623.706054688 l 1
 983.858398438 623.706054688 847.059570312 762.234375 673.89453125 746.647460938 c 0
 500.737304688 731.068359375 381.256835938 616.780273438 306.802734375 478.254882812 c 0
 232.344726562 339.71875 189.051757812 242.751953125 159.612304688 97.2978515625 c 0
 130.1796875 -48.154296875 142.30078125 -124.349609375 142.30078125 -124.349609375 c 2
50.5234375 107.6875 m 1
 140.56640625 100.752929688 l 1
 124.987304688 10.7197265625 l 1
 40.1396484375 21.1015625 l 1
 50.5234375 107.6875 l 1
192.512695312 298.16796875 m 1
 216.759765625 365.6953125 l 1
 137.106445312 396.869140625 l 1
 111.134765625 324.13671875 l 1
 192.512695312 298.16796875 l 1
305.063476562 530.200195312 m 1
 351.81640625 585.606445312 l 1
 291.208007812 625.432617188 l 1
 242.728515625 571.763671875 l 1
 305.063476562 530.200195312 l 1
428.012695312 744.913085938 m 1
 469.573242188 694.702148438 l 1
 526.713867188 727.599609375 l 1
 485.16015625 774.353515625 l 1
 428.012695312 744.913085938 l 1
630.609375 802.063476562 m 1
 640.999023438 751.83984375 l 1
 712.002929688 753.576171875 l 1
 705.065429688 798.592773438 l 1
 630.609375 802.063476562 l 1
871.307617188 748.381835938 m 1
 869.5703125 717.212890625 l 1
 918.060546875 691.241210938 l 1
 928.439453125 706.823242188 l 1
 871.307617188 748.381835938 l 1
860.912109375 615.045898438 m 1
 860.912109375 589.07421875 l 1
 907.666015625 583.879882812 l 1
 907.666015625 604.661132812 l 1
 860.912109375 615.045898438 l 1
712.002929688 592.532226562 m 1
 734.5078125 550.981445312 l 1
 767.403320312 576.953125 l 1
 760.482421875 604.661132812 l 1
 712.002929688 592.532226562 l 1
640.999023438 538.852539062 m 1
 675.625976562 486.907226562 l 1
 654.852539062 450.546875 l 1
 604.640625 505.952148438 l 1
 640.999023438 538.852539062 l 1
571.740234375 395.1328125 m 1
 549.224609375 350.116210938 l 1
 608.1015625 299.892578125 l 1
 621.954101562 357.04296875 l 1
 571.740234375 395.1328125 l 1
547.493164062 237.556640625 m 1
 544.03515625 176.948242188 l 1
 616.764648438 145.774414062 l 1
 613.301757812 202.922851562 l 1
 547.493164062 237.556640625 l 1
568.266601562 22.841796875 m 1
 585.598632812 -39.501953125 l 1
 677.35546875 -44.6962890625 l 1
 644.459960938 22.841796875 l 1
 568.266601562 22.841796875 l 1
EndSplineSet
Validated: 524329
EndChar

StartChar: uniE63C
Encoding: 62 58940 62
Width: 1024
Flags: H
LayerCount: 2
Fore
SplineSet
398.787109375 373.033203125 m 2
 624.130859375 373.033203125 l 2
 686.861328125 373.033203125 736.9375 424.676757812 736.9375 487.680664062 c 2
 736.9375 702.5078125 l 2
 736.9375 763.64453125 685.358398438 809.578125 624.130859375 819.78125 c 0
 585.375976562 826.231445312 545.159179688 829.1640625 506.595703125 828.985351562 c 0
 468.022460938 828.805664062 431.193359375 825.51953125 398.787109375 819.78125 c 0
 303.314453125 802.912109375 285.98046875 767.612304688 285.98046875 702.5078125 c 2
 285.98046875 616.525390625 l 1
 511.58984375 616.525390625 l 1
 511.58984375 587.866210938 l 1
 201.314453125 587.866210938 l 2
 135.745117188 587.866210938 78.3310546875 548.455078125 60.373046875 473.484375 c 0
 39.6591796875 387.546875 38.736328125 333.921875 60.373046875 244.1953125 c 0
 76.4072265625 177.396484375 114.708007812 129.811523438 180.27734375 129.811523438 c 2
 257.848632812 129.811523438 l 1
 257.848632812 232.890625 l 2
 257.848632812 307.346679688 322.276367188 373.033203125 398.787109375 373.033203125 c 2
384.587890625 673.845703125 m 0
 361.198242188 673.845703125 342.251953125 693.0078125 342.251953125 716.704101562 c 0
 342.251953125 740.483398438 361.198242188 759.827148438 384.587890625 759.827148438 c 0
 407.891601562 759.827148438 426.920898438 740.486328125 426.920898438 716.704101562 c 0
 426.920898438 693.009765625 407.891601562 673.845703125 384.587890625 673.845703125 c 0
962.544921875 473.481445312 m 0
 946.34375 538.749023438 915.393554688 587.86328125 849.744140625 587.86328125 c 2
 765.07421875 587.86328125 l 1
 765.07421875 487.680664062 l 2
 765.07421875 410.002929688 699.221679688 344.635742188 624.133789062 344.635742188 c 2
 398.7890625 344.635742188 l 2
 337.060546875 344.635742188 285.983398438 291.806640625 285.983398438 229.991210938 c 2
 285.983398438 15.1591796875 l 2
 285.983398438 -45.982421875 339.150390625 -81.951171875 398.7890625 -99.4833984375 c 0
 470.203125 -120.485351562 538.682617188 -124.284179688 624.133789062 -99.4833984375 c 0
 680.930664062 -83.04296875 736.940429688 -49.9423828125 736.940429688 15.1591796875 c 2
 736.940429688 101.146484375 l 1
 511.58984375 101.146484375 l 1
 511.58984375 129.805664062 l 1
 849.744140625 129.805664062 l 2
 915.310546875 129.805664062 939.743164062 175.541992188 962.544921875 244.190429688 c 0
 986.09765625 314.85546875 985.096679688 382.819335938 962.544921875 473.481445312 c 0
638.330078125 43.826171875 m 0
 661.713867188 43.826171875 680.663085938 24.6640625 680.663085938 0.962890625 c 0
 680.663085938 -22.81640625 661.713867188 -42.158203125 638.330078125 -42.158203125 c 0
 615.026367188 -42.158203125 595.997070312 -22.8193359375 595.997070312 0.962890625 c 0
 595.997070312 24.6640625 615.026367188 43.826171875 638.330078125 43.826171875 c 0
EndSplineSet
Validated: 524329
EndChar

StartChar: uniE63D
Encoding: 63 58941 63
Width: 1024
LayerCount: 2
Fore
SplineSet
331.89 541.78 m 2
 204.952 541.78 l 1
 150.062 263.894 l 1
 215.246 263.894 l 1
 228.97 335.94 l 1
 290.722 335.94 l 2
 349.042 332.506 414.226 380.534 414.226 462.872 c 0
 414.226 510.902 386.78 538.348 331.89 541.78 c 2
283.858 387.4 m 2
 242.69 387.4 l 1
 259.846 490.32 l 1
 304.444 490.32 l 2
 328.458 490.32 345.612 480.028 345.612 459.442 c 0
 342.18 401.122 314.736 390.83 283.858 387.4 c 2
561.746 541.78 m 2
 499.992 541.78 l 1
 513.718 613.822 l 1
 448.532 613.822 l 1
 393.644 335.94 l 1
 458.826 335.94 l 1
 489.7 490.32 l 1
 541.158 490.32 l 2
 565.18 490.32 565.18 480.028 561.748 462.87 c 2
 537.734 335.938 l 1
 606.348 335.938 l 1
 630.362 476.594 l 2
 637.22 510.902 616.636 538.348 561.746 541.78 c 2
791.6 541.78 m 2
 664.664 541.78 l 1
 609.77 263.892 l 1
 674.958 263.892 l 1
 688.676 335.938 l 1
 750.43 335.938 l 2
 808.75 332.504 873.938 380.532 873.938 462.87 c 0
 873.938 510.902 846.492 538.348 791.6 541.78 c 2
743.57 387.4 m 2
 702.402 387.4 l 1
 719.554 490.32 l 1
 764.154 490.32 l 2
 788.172 490.32 805.324 480.028 805.324 459.442 c 0
 801.89 401.122 774.448 390.83 743.57 387.4 c 2
EndSplineSet
Validated: 41
EndChar

StartChar: uniE63E
Encoding: 64 58942 64
Width: 1024
LayerCount: 2
Fore
SplineSet
821.56 664.94 m 2
 202.44 664.94 l 2
 173.672 664.94 150.268 641.536 150.268 612.768 c 2
 150.268 264.95 l 2
 150.268 236.18 173.672 212.776 202.44 212.776 c 2
 821.56 212.776 l 2
 850.328 212.776 873.73 236.18 873.73 264.95 c 2
 873.73 612.768 l 2
 873.73 641.536 850.328 664.94 821.56 664.94 c 2
557.216 303.298 m 1
 466.782 303.208 l 1
 466.782 438.858 l 1
 398.958 351.9 l 1
 331.134 438.858 l 1
 331.134 303.208 l 1
 240.7 303.208 l 1
 240.7 574.506 l 1
 331.134 574.506 l 1
 398.958 484.074 l 1
 466.782 574.506 l 1
 557.216 574.594 l 1
 557.216 303.298 l 1
692.222 280.688 m 1
 579.826 438.858 l 1
 647.648 438.858 l 1
 647.648 574.506 l 1
 738.082 574.506 l 1
 738.082 438.858 l 1
 805.906 438.858 l 1
 692.222 280.688 l 1
EndSplineSet
Validated: 9
EndChar

StartChar: uniE63F
Encoding: 65 58943 65
Width: 1024
Flags: H
LayerCount: 2
Fore
SplineSet
978.900390625 318.649414062 m 0
 972.670898438 325.659179688 886.514648438 433.509765625 871.333007812 451.810546875 c 0
 856.15234375 470.112304688 848.75 466.799804688 839.405273438 465.4375 c 0
 830.05859375 464.075195312 721.045898438 445.776367188 708.388671875 443.633789062 c 0
 695.734375 441.494140625 687.75 436.4296875 695.541992188 425.530273438 c 0
 702.463867188 415.834960938 774.134765625 314.229492188 789.921875 291.8515625 c 1
 504.99609375 223.595703125 l 1
 278.392578125 602.439453125 l 2
 269.374023438 615.81640625 267.499023438 620.486328125 246.969726562 619.555664062 c 0
 226.439453125 618.624023438 69.212890625 605.559570312 58.01171875 604.625976562 c 0
 46.8134765625 603.690429688 34.5205078125 598.706054688 45.71875 572.268554688 c 0
 56.9169921875 545.830078125 235.477539062 161.044921875 240.454101562 149.849609375 c 0
 245.430664062 138.654296875 258.370117188 120.482421875 288.66796875 127.767578125 c 0
 319.709960938 135.219726562 427.357421875 163.317382812 486.176757812 178.72265625 c 1
 517.254882812 122.440429688 580.642578125 8.2744140625 592.366210938 -8.087890625 c 0
 608.015625 -29.927734375 618.790039062 -26.31640625 642.814453125 -19.033203125 c 0
 661.573242188 -13.349609375 936.34375 85.462890625 948.719726562 90.5537109375 c 0
 961.098632812 95.65234375 968.740234375 99.2900390625 960.368164062 111.668945312 c 0
 954.2109375 120.768554688 881.725585938 217.87890625 843.7578125 268.674804688 c 1
 869.760742188 275.595703125 962.2265625 300.217773438 972.083007812 302.888671875 c 0
 983.573242188 305.995117188 985.135742188 311.639648438 978.900390625 318.649414062 c 0
460.916015625 212.741210938 m 0
 457.514648438 212.012695312 297.926757812 173.819335938 289.4140625 171.874023438 c 0
 280.896484375 169.923828125 280.899414062 170.901367188 279.924804688 173.819335938 c 0
 278.94921875 176.736328125 90.181640625 565.9765625 87.560546875 570.841796875 c 0
 84.9404296875 575.706054688 85.0751953125 579.561523438 87.560546875 579.561523438 c 0
 90.0439453125 579.561523438 238.275390625 592.811523438 243.51953125 593.086914062 c 0
 248.763671875 593.36328125 248.211914062 592.260742188 250.143554688 588.9453125 c 2
 250.143554688 588.9453125 459.217773438 228.065429688 462.868164062 221.737304688 c 0
 466.515625 215.423828125 464.327148438 213.474609375 460.916015625 212.741210938 c 0
910.866210938 128.407226562 m 0
 913.412109375 124.400390625 915.959960938 121.85546875 907.954101562 118.943359375 c 0
 899.94921875 116.03125 637.861328125 27.58203125 632.767578125 25.3984375 c 0
 627.671875 23.2109375 623.672851562 22.486328125 617.12109375 31.9521484375 c 0
 610.56640625 41.4140625 525.301757812 188.982421875 525.301757812 188.982421875 c 1
 803.122070312 261.275390625 l 2
 810.038085938 263.45703125 812.219726562 264.91015625 816.590820312 257.999023438 c 0
 820.956054688 251.078125 908.321289062 132.4140625 910.866210938 128.407226562 c 0
928.676757812 325.659179688 m 0
 922.44921875 324.296875 820.438476562 298.98828125 820.438476562 298.98828125 c 1
 737.006835938 413.458007812 l 2
 734.669921875 416.765625 732.727539062 420.078125 738.564453125 420.85546875 c 0
 744.40625 421.6328125 839.209960938 438.766601562 843.495117188 439.739257812 c 0
 847.774414062 440.711914062 851.474609375 441.87890625 856.729492188 434.676757812 c 0
 861.989257812 427.474609375 934.12890625 336.170898438 936.853515625 332.666015625 c 0
 939.578125 329.161132812 934.90625 327.024414062 928.676757812 325.659179688 c 0
EndSplineSet
Validated: 524329
EndChar

StartChar: uniE640
Encoding: 66 58944 66
Width: 1024
LayerCount: 2
Fore
SplineSet
862.114 634.848 m 1
 512.236 850.956 l 1
 161.338 634.51 l 1
 161.338 243.206 l 1
 254.912 187.44 l 1
 254.912 580.636 l 1
 512.236 740.37 l 1
 769.09 580.636 l 1
 769.09 186.494 l 1
 862.66 243.206 l 1
 862.66 634.51 l 1
 862.114 634.848 l 1
563.04 465.352 m 1
 563.04 143.018 l 1
 512.236 110.882 l 1
 460.96 143.018 l 1
 460.96 601.43 l 1
 346.594 530.542 l 1
 346.594 129.788 l 1
 512.236 26.76 l 1
 677.406 129.788 l 1
 677.406 530.542 l 1
 563.04 601.43 l 1
 563.04 465.352 l 1
EndSplineSet
Validated: 9
EndChar

StartChar: uniE641
Encoding: 67 58945 67
Width: 1024
LayerCount: 2
Fore
SplineSet
226.926 608.708 m 1
 210.598 554.118 223.946 492.554 267.038 449.452 c 2
 427.786 288.862 l 1
 499.036 360.17 l 1
 338.3 520.762 l 2
 315.252 543.822 315.194 581.454 338.43 604.692 c 0
 361.586 627.848 399.11 627.848 422.242 604.716 c 2
 427.784 599.152 l 1
 499.108 670.452 l 1
 493.566 675.994 l 2
 452.906 716.654 395.836 730.884 343.688 718.656 c 1
 336.204 764.576 296.354 799.632 248.304 799.656 c 0
 194.94 799.656 151.682 756.374 151.66 703 c 0
 151.658 656.962 183.832 618.446 226.926 608.708 c 1
360.704 515.294 m 1
 432.04 443.996 l 1
 592.738 604.564 l 2
 615.976 627.802 653.406 627.742 676.478 604.694 c 0
 699.62 581.564 699.62 544.014 676.454 520.86 c 2
 670.948 515.342 l 1
 742.224 443.998 l 1
 747.788 449.572 l 2
 790.426 492.26 803.99 553 788.424 607.174 c 1
 835.784 613.408 872.342 653.948 872.342 703 c 0
 872.368 756.398 829.072 799.656 775.698 799.656 c 0
 726.84 799.656 686.452 763.404 679.946 716.346 c 1
 625.568 732.312 564.388 718.802 521.462 675.888 c 2
 507.544 662.006 l 1
 360.704 515.294 l 1
790.19 270.412 m 1
 802.942 322.87 788.786 380.548 747.79 421.54 c 2
 587.268 582.22 l 1
 515.936 510.956 l 1
 676.456 350.278 l 2
 699.694 327.04 699.648 289.622 676.586 266.524 c 0
 653.456 243.406 615.892 243.406 592.738 266.552 c 2
 587.268 272.032 l 1
 516.004 200.696 l 1
 521.462 195.238 l 2
 564.886 151.84 627.02 138.558 681.862 155.434 c 1
 690.8 111.274 729.816 78.058 776.604 78.058 c 0
 829.954 78.058 873.246 121.304 873.246 174.69 c 0
 873.248 223.46 837.142 263.8 790.19 270.412 c 1
654.074 355.788 m 1
 582.81 427.108 l 1
 422.242 266.434 l 2
 399.194 243.364 361.562 243.312 338.324 266.528 c 0
 315.168 289.72 315.168 327.2 338.3 350.364 c 2
 343.816 355.836 l 1
 272.482 427.11 l 1
 267.036 421.676 l 2
 225.576 380.226 211.596 321.726 225.088 268.77 c 1
 182.472 258.712 150.752 220.398 150.752 174.696 c 0
 150.74 121.332 194.01 78.064 247.41 78.064 c 0
 293.326 78.1 331.77 110.084 341.624 153.032 c 1
 394.332 139.95 452.392 153.962 493.564 195.15 c 2
 654.074 355.788 l 1
EndSplineSet
Validated: 41
EndChar

StartChar: uniE642
Encoding: 68 58946 68
Width: 1024
LayerCount: 2
Fore
SplineSet
692.068 698.602 m 0
 649.838 724.894 610.004 735.25 570.164 761.546 c 0
 545.462 778.28 511.202 818.116 482.524 852.378 c 1
 476.946 797.402 460.212 775.09 441.09 759.158 c 0
 400.454 727.288 374.958 717.724 339.9 698.606 c 0
 310.422 683.468 150.27 587.856 150.27 382.29 c 0
 150.27 176.724 323.17 25.34 515.19 25.34 c 0
 707.212 25.34 873.732 164.774 873.732 375.914 c 0
 873.732 587.054 717.566 682.664 692.068 698.602 c 0
696.674 100.322 m 0
 692.69 96.338 656.038 70.842 613.014 66.858 c 0
 569.988 62.876 511.822 60.482 476.764 92.354 c 0
 471.188 97.932 472.782 105.9 476.764 109.084 c 0
 480.75 112.272 483.938 114.662 488.716 114.662 c 0
 493.5 114.662 492.7 114.662 495.092 113.068 c 0
 511.026 100.322 534.93 89.962 585.922 89.962 c 0
 636.914 89.962 672.77 104.302 688.708 116.254 c 0
 695.878 121.828 699.068 117.05 699.86 113.866 c 0
 700.656 110.678 702.248 105.9 696.674 100.322 c 0
557.24 172.826 m 0
 566.002 180.794 580.346 193.54 593.888 199.118 c 0
 607.434 204.696 614.602 203.9 627.35 203.9 c 0
 640.098 203.9 653.642 203.104 663.206 196.728 c 0
 672.766 190.352 678.344 176.01 681.528 168.044 c 0
 684.718 160.076 681.528 155.298 675.156 152.11 c 0
 669.578 148.92 668.78 150.51 663.202 160.872 c 0
 657.626 171.232 652.842 181.59 624.958 181.59 c 0
 597.074 181.59 588.306 172.028 574.76 160.872 c 0
 561.218 149.716 556.436 145.736 551.654 152.11 c 0
 546.876 158.484 548.47 164.858 557.24 172.826 c 0
768.378 166.456 m 0
 739.694 168.842 682.33 258.078 645.676 259.674 c 0
 599.466 261.264 499.072 163.264 420.194 163.264 c 0
 372.386 163.264 358.042 170.436 342.108 180.796 c 0
 318.204 197.526 306.254 223.022 307.05 258.078 c 0
 307.846 320.23 366.01 378.394 439.316 379.192 c 0
 532.532 379.984 597.074 286.766 644.084 287.566 c 0
 683.92 288.36 760.41 366.442 797.858 366.442 c 0
 837.7 366.442 848.852 325.008 848.852 300.316 c 0
 848.852 275.614 840.888 230.996 821.762 203.108 c 0
 802.64 175.214 790.69 164.858 768.378 166.456 c 0
EndSplineSet
Validated: 41
EndChar

StartChar: uniE643
Encoding: 69 58947 69
Width: 1024
LayerCount: 2
Fore
SplineSet
646.592 438.858 m 0
 646.592 364.526 586.332 304.266 512 304.266 c 0
 437.668 304.266 377.408 364.526 377.408 438.858 c 0
 377.408 513.19 437.668 573.45 512 573.45 c 0
 586.332 573.45 646.592 513.19 646.592 438.858 c 0
511.194 599.23 m 1
 511.194 599.24 l 1
 836.444 599.24 l 1
 777.314 718.626 654.252 800.724 512 800.724 c 0
 396.842 800.724 294.256 746.926 227.982 663.1 c 1
 352.066 450.902 l 1
 358.206 533.584 427.036 598.812 511.194 599.23 c 1
512 278.48 m 0
 442.596 278.48 383.496 322.566 361.158 384.258 c 1
 211.398 640.37 l 1
 172.716 582.772 150.134 513.454 150.134 438.858 c 0
 150.134 256.71 284.72 106.022 459.87 80.746 c 1
 584.718 295.872 l 1
 562.888 284.752 538.18 278.48 512 278.48 c 0
847.988 573.45 m 1
 599.242 573.45 l 1
 643.26 544.858 672.378 495.262 672.378 438.858 c 0
 672.378 411.124 665.336 385.03 652.944 362.272 c 1
 653.038 362.218 l 1
 487.98 77.808 l 1
 495.92 77.286 503.926 76.994 511.998 76.994 c 0
 711.852 76.994 873.864 239.006 873.864 438.86 c 0
 873.866 486.426 864.67 531.846 847.988 573.45 c 1
EndSplineSet
Validated: 41
EndChar

StartChar: uniE644
Encoding: 70 58948 70
Width: 1024
LayerCount: 2
Fore
SplineSet
870.174 422.206 m 0
 870.174 478.204 857.09 530.994 833.96 577.444 c 1
 840.47 594.852 848.174 618.628 856.522 650.672 c 0
 883.512 754.208 821.432 815.878 726.176 805.824 c 0
 668.324 799.72 613.86 783.198 561.202 758.492 c 0
 556.952 758.666 552.684 758.78 548.392 758.78 c 0
 389.964 758.78 258.28 639.024 231.56 481.338 c 1
 297.756 581.35 394.322 634.352 394.322 634.352 c 1
 328.4 562.112 271.53 491.028 229.3 416.1 c 0
 228.494 414.758 227.698 413.398 226.924 412.008 c 0
 191.678 348.542 167.014 282.238 156.398 210.062 c 0
 141.842 111.092 189.392 58.22 290.964 73.392 c 0
 325.872 78.612 389.102 110.496 407.016 119.8 c 1
 449.694 97.93 497.664 85.634 548.392 85.634 c 0
 688.494 85.634 807.664 179.298 851.842 310.016 c 1
 677.68 310.016 l 1
 652.968 264.926 606.52 234.542 553.27 234.542 c 0
 476.394 234.542 413.666 297.844 410.102 377.33 c 1
 867.326 377.33 l 1
 869.194 392.016 870.174 406.988 870.174 422.206 c 0
292.914 97.876 m 0
 238.594 91.892 168.442 153.798 248.4 300.278 c 1
 274.198 230.884 321.366 172.666 381.454 134.448 c 1
 364.832 124.68 322.19 101.098 292.914 97.876 c 0
411.158 477.282 m 1
 420.252 550.924 480.386 607.832 553.268 607.832 c 0
 626.148 607.832 686.284 550.924 695.378 477.282 c 1
 411.158 477.282 l 1
668.9 734.358 m 1
 804.58 800.888 853.878 729.828 838.972 657.384 c 0
 836.918 647.406 829.46 620.862 822.858 597.956 c 1
 787.04 659.026 733.118 707.21 668.9 734.358 c 1
EndSplineSet
Validated: 41
EndChar

StartChar: uniE645
Encoding: 71 58949 71
Width: 1024
LayerCount: 2
Fore
SplineSet
753.63 706.144 m 1
 751.644 708.104 749.632 710.042 747.598 711.956 c 1
 749.602 710.022 751.614 708.086 753.63 706.144 c 1
166.614 511.714 m 2
 166.614 511.714 165.592 510.462 164.052 508.38 c 0
 163.834 507.242 163.604 506.102 163.398 504.962 c 1
 164.366 507.656 165.432 509.94 166.614 511.714 c 2
268.364 676.026 m 0
 269.022 676.696 269.666 677.378 270.33 678.042 c 0
 300.994 708.706 336.7 732.78 376.454 749.592 c 0
 417.602 766.996 461.32 775.822 506.396 775.822 c 0
 548.942 775.822 590.282 767.948 629.394 752.43 c 1
 652.236 748.482 682.684 740.884 708.058 726.46 c 1
 651.126 766.892 581.536 790.662 506.396 790.662 c 0
 408.976 790.662 320.9 750.694 257.636 686.278 c 1
 260.578 682.698 264.124 679.248 268.364 676.026 c 0
392.144 413.786 m 0
 389.718 415.808 387.64 417.97 385.872 420.224 c 1
 385.278 415.244 384.882 409.886 384.884 404.26 c 0
 384.882 393.78 386.194 382.464 389.774 371.248 c 0
 393.36 360.026 399.186 348.896 408.368 338.566 c 0
 414.492 331.68 422.126 325.136 431.674 319.19 c 1
 431.14 318.33 l 1
 449.07 318.006 478.252 318.35 493.04 323.28 c 0
 515.294 330.698 550.904 358.89 550.904 358.89 c 2
 559.806 367.794 570.196 363.342 579.096 363.342 c 0
 588 363.342 590.97 376.696 579.096 390.05 c 0
 567.226 403.404 525.682 416.756 494.526 395.984 c 0
 463.364 375.21 418.852 391.53 392.144 413.786 c 0
413.652 609.602 m 1
 411.666 602.208 409.944 592.822 409.95 582.618 c 0
 409.952 572.316 411.676 561.238 416.522 550.338 c 0
 420.41 541.594 424.078 535.182 427.414 530.032 c 0
 429.762 526.414 431.946 523.424 433.992 520.64 c 1
 438.17 524.484 443.052 528.342 447.044 531.004 c 0
 455.946 536.938 490.072 553.26 494.524 557.712 c 0
 498.976 562.164 507.878 585.904 500.458 593.322 c 0
 493.04 600.742 445.56 596.29 430.722 599.258 c 0
 424.472 600.504 418.488 604.916 413.652 609.602 c 1
423.234 464.42 m 0
 423.278 464.3 423.302 464.234 423.302 464.234 c 2
 423.36 464.35 423.408 464.47 423.464 464.586 c 2
 423.234 464.42 l 0
862.496 531.004 m 0
 862.496 518.942 851.604 502.04 849.496 498.884 c 1
 849.934 500.006 850.624 503.538 850.624 514.68 c 0
 850.624 531.002 855.08 572.548 834.304 618.544 c 0
 813.53 664.54 782.372 686.796 782.372 686.796 c 1
 782.372 676.412 l 1
 777.92 691.248 736.376 719.44 736.376 719.44 c 1
 736.376 704.602 l 1
 810.564 636.352 817.984 588.872 817.984 588.872 c 1
 804.63 631.9 766.05 664.542 733.408 695.702 c 0
 700.768 726.86 632.514 743.18 632.514 743.18 c 1
 705.22 701.638 740.828 636.352 740.828 636.352 c 2
 703.732 671.962 674.056 668.992 674.056 668.992 c 1
 696.314 652.672 706.7 634.868 727.472 602.222 c 0
 748.246 569.58 746.762 492.426 746.762 492.426 c 1
 736.378 517.65 715.604 528.036 715.604 528.036 c 1
 715.604 528.036 720.058 483.524 723.024 458.3 c 0
 725.988 433.078 712.638 385.596 712.638 385.596 c 2
 712.638 403.402 702.254 407.854 702.254 407.854 c 1
 702.254 407.854 705.22 397.468 690.38 349.986 c 0
 675.542 302.506 647.352 286.184 642.902 287.668 c 0
 638.448 289.152 642.902 296.572 642.902 296.572 c 1
 642.902 296.572 635.482 302.506 625.098 286.184 c 0
 616.336 272.42 601.24 264.986 596.732 262.996 c 1
 601.572 265.742 602.84 275.796 602.84 275.796 c 1
 602.84 275.796 592.456 269.862 544.972 262.442 c 0
 497.492 255.024 475.236 275.796 475.236 275.796 c 1
 479.686 280.25 500.46 275.796 500.46 275.796 c 1
 500.46 280.25 476.72 287.668 452.978 290.634 c 0
 433.678 293.048 424.318 302 419.844 309.176 c 0
 410.94 315.158 403.476 321.738 397.28 328.706 c 0
 390.184 336.688 384.764 345.168 380.722 353.774 c 0
 372.632 371.002 370.05 388.658 370.05 404.258 c 0
 370.052 418.988 372.344 431.94 374.632 441.288 c 0
 376.926 450.628 379.226 456.366 379.328 456.62 c 1
 379.328 456.62 l 1
 379.646 456.494 l 1
 382.432 465.07 387.902 471.962 394.378 474.774 c 1
 392.346 476.16 390.262 477.448 388.112 478.584 c 0
 378.422 483.768 367.44 485.918 356.644 484.126 c 0
 345.826 482.416 335.47 477.052 326.266 470.018 c 0
 317.432 463.278 310.402 453.682 305.792 443.092 c 0
 301.146 432.464 298.822 420.736 298.822 408.954 c 0
 298.812 397.156 301.132 385.304 305.41 374.144 c 0
 309.676 362.968 315.87 352.484 323.356 342.994 c 0
 330.842 333.488 339.608 324.954 349.118 317.346 c 1
 339.2 324.414 329.918 332.48 321.794 341.694 c 0
 313.674 350.886 306.726 361.246 301.658 372.588 c 0
 296.58 383.908 293.42 396.21 292.73 408.78 c 0
 292.032 421.336 293.796 434.142 298.254 446.126 c 0
 302.722 458.088 309.824 469.286 319.93 477.958 c 0
 324.814 482.046 330.128 485.76 335.9 488.836 c 0
 341.662 491.912 347.926 494.308 354.522 495.66 c 0
 361.106 497.014 368.006 497.27 374.732 496.332 c 0
 381.466 495.414 387.992 493.346 394.03 490.476 c 0
 400.08 487.606 405.668 483.962 410.784 479.82 c 0
 413.342 477.744 415.786 475.542 418.12 473.21 c 0
 419.286 472.048 420.424 470.848 421.536 469.608 c 0
 422.462 468.566 423.318 467.58 424.244 466.406 c 1
 429.53 480.112 425.824 503.022 424.954 507.83 c 0
 422.156 511.79 418.186 516.788 413.71 523.922 c 0
 410.338 529.306 406.692 535.91 402.96 544.312 c 0
 397.12 557.448 395.108 570.674 395.108 582.62 c 0
 395.112 596.568 397.824 608.828 400.522 617.674 c 0
 401.356 620.4 402.188 622.802 402.948 624.83 c 0
 411.332 661.302 451.492 697.182 451.492 697.182 c 1
 395.11 704.6 356.532 652.67 356.532 652.67 c 2
 356.376 652.766 356.216 652.852 356.058 652.946 c 0
 352.058 648.516 338.506 632.662 337.244 620.028 c 2
 337.244 620.028 337.712 642.736 343.392 658.61 c 1
 321.878 665.466 296.558 661.886 283.572 659.192 c 1
 283.658 658.722 l 1
 270.35 656.336 258.198 651.214 247.4 644.768 c 0
 236.608 638.326 227.192 630.566 219.456 623.05 c 0
 204.002 608.048 195.276 594.038 195.186 593.882 c 1
 195.186 593.882 l 1
 195.188 593.876 l 1
 194.77 594.134 l 1
 167.464 554.558 150.296 470.166 150.296 470.166 c 2
 153.264 483.52 166.618 499.842 166.618 499.842 c 2
 151.782 477.586 154.748 375.208 154.748 375.208 c 2
 154.748 391.528 163.65 410.818 163.65 410.818 c 1
 166.618 376.694 181.454 266.896 277.9 183.804 c 0
 374.346 100.712 455.95 93.292 455.95 93.292 c 2
 436.662 99.23 432.212 108.132 432.212 108.132 c 1
 494.53 82.908 533.106 87.358 533.106 87.358 c 2
 522.718 93.292 521.232 97.744 521.232 97.744 c 1
 588.004 94.776 677.03 118.516 697.802 133.354 c 0
 718.574 148.194 736.38 177.868 736.38 177.868 c 1
 789.796 203.09 826.89 255.024 837.274 281.732 c 0
 847.662 308.44 837.274 336.63 837.274 336.63 c 1
 837.274 336.63 837.274 338.112 862.498 394.498 c 0
 887.72 450.878 862.496 531.004 862.496 531.004 c 0
239.512 657.34 m 0
 245.77 661.096 252.526 664.486 259.73 667.284 c 1
 231.164 691.076 233.382 722.408 233.382 722.408 c 1
 204.798 694.81 197.824 648.232 196.362 620.064 c 1
 196.766 620.536 197.168 621.012 197.588 621.494 c 0
 207.258 632.616 221.372 646.446 239.512 657.34 c 0
EndSplineSet
Validated: 37
EndChar

StartChar: uniE646
Encoding: 72 58950 72
Width: 1024
LayerCount: 2
Fore
SplineSet
656.872 434.196 m 0
 656.884 436.87 656.896 439.562 656.896 442.286 c 2
 656.816 442.286 l 1
 655.858 543.738 645.416 608.586 630.93 651.704 c 0
 623.324 674.314 614.58 690.958 605.508 703.632 c 0
 596.448 716.306 587.054 724.984 578.468 731.632 c 0
 568.152 739.602 555.944 743.868 544.776 746.25 c 0
 533.592 748.622 523.4 749.082 516.944 749.084 c 0
 514.87 749.084 513.204 749.038 511.998 748.984 c 0
 510.796 749.036 509.124 749.084 507.058 749.084 c 0
 500.604 749.082 490.404 748.622 479.226 746.25 c 0
 468.056 743.87 455.848 739.604 445.534 731.632 c 0
 436.946 724.984 427.552 716.308 418.496 703.632 c 0
 404.886 684.606 392.038 656.71 382.608 613.032 c 0
 373.762 572.06 367.88 517.148 367.18 442.286 c 1
 367.108 442.286 l 2
 367.108 439.972 367.12 437.7 367.132 435.42 c 0
 367.118 432.676 367.108 429.91 367.108 427.116 c 2
 367.192 427.116 l 1
 368.172 328.538 378.61 265.478 393.098 223.51 c 0
 400.71 201.474 409.464 185.252 418.542 172.894 c 0
 427.612 160.538 437.01 152.086 445.598 145.612 c 0
 455.914 137.852 468.106 133.708 479.262 131.388 c 0
 490.428 129.082 500.618 128.636 507.066 128.632 c 0
 509.134 128.632 510.806 128.68 512.004 128.732 c 0
 513.206 128.684 514.876 128.632 516.946 128.632 c 0
 523.396 128.636 533.578 129.082 544.75 131.388 c 0
 555.902 133.708 568.1 137.852 578.406 145.612 c 0
 586.998 152.088 596.396 160.538 605.468 172.894 c 0
 619.09 191.44 631.948 218.64 641.39 261.196 c 0
 650.23 301.046 656.098 354.41 656.822 427.114 c 1
 656.896 427.114 l 2
 656.894 429.5 656.882 431.848 656.872 434.196 c 0
619.956 227.324 m 0
 612.664 206.218 604.446 191.116 596.134 179.802 c 0
 587.818 168.49 579.416 160.936 571.446 154.914 c 0
 563.132 148.622 552.498 144.864 542.406 142.786 c 0
 532.32 140.702 522.834 140.264 516.944 140.268 c 0
 515.456 140.268 514.2 140.298 513.22 140.328 c 2
 513.208 140.442 l 1
 513.204 140.442 l 2
 513.184 140.442 512.754 140.414 512.006 140.378 c 0
 511.648 140.396 511.348 140.412 511.148 140.424 c 2
 510.862 140.438 l 1
 510.802 140.442 l 1
 510.79 140.442 l 1
 510.78 140.328 l 2
 509.794 140.294 508.544 140.268 507.056 140.268 c 0
 501.162 140.264 491.674 140.702 481.59 142.786 c 0
 471.498 144.86 460.87 148.62 452.554 154.914 c 0
 444.584 160.934 436.178 168.49 427.862 179.802 c 0
 415.406 196.756 403.116 222.296 393.926 263.722 c 0
 385.046 303.736 379.104 358.512 378.716 434.28 c 0
 379.17 539.56 389.776 605.558 404.056 647.976 c 0
 411.356 669.674 419.586 685.204 427.902 696.838 c 0
 436.23 708.47 444.642 716.232 452.61 722.414 c 0
 460.926 728.876 471.536 732.732 481.616 734.862 c 0
 491.686 737.002 501.162 737.444 507.052 737.44 c 0
 508.546 737.44 509.802 737.412 510.79 737.38 c 2
 510.8 737.256 l 1
 510.802 737.256 l 2
 510.822 737.26 511.25 737.292 511.994 737.33 c 0
 512.336 737.31 512.636 737.294 512.83 737.284 c 2
 513.188 737.26 l 1
 513.2 737.382 l 2
 514.18 737.414 515.436 737.442 516.936 737.442 c 0
 522.822 737.444 532.298 737.004 542.374 734.864 c 0
 552.45 732.734 563.058 728.88 571.38 722.416 c 0
 579.35 716.232 587.756 708.472 596.08 696.84 c 0
 608.55 679.404 620.858 653.136 630.054 610.564 c 0
 638.94 569.444 644.884 513.16 645.274 435.338 c 0
 644.828 332.83 634.222 268.59 619.956 227.324 c 0
857.834 564.71 m 0
 793.25 781.636 624.86 826.346 511.988 826.346 c 0
 397.728 826.346 230.75 781.636 166.17 564.71 c 0
 153.428 521.914 148.382 479.596 149.2 438.86 c 0
 148.384 398.122 153.428 355.808 166.17 313.006 c 0
 230.75 96.08 397.728 51.37 511.988 51.37 c 0
 624.86 51.37 793.25 96.08 857.834 313.006 c 0
 870.574 355.802 875.62 398.122 874.802 438.86 c 0
 875.618 479.596 870.574 521.912 857.834 564.71 c 0
591.224 134.174 m 0
 566.91 114.716 526.672 111.51 512.122 111.038 c 0
 497.57 111.51 457.09 114.718 432.772 134.174 c 0
 399.898 160.466 357.246 216.178 356.616 438.862 c 0
 357.246 661.542 399.898 717.252 432.772 743.55 c 0
 457.09 763.004 497.568 766.212 512.122 766.68 c 0
 526.67 766.212 566.91 763.002 591.224 743.55 c 0
 624.1 717.254 666.75 661.542 667.378 438.86 c 0
 666.75 216.178 624.102 160.468 591.224 134.174 c 0
EndSplineSet
Validated: 41
EndChar

StartChar: uniE647
Encoding: 73 58951 73
Width: 1024
LayerCount: 2
Fore
SplineSet
261.486 800.032 m 1
 243.506 797.376 221.9 788.928 206.574 778.428 c 0
 196.554 771.788 183.642 759.36 176.16 749.582 c 0
 167.83 738.6 157.692 717.478 153.71 702.996 c 2
 150.33 690.928 l 1
 150.33 187.654 l 1
 153.71 175.586 l 2
 157.692 161.104 167.83 139.984 176.16 129 c 0
 191.848 108.482 215.986 91.222 240.246 83.38 c 0
 260.28 76.984 250.264 77.226 511.796 77.226 c 0
 773.45 77.226 763.434 76.984 783.346 83.5 c 0
 807.726 91.344 831.864 108.482 847.432 129 c 0
 855.76 140.104 866.018 161.226 870 175.586 c 2
 873.26 187.654 l 1
 873.26 690.928 l 1
 869.88 702.996 l 2
 865.898 717.476 855.76 738.598 847.432 749.582 c 0
 839.95 759.358 827.036 771.788 817.02 778.428 c 0
 806.278 785.79 788.778 793.754 775.26 797.496 c 2
 763.434 800.756 l 1
 516.022 800.876 l 2
 380.002 800.996 265.35 800.634 261.488 800.03 c 2
 261.486 800.032 l 1
598.692 666.912 m 1
 636.828 660.634 662.898 648.084 679.918 627.808 c 0
 687.156 619.24 695.606 602.224 699.106 589.55 c 0
 701.278 581.224 701.64 576.516 701.76 555.756 c 0
 701.88 533.912 701.64 530.652 699.106 522.084 c 0
 691.74 496.498 675.69 476.824 649.742 461.618 c 2
 640.81 456.428 l 1
 647.208 454.378 l 2
 656.982 451.118 673.274 442.67 681.604 436.396 c 0
 702.362 420.704 716.844 396.328 722.638 367.24 c 0
 725.412 352.758 725.412 321.74 722.514 308.466 c 0
 711.052 256.208 670.618 219.882 609.792 207.692 c 0
 586.498 202.986 580.466 202.744 455.432 202.744 c 2
 333.176 202.744 l 1
 333.176 669.932 l 1
 459.656 669.448 l 2
 572.86 669.084 587.344 668.844 598.69 666.914 c 1
 598.692 666.912 l 1
436.97 535.12 m 1
 436.97 480.084 l 1
 495.262 480.566 l 2
 549.934 481.17 554.036 481.29 562.848 483.704 c 0
 590.364 491.186 602.314 506.998 602.314 535.964 c 0
 602.314 558.17 594.468 572.532 577.454 580.982 c 0
 562.368 588.462 546.074 590.032 481.988 590.152 c 2
 436.972 590.152 l 1
 436.972 535.118 l 1
 436.97 535.12 l 1
436.97 346.362 m 1
 436.97 282.274 l 1
 500.692 282.758 l 2
 572.262 283.242 574.674 283.484 592.296 292.052 c 0
 612.574 301.95 621.622 318.12 621.622 344.554 c 0
 621.622 378.584 608.106 397.414 576.968 406.828 c 0
 568.16 409.602 566.47 409.602 502.504 410.088 c 2
 436.97 410.448 l 1
 436.97 346.362 l 1
EndSplineSet
Validated: 41
EndChar

